<?xml version="1.0" encoding="utf-8"?>
<!-- Generator: Adobe Illustrator 22.0.1, SVG Export Plug-In . SVG Version: 6.00 Build 0)  -->
<svg version="1.1" id="Livello_1" xmlns="http://www.w3.org/2000/svg" xmlns:xlink="http://www.w3.org/1999/xlink" x="0px" y="0px"
	 viewBox="0 0 502.3 131.3" style="enable-background:new 0 0 502.3 131.3;" xml:space="preserve">
<style type="text/css">
	.st0{fill:#0076B6;}
	.st1{fill:#F47B3F;}
	.st2{enable-background:new    ;}
	.st3{fill:#FFFFFF;}
	.st4{fill:none;stroke:#FFFFFF;stroke-miterlimit:10;}
</style>
<path class="st0" d="M352.9,65.7c0-25.8,11.2-49.1,29-65.1H65.7c-36,0-65.1,29.1-65.1,65.1s29.1,65.1,65.1,65.1h316.1
	C364,114.7,352.9,91.5,352.9,65.7z"/>
<path class="st1" d="M501.6,65.7c0-36-29.1-65.1-65.1-65.1s-65.1,29.1-65.1,65.1s29.1,65.1,65.1,65.1
	C472.5,130.7,501.6,101.6,501.6,65.7z"/>
<g>
	<g class="st2">
		<path class="st3" d="M398.1,94.8V37h9.3v57.8H398.1z"/>
		<path class="st3" d="M458.2,92.9c-4.7,1.3-10,1.8-16.5,1.8h-18.5V37h21.7c5.4,0,10,0.4,14.1,1.4c13.4,3.2,22.3,11.9,22.3,26.6
			C481.2,79.7,472.1,89.1,458.2,92.9z M456.5,46.5c-3.7-1-7.8-1.2-12.8-1.2h-11.2v41.1h9c5.7,0,10.4-0.5,14.5-1.7
			c9.6-2.8,15.5-9.1,15.5-19.8C471.5,54.2,465.3,48.8,456.5,46.5z"/>
	</g>
	<g class="st2">
		<path class="st4" d="M398.1,94.8V37h9.3v57.8H398.1z"/>
		<path class="st4" d="M458.2,92.9c-4.7,1.3-10,1.8-16.5,1.8h-18.5V37h21.7c5.4,0,10,0.4,14.1,1.4c13.4,3.2,22.3,11.9,22.3,26.6
			C481.2,79.7,472.1,89.1,458.2,92.9z M456.5,46.5c-3.7-1-7.8-1.2-12.8-1.2h-11.2v41.1h9c5.7,0,10.4-0.5,14.5-1.7
			c9.6-2.8,15.5-9.1,15.5-19.8C471.5,54.2,465.3,48.8,456.5,46.5z"/>
	</g>
</g>
<g class="st2">
	<path class="st3" d="M48.8,95.3c-6.8,0-11.3-3.2-11.3-10.3V57.1h-9.8v-8.7h19.7v35c0,2,1.1,2.9,3.4,2.9c1.1,0,2.7-0.2,4-0.6
		l1.9,8.4C54.1,94.9,51.6,95.3,48.8,95.3z M42.4,40.5c-3.7,0-6.7-2.8-6.7-6.5c0-3.7,3-6.5,6.7-6.5c3.7,0,6.7,2.8,6.7,6.5
		C49.1,37.7,46.2,40.5,42.4,40.5z"/>
	<path class="st3" d="M118.7,95.3c-6.8,0-11.3-3.2-11.3-10.3V65.1c0-5.4-1.6-8.8-7.6-8.8c-9,0-16.7,10.2-19.5,21.4
		c-1.2,4.8-1.4,8.6-1.4,12.6v4.5h-10V57.1H58.7v-8.7h20.1v14.1H79c4.4-8.7,11.9-15.3,22.3-15.3c10.2,0,16,5.6,16,16.3v19.9
		c0,2,1.1,2.9,3.4,2.9c1.1,0,2.7-0.2,4-0.6l1.9,8.4C124,94.9,121.5,95.3,118.7,95.3z"/>
	<path class="st3" d="M154.8,95.7c-7.4,0-14.6-3.5-14.6-13.8V57.1h-12.5v-8.7h12.5V36.7h10v11.7h17.2v8.7h-17.2v22.8
		c0,5.3,2.7,6.7,6.4,6.7c3.5,0,6.9-1.3,10.1-3.1l3.7,7.9C166.2,93.8,161.4,95.7,154.8,95.7z"/>
	<path class="st3" d="M197.2,76c-3.5,0-7.3-0.1-10.6-0.5c0.5,7.3,6.5,11.1,15.5,11.1c6.3,0,10.7-1.3,15.8-3.5l3.2,8.1
		c-5.7,2.8-11.8,4.5-20.1,4.5c-15.4,0-25.3-9.1-25.3-23.3c0-15.8,11.2-25.3,26.7-25.3c10.5,0,19.7,4.5,19.7,14.1
		C222.2,70.5,213.5,76,197.2,76z M202.5,56.3c-8,0-14,3.5-15.5,10.4c3.2,0.4,6.7,0.5,9.7,0.5c11.9,0,15-3.3,15-6.2
		C211.7,57.9,208,56.3,202.5,56.3z"/>
	<path class="st3" d="M251.1,95.7c-8,0-15.7-2-21.2-5.2l4-8.1c4.5,2.5,10.1,4.2,16.9,4.2c5.4,0,10.8-1.1,10.8-5.5
		c0-0.9-0.3-1.6-0.8-2.2c-4-4.6-21.4-1.4-26.9-10.4c-1.1-1.7-1.7-4-1.7-6.8c0-9.8,8.2-14.6,18.6-14.6c6.9,0,13.7,1.5,20.6,4.4
		l-3.4,8.1c-6.4-2.4-11.1-3.4-16.9-3.4c-5.9,0-8.5,1.9-8.5,4.9c0,0.9,0.2,1.5,0.6,2.1c3.2,5.2,19.2,2.3,25.9,9c1.8,1.8,3,4.4,3,8.1
		C272.1,91.7,262.1,95.7,251.1,95.7z"/>
	<path class="st3" d="M329.2,95.3c-5.4,0-10.3-2.2-11.1-9.1c-0.1-0.8-0.2-1.6-0.2-2.6h-0.2c-3.9,7.6-10.8,12.2-19.6,12.2
		c-9.5,0-18.3-6.3-18.3-20.1c0-9.8,4.1-17.8,11.6-22.8c5.3-3.5,12.1-5.7,22-5.7c4.2,0,10.1,0.4,14.1,1v34.7c0,2.2,1.2,3.4,3.6,3.4
		c0.8,0,2.4-0.2,3.7-0.6l1.9,8.4C334.1,94.9,331.6,95.3,329.2,95.3z M317.5,56.6c-1.9-0.2-3.5-0.3-5.7-0.3c-6.1,0-11.1,1.5-14.8,4.3
		c-4.4,3.4-6.9,8.5-6.9,14.7c0,7.6,3.7,11.4,9.2,11.4c8.3,0,18.1-9,18.1-29.1V56.6z"/>
</g>
</svg>
