<?xml version="1.0" encoding="utf-8"?>
<svg version="1.1" id="Layer_1" xmlns="http://www.w3.org/2000/svg" xmlns:xlink="http://www.w3.org/1999/xlink" x="0px" y="0px"
	 viewBox="0 0 270 100" style="enable-background:new 0 0 270 100;" xml:space="preserve">
<style type="text/css">
	.st0{fill:#0066CC;}
	.st1{fill:none;}
	.st2{fill:#FFFFFF;}
</style>
<rect y="0" class="st0" width="99.8" height="99.8"/>
<path class="st1" d="M0,0"/>
<g>
	<path id="XMLID_3_" class="st2" d="M89.8,49.9c0,22-17.8,39.9-39.9,39.9C27.9,89.8,10,72,10,49.9S27.9,10,49.9,10
		S89.8,27.9,89.8,49.9"/>
	<path id="XMLID_2_" class="st0" d="M50,53.3c-3.3,0-6-1.1-8.2-3.4c-2.1-2.2-3.2-5-3.2-8.3s1.1-6.1,3.2-8.3S46.6,30,50,30
		c3.3,0,6,1.1,8.1,3.4s3.1,5,3.1,8.3s-1,6-3.1,8.2C56,52.2,53.3,53.3,50,53.3"/>
	<path id="XMLID_1_" class="st0" d="M38.6,69.6c0-3.3,1.1-6.1,3.2-8.3c2.1-2.2,4.8-3.3,8.2-3.3c3.3,0,6,1.1,8.1,3.4
		c2.1,2.3,3.1,5,3.1,8.3"/>
</g>
<g>
	<path class="st0" d="M127.9,37.3h5.5l-6,25.8h-9.7l-6-25.8h5.5l4.5,21.2h1.7L127.9,37.3z"/>
	<path class="st0" d="M150,50.1V58c0.1,0.6,0.2,1,0.3,1.3c0.1,0.3,0.5,0.4,0.9,0.5l-0.2,3.8c-1.3,0-2.3-0.1-3.1-0.3
		c-0.8-0.2-1.5-0.5-2.3-1.1c-1.8,0.9-3.7,1.3-5.6,1.3c-3.9,0-5.9-2.1-5.9-6.2c0-2,0.5-3.5,1.6-4.3c1.1-0.8,2.8-1.3,5-1.5l4.1-0.3
		v-1.1c0-0.8-0.2-1.3-0.5-1.6c-0.4-0.3-0.9-0.4-1.7-0.4l-7.1,0.3l-0.2-3.5c2.7-0.7,5.3-1.1,7.7-1.1s4.2,0.5,5.3,1.5
		C149.5,46.2,150,47.8,150,50.1z M141.5,55.1c-1.4,0.1-2.1,0.9-2.1,2.3c0,1.4,0.6,2.1,1.9,2.1c1,0,2-0.2,3.1-0.5l0.6-0.2v-4.1
		L141.5,55.1z"/>
	<path class="st0" d="M155.1,63.1V36.6h5.1v26.5H155.1z"/>
	<path class="st0" d="M165.1,41.7v-5.2h5.1v5.2H165.1z M165.1,63.1V44.2h5.1v18.9H165.1z"/>
	<path class="st0" d="M191,36.6v26.5h-5v-0.8c-1.8,0.8-3.3,1.2-4.6,1.2c-2.8,0-4.7-0.8-5.8-2.4S174,57,174,53.5c0-3.4,0.6-6,2-7.5
		c1.3-1.6,3.3-2.4,5.9-2.4c0.8,0,1.9,0.1,3.4,0.4l0.7,0.2v-7.7L191,36.6L191,36.6z M185.4,58.6l0.5-0.1v-10
		c-1.4-0.3-2.6-0.4-3.7-0.4c-2,0-3.1,1.8-3.1,5.5c0,2,0.2,3.4,0.7,4.2c0.5,0.8,1.2,1.3,2.3,1.3C183.1,59,184.2,58.8,185.4,58.6z"/>
	<path class="st0" d="M210.2,50.1V58c0.1,0.6,0.2,1,0.3,1.3c0.1,0.3,0.5,0.4,0.9,0.5l-0.2,3.8c-1.3,0-2.3-0.1-3.1-0.3
		c-0.8-0.2-1.5-0.5-2.3-1.1c-1.8,0.9-3.7,1.3-5.6,1.3c-3.9,0-5.9-2.1-5.9-6.2c0-2,0.5-3.5,1.6-4.3c1.1-0.8,2.8-1.3,5-1.5l4.1-0.3
		v-1.1c0-0.8-0.2-1.3-0.5-1.6c-0.4-0.3-0.9-0.4-1.7-0.4l-7.1,0.3l-0.2-3.5c2.7-0.7,5.3-1.1,7.7-1.1s4.2,0.5,5.3,1.5
		C209.7,46.2,210.2,47.8,210.2,50.1z M201.7,55.1c-1.4,0.1-2.1,0.9-2.1,2.3c0,1.4,0.6,2.1,1.9,2.1c1,0,2-0.2,3.1-0.5l0.6-0.2v-4.1
		L201.7,55.1z"/>
	<path class="st0" d="M225.6,48.5h-4.7v7.8c0,0.8,0,1.3,0.1,1.6c0,0.3,0.2,0.6,0.4,0.8c0.2,0.2,0.6,0.3,1.1,0.3l2.9-0.1l0.2,4.1
		c-1.7,0.4-3,0.6-3.9,0.6c-2.3,0-3.8-0.5-4.7-1.5s-1.3-2.9-1.3-5.7v-7.9h-2.2v-4.3h2.2v-5.3h5.1v5.3h4.7L225.6,48.5L225.6,48.5z"/>
	<path class="st0" d="M229.9,46.2c1.3-1.7,3.6-2.6,6.7-2.6s5.4,0.9,6.7,2.6c1.3,1.7,2,4.2,2,7.3c0,6.6-2.9,10-8.7,10
		s-8.7-3.3-8.7-10C227.9,50.5,228.5,48,229.9,46.2z M233.8,57.8c0.5,0.9,1.4,1.4,2.8,1.4c1.3,0,2.3-0.5,2.8-1.4s0.8-2.3,0.8-4.3
		c0-1.9-0.3-3.4-0.8-4.2c-0.5-0.8-1.4-1.3-2.8-1.3c-1.3,0-2.3,0.4-2.8,1.3c-0.5,0.9-0.8,2.3-0.8,4.2C233,55.6,233.3,57,233.8,57.8z"
		/>
	<path class="st0" d="M249,63.1V44.2h5v2c2.1-1.3,4.1-2.1,6.1-2.5v5.1c-2,0.4-3.8,0.9-5.3,1.3l-0.8,0.3v12.7H249z"/>
</g>
</svg>
