<?xml version="1.0" encoding="utf-8"?>
<!-- Generator: Adobe Illustrator 16.0.0, SVG Export Plug-In . SVG Version: 6.00 Build 0)  -->
<!DOCTYPE svg PUBLIC "-//W3C//DTD SVG 1.1//EN" "http://www.w3.org/Graphics/SVG/1.1/DTD/svg11.dtd">
<svg version="1.1" id="Layer_1" xmlns="http://www.w3.org/2000/svg" xmlns:xlink="http://www.w3.org/1999/xlink" x="0px" y="0px"
	 width="1273px" height="250px" viewBox="0 0 1273 250" enable-background="new 0 0 1273 250" xml:space="preserve">
<g transform="translate(0.000000,250.000000) scale(0.100000,-0.100000)">
	<path fill="#FFFFFF" d="M1827.002,2370c-6.997-11.001-21.997-20-32.998-20c-43.999,0-58.999-46.001-27.002-77.998
		c10-10,16.001-24.004,14.004-30c-6.001-20,16.997-41.001,55-48.003c18.999-3.999,45-16.997,57.998-30
		c15-13.999,36.001-23.999,52.998-23.999c17.002,0,32.002-6.001,36.001-15c3.003-7.998,12.002-15,20-15
		c8.999,0,22.002-12.998,31.001-28.999c7.998-16.001,20-31.001,26.001-33.003c6.997-1.997,1.997-15-13.999-32.998l-25-30
		l-36.001,17.998c-32.002,15-36.001,21.001-36.001,55c0,36.001-2.002,40-38.999,50c-56.001,17.002-68.999,15-85-15.996
		c-13.003-24.004-18.999-28.003-50-24.004c-40,5-53.003,16.001-58.003,52.002c-2.998,22.998-7.998,25-58.999,27.998l-56.997,3.003
		l-9.004-38.003c-7.998-35-11.997-37.998-50-43.999c-38.999-5-42.998-2.998-53.999,23.999c-11.001,25-16.001,28.003-42.998,24.004
		c-17.002-3.003-40-8.003-51.001-12.002s8.999,8.999,43.999,28.999s75,46.001,88.999,58.003
		c49.004,45.996,65,107.998,28.003,107.998c-12.002,0-13.999,7.002-10,30c6.001,25,2.998,30-18.999,35
		c-71.001,17.998-214.004-45-309.004-135c-31.997-31.001-55.996-48.999-51.997-41.001c3.999,8.999,8.999,31.001,11.997,48.999
		c4.004,29.004,2.002,32.002-22.998,32.002c-40,0-132.002-97.998-180-192.002C952.002,2035,931.006,2000,927.002,2000
		c-3.999,0-7.998,10-10,22.002c-5.996,41.997-35,31.997-82.998-29.004c-102.002-128.999-151.001-286.997-142.998-461.997
		c5-103.999,25.996-177.002,63.999-228.003c25-32.998,36.997-58.994,47.998-107.998c3.999-15.996-11.997,7.998-36.001,55
		c-46.997,92.998-82.998,125-111.997,101.001c-38.003-32.002-8.003-238.003,52.998-358.999
		c57.002-114.004,193.003-260,243.003-262.998c6.997,0,36.997-31.006,65.996-70c29.004-38.008,59.004-69.004,66.001-69.004
		c8.003,0,18.999-7.002,26.001-15s22.002-15,33.999-15c12.002,0,35-12.998,50-29.004c23.003-23.994,27.002-35,21.001-60
		c-6.001-27.998-10-30-57.998-32.998c-47.002-2.998-58.003,1.006-118.003,42.002c-62.998,42.002-66.997,47.998-71.997,89.004
		c-3.003,25-1.001,55.996,3.999,68.994c12.998,32.998,3.999,57.002-27.002,70c-38.999,17.998-53.999,15-53.999-12.002
		c0-30-16.001-35.996-91.001-35.996c-53.999,0-58.999-2.002-65-24.004c-2.998-13.994-2.998-30,1.001-35.996
		c2.998-5-5-35-18.999-65.996C701.006,502.998,689.004,470,689.004,460c0-54.004,312.002-259.004,407.998-267.002
		c26.001-2.002,89.004,2.002,140,10c50,7.002,92.002,12.002,92.002,11.006c0-8.008-48.999-35-70-39.004
		c-30-5.996-32.998-10-26.001-37.002C1241.006,105,1310.005,60,1351.006,60c26.997,0,40,9.004,76.997,50.996
		c23.999,28.008,58.999,58.008,77.002,65c18.999,8.008,41.001,26.006,50,39.004c26.001,39.004,48.999,47.998,90,32.998
		c26.997-10,41.001-10,66.001,0c28.999,11.006,35.996,9.004,70-15c21.997-13.994,60.996-47.002,87.998-72.002
		C1946.006,89.004,1971.006,70,1986.006,70c6.997,0,35.996,10.996,62.998,25c55,27.998,67.002,59.004,27.998,70
		c-27.998,9.004-90,45.996-85,50.996c2.002,2.002,66.001-2.998,143.003-10.996c76.001-7.998,147.998-15,160-15
		c26.001,0,277.998,177.002,321.997,227.002c38.003,42.998,39.004,50.996,12.002,95.996c-12.002,19.004-22.998,57.998-27.002,86.006
		c-2.998,27.998-10.996,55-16.997,57.998c-6.001,3.994-38.003,7.998-71.001,7.998c-56.001,0.996-60,2.002-63.999,25
		c-1.001,14.004-7.002,27.002-12.002,30c-3.999,2.998,13.999,15.996,41.001,29.004c36.001,16.992,50,28.994,50,43.994
		c0,12.002,17.998,40,41.001,62.998c26.997,28.008,41.997,52.002,43.999,73.008c1.001,16.992,7.002,35.996,12.002,42.998
		c23.999,30,42.998,78.994,42.998,110.996c0,20,7.002,41.006,17.998,51.006c16.001,13.994,19.004,31.992,20,112.998
		c0,52.998-3.999,107.998-8.999,120.996c-7.998,22.002-13.999,24.004-47.998,18.003c-22.002-3.003-48.003-8.999-58.003-12.002
		c-12.998-5-11.997-1.997,5,10c13.003,10,22.002,28.003,22.002,43.999c0,15,12.998,53.003,28.999,86.001
		c26.001,52.002,31.001,86.001,12.002,86.001c-3.999,0-5,17.998-3.003,38.999c2.002,21.001-1.997,48.999-8.999,62.002
		c-17.998,32.998-47.998,120-48.999,141.001c0,8.999-6.001,22.998-12.998,30c-7.002,6.997-22.002,30.996-33.003,52.998
		c-10,22.002-28.999,45-41.997,51.001c-12.002,6.001-33.003,21.001-46.001,32.998C2453.002,2020,2436.006,2030,2427.002,2030
		c-10,0-23.999,22.002-37.998,60c-17.998,47.998-27.002,60-43.999,60c-15,0-25,8.999-33.003,30c-8.999,23.999-16.997,30-40,30
		c-15,0-45.996,8.999-66.997,21.001c-21.001,11.001-43.999,17.998-52.002,15c-6.997-3.003-16.001,3.999-18.999,15
		c-3.999,10-15,18.999-27.002,18.999c-10.996,0-42.998,17.998-70,40c-30.996,25-60.996,40-77.998,40c-15,0-47.002,7.002-70,15
		C1837.002,2392.998,1842.002,2393.999,1827.002,2370z M1903.003,2335c15-7.998,38.003-12.002,50-8.999
		c17.002,3.999,35-6.001,73.999-41.001c28.003-26.001,56.001-43.999,61.001-41.001c5,3.999,12.002,2.002,15-2.998
		c3.003-5-7.998-11.001-25-13.003c-33.999-5-50,6.001-76.001,55c-12.998,24.004-17.998,28.003-20.996,15
		c-2.002-8.999,1.997-26.997,8.999-40l11.997-21.997l-27.998,17.998c-16.001,11.001-40,32.002-52.998,47.002
		c-28.003,33.999-46.001,37.998-37.002,7.998c6.001-17.998,5-18.999-12.998-10c-24.004,13.003-62.002,15-62.002,3.003
		c0-4.004,20-13.003,46.001-20c51.001-14.004,50-32.002-2.002-32.002c-18.999,0-32.998,3.999-30,8.999
		c3.003,5-6.001,16.001-18.999,25C1771.006,2305,1780.005,2320,1826.006,2320c26.997,0,33.999,2.998,28.999,15
		C1848.003,2353.999,1866.006,2353.999,1903.003,2335z M1503.003,2316.001c-7.998-13.999-27.998-28.003-43.999-31.001
		c-30-7.002-132.998-68.999-182.998-111.001c-16.001-12.998-33.003-23.999-40-23.999c-15,0,98.999,87.002,160,122.002
		c53.999,30,72.998,47.998,52.998,47.998c-17.998,0-91.001-40-160-87.002c-45-31.997-57.998-36.997-41.001-18.999
		c53.003,57.002,188.003,125,248.999,126.001C1519.004,2340,1519.004,2338.999,1503.003,2316.001z M1537.002,2262.002
		c6.001-20-58.999-71.001-152.998-118.003c-101.001-51.001-90-37.998,32.002,38.999c45.996,29.004,82.998,55,82.998,60
		c0,19.004-42.002,3.003-112.998-42.998c-91.001-58.999-94.004-48.999-4.004,12.002c61.001,40.996,123.003,70,141.001,63.999
		C1529.004,2275,1535.005,2267.998,1537.002,2262.002z M1953.003,2228.999l25-11.997l-21.997-19.004l-22.002-20l25,7.002
		c67.998,17.998,80,17.998,80-2.998c0-11.001,2.998-27.002,6.001-35c3.999-12.002,0-14.004-15-10
		c-12.002,2.998-21.001,11.997-21.001,18.999c0,8.999-11.001,13.999-28.999,13.999c-40,0-76.001,21.001-78.003,47.998
		C1899.004,2242.998,1914.004,2246.001,1953.003,2228.999z M1113.003,2147.998c-15-40-46.001-101.997-66.997-137.998
		c-38.003-63.999-125-190-131.001-190c-3.999,0,123.999,246.001,152.998,292.998c26.001,42.002,18.999,48.003-17.998,15
		c-22.002-20-23.003-20-11.001-2.998c22.998,32.998,92.998,105,97.998,100C1139.004,2222.998,1129.004,2187.998,1113.003,2147.998z
		 M1876.006,2223.999c-3.003-2.998-12.002-3.999-19.004-1.001c-7.998,3.003-5,6.001,6.001,6.001
		C1874.004,2230,1880.005,2227.002,1876.006,2223.999z M2127.002,2187.002c6.001,0,12.002-6.001,12.002-14.004
		c0-10.996-3.999-10.996-21.001-2.998c-30,17.002-36.001,3.999-11.001-22.998c23.003-25,20-37.002-8.999-37.002
		c-11.997,0-16.001,5-12.998,15c3.999,7.998,1.001,22.002-6.001,30c-17.002,21.001-5,48.999,17.998,40
		C2106.006,2191.001,2120.005,2187.002,2127.002,2187.002z M2249.004,2177.002c18.999-2.002,27.998-11.001,40-44.004
		c18.999-50.996,26.001-58.999,42.002-45c20,16.001,52.998-57.998,41.997-95c-7.998-25.996-8.999-23.999-11.997,20
		c-3.003,50-22.002,67.002-22.002,20V2005l-30,30c-18.999,20-31.001,42.998-33.999,68.999c-6.001,50-16.001,58.999-16.001,15
		c-1.001-32.998-1.001-33.999-17.998-12.998c-9.004,11.001-25,31.001-34.004,45c-12.998,17.998-16.997,20-16.997,6.997
		c-1.001-8.999,15-37.998,35-63.999c32.998-42.998,33.999-46.001,12.998-40c-62.998,17.002-68.999,18.003-68.999,7.002
		c0-5,18.999-15,42.998-21.001c65-17.002,83.003-26.001,105-57.998l21.001-29.004L2286.006,1965c-29.004,7.002-60,16.001-69.004,20
		c-10,3.999-17.998,2.998-17.998-2.998c0-6.001,32.998-21.001,72.998-34.004c66.001-20.996,72.002-25,75-52.998l4.004-30
		l-29.004,26.001c-35.996,33.999-67.998,50-85,43.999c-15-6.001-57.998,28.999-57.998,46.001c0,6.001,8.999,12.998,20,16.001
		c25,6.997,26.001,20,2.002,26.997c-11.001,3.999-29.004,17.002-41.001,30l-23.003,23.999l21.001,11.001
		c16.001,8.999,18.999,18.003,15,41.001c-8.999,42.998,2.002,63.999,28.999,55
		C2214.004,2181.001,2235.005,2177.002,2249.004,2177.002z M1699.004,2085c5-27.998,8.999-31.001,63.999-38.999
		c60-8.999,76.001-2.002,88.999,36.997c2.002,8.003,14.004,8.003,38.003,1.001c31.001-8.999,33.999-11.997,31.001-45
		c-3.003-33.999-1.001-36.997,48.999-62.998l51.997-27.002l23.003,22.002c15,13.999,28.999,18.999,41.997,15
		c35-11.001,43.003-28.999,30-63.999c-11.997-30-10-34.004,27.002-72.002c22.002-22.002,45-37.998,52.002-36.001
		c15.996,7.002,16.997-6.001,1.997-21.001c-7.998-7.998-6.997-18.999,3.999-41.997c9.004-17.002,11.001-31.001,6.001-31.001
		s-8.999-11.001-8.999-25c0-18.999,11.001-32.002,47.998-53.999c54.004-33.999,85-80,88.003-133.003
		c3.999-78.999,12.998-96.997,50-103.999c32.998-6.001,35-7.998,31.997-42.998c-1.997-28.999-6.997-37.002-25.996-38.999
		c-15-2.002-29.004,3.999-38.003,15.996c-15,21.001-78.999,28.003-100,11.001c-7.998-6.997-12.998,6.001-17.998,41.001
		c-3.999,27.002-8.003,50-11.001,50c-2.002,0-53.999-17.998-116.001-40c-61.001-22.002-113.999-38.999-116.001-36.001
		c-1.997,2.002,45,42.002,106.001,88.003c128.999,97.998,131.001,93.999-68.999,97.998l-125,2.002l120,33.999
		c66.001,18.999,126.001,36.001,132.998,38.999c10,3.999,8.003,15-10,46.001c-52.998,96.001-183.999,198.999-300,237.998
		c-96.997,33.003-90.996,41.001-85.996-118.999c1.997-77.002,3.999-140,2.998-140s-23.999,62.002-50,137.998
		c-26.001,75-51.001,141.001-55,145c-3.999,5-30-55.996-58.999-135L1549.004,1655l6.001,137.998
		c7.998,159.004,12.998,152.002-97.002,113.003c-78.999-27.002-157.998-78.999-216.001-138.003
		c-40.996-42.998-92.998-113.999-92.998-127.998c0-3.999,60-25,132.998-46.001L1414.004,1555l-147.002-5
		c-80.996-2.998-150-7.998-152.998-12.002c-2.998-2.998,42.998-42.998,103.999-88.999c60-46.001,108.999-85,107.002-86.001
		c-2.002-2.998-132.002,44.004-228.003,82.002c-13.999,6.001-17.998,2.002-17.998-17.998c0-15-12.002-38.003-28.999-55
		c-16.001-16.001-33.999-47.002-40-69.004c-6.001-21.997-18.003-45.996-26.001-52.998c-12.998-10.996-15-7.002-15,22.998
		c0,36.001-12.002,47.002-51.001,47.002c-15,0-18.999,7.002-18.999,40c0,37.002,2.002,40,33.999,45
		c33.003,7.002,33.999,7.998,40,66.001c6.001,51.001,13.999,68.999,62.002,131.997c66.997,88.003,113.999,180,121.001,238.003
		c5.996,47.998,57.998,148.999,75.996,148.999c6.001,0,21.001-8.999,33.003-21.001l21.997-20l51.001,25
		c48.003,25,51.001,28.999,51.001,63.999s2.998,40,33.999,49.004c33.003,10,35,8.999,46.001-18.003
		c12.998-31.001,21.001-32.998,92.998-22.998c42.002,6.001,46.001,8.999,52.002,41.001c6.001,31.997,7.998,33.999,42.998,30.996
		C1689.004,2115,1695.005,2111.001,1699.004,2085z M2088.003,2090c8.999,0,23.003-13.999,31.001-32.002
		c7.002-17.998,15-35.996,17.998-40c6.001-11.997-35.996-8.999-42.998,2.002c-2.998,6.001-1.001,10,3.999,10
		c18.999,0,12.002,22.002-13.999,42.002c-13.999,10.996-25,25-23.999,30.996c0,8.003,1.997,8.003,6.001,0
		C2068.003,2096.001,2078.003,2090,2088.003,2090z M1366.006,2060c0.996-37.002-2.002-42.002-37.002-60l-37.002-18.999
		L1264.004,2010l-27.998,28.999l63.999,30c35,16.001,63.999,30,63.999,30C1364.004,2100,1365.005,2082.002,1366.006,2060z
		 M1184.004,1991.001C1155.005,1930,1141.006,1910,1122.002,1905c-13.999-2.998-26.997-5-27.998-2.998
		c-2.002,1.997,23.999,45,57.998,96.997c34.004,52.002,63.003,88.999,65,82.002C1219.004,2075,1204.004,2033.999,1184.004,1991.001z
		 M1132.002,2012.998c-57.998-85-72.998-100.996-42.998-45.996c22.002,40.996,77.002,112.998,85,112.998
		C1177.002,2080,1157.002,2050,1132.002,2012.998z M868.003,1837.002C770.005,1475,769.004,1472.998,775.005,1535
		c8.999,103.999,32.998,233.999,53.999,292.998c22.998,65,22.998,62.002,11.001,62.002c-13.999,0-58.999-115-75-193.999
		C756.006,1655,746.006,1575,742.002,1517.998c-5.996-91.997-7.998-98.999-15.996-62.998c-12.002,53.999-2.002,216.001,17.998,290
		c20,77.002,56.001,150,102.998,211.001L884.004,2005l2.998-42.998C889.004,1938.999,880.005,1882.002,868.003,1837.002z
		 M2463.002,1955c10-15,23.999-23.999,31.001-21.001c15,5,45-48.999,45-82.998c0-13.999,5-18.999,15-15
		c16.001,6.997,22.002-21.001,6.001-30c-3.999-3.003-12.002-20-16.001-38.003l-7.002-32.998l-15,35
		c-8.999,18.999-15,56.001-13.999,82.998c1.001,45-13.999,66.001-21.001,30c-1.997-10.996-10,0-20.996,30
		c-18.003,45-45,69.004-32.002,27.002c5-15,2.998-17.998-8.999-13.999c-23.999,8.999-18.999-8.999,7.998-35
		c13.999-13.003,28.999-37.002,35-52.002c10-28.999,10-28.999-11.997-13.999c-44.004,31.001-51.001,13.999-8.003-22.002
		c23.999-20,50-51.997,58.003-70.996c15.996-39.004,10.996-54.004-9.004-23.003c-12.998,21.001-27.998,28.003-27.998,13.003
		c0-5,15-26.001,32.998-48.003c19.004-21.001,36.001-48.999,39.004-61.001l5.996-21.997l-28.999,21.001
		c-16.997,12.998-28.999,30.996-28.999,43.999c0,11.997-6.001,23.999-13.999,26.997c-10,4.004-16.001,24.004-18.003,54.004
		c-2.998,40.996-5.996,47.998-25,50.996c-12.998,2.002-22.998,10-22.998,18.003c0,7.998-7.002,28.999-16.001,46.001
		c-12.998,25-13.999,35.996-5,50c6.001,10,11.001,28.999,11.001,41.997C2399.004,2005,2427.002,2010,2463.002,1955z
		 M2219.004,1883.999c0-5-6.001-17.998-12.998-27.998c-11.001-16.001-15-15-41.001,12.998c-20,21.001-26.001,35-21.001,50l6.001,20
		l33.999-21.997C2203.003,1905,2219.004,1890,2219.004,1883.999z M1524.004,1726.001C1520.005,1635,1513.003,1560,1510.005,1560
		c-8.999,0-313.003,88.999-317.002,92.998c-10,9.004,87.002,114.004,142.002,153.003c57.998,41.001,181.997,97.998,192.998,88.999
		C1530.005,1892.998,1528.003,1817.002,1524.004,1726.001z M2309.004,1845c0-32.002-7.002-31.001-32.002,0
		c-10.996,13.999-22.998,22.998-27.998,20c-3.999-2.998-6.001,3.999-2.998,15c5,17.998,6.997,17.998,33.999,3.999
		C2300.005,1873.999,2309.004,1862.002,2309.004,1845z M1900.005,1852.998c52.998-25.996,95-56.997,146.997-108.999
		c39.004-41.001,72.002-80,72.002-86.997c0-15-307.002-104.004-317.998-92.002c-3.003,2.998-8.003,77.998-10,165
		C1786.006,1917.998,1781.006,1912.002,1900.005,1852.998z M1124.004,1837.998c-7.998-36.997-77.998-175-101.001-197.998
		c-8.999-7.998,3.003,17.002,25,56.001c43.003,75,47.002,83.999,32.002,83.999c-11.001,0-138.999-196.001-175-267.998
		c-47.002-94.004-38.999-48.003,11.001,63.999c68.999,155,166.997,293.999,205.996,293.999
		C1127.002,1870,1128.003,1855,1124.004,1837.998z M1714.004,1698.999c30-83.999,55-157.998,55-163.999
		s67.002-11.001,177.002-12.998c97.998-2.002,178.999-5,180-6.001c5-3.999-258.003-201.001-272.002-203.999
		c-17.998-4.004-17.998-7.002-5-30c11.001-18.003,101.001-314.004,97.002-319.004c-3.003-2.998-253.003,170-277.002,192.002
		c-16.001,14.004-17.998,14.004-30,0c-11.001-12.998-225-164.004-266.001-187.998c-8.999-5,65,260,88.999,322.998
		c4.004,10-6.997,23.999-35.996,42.002c-23.003,15-89.004,62.998-146.001,107.998l-103.999,80l133.999,2.002
		c73.999,1.997,155,2.998,181.001,1.997h46.997l57.002,168.003c31.997,91.997,58.999,165.996,61.001,163.999
		C1658.003,1855,1684.004,1783.999,1714.004,1698.999z M2379.004,1800c0-10-7.002-36.001-15-58.999
		c-16.001-47.002-12.002-51.001,21.001-16.001c12.998,13.999,27.998,25,33.999,25c16.001,0,12.002-62.998-6.001-88.999
		c-22.998-33.003-36.997-7.002-17.998,31.997c23.999,45,8.999,43.003-22.002-2.998l-27.998-41.001l-13.999,35
		c-12.002,31.001-12.002,38.999,6.997,82.002c23.999,52.998,23.999,53.999,12.002,53.999c-5,0-13.003-10-16.001-21.001
		c-5-16.001-8.999-17.998-15-8.999c-12.002,18.999,31.001,52.002,47.998,37.998C2373.003,1822.002,2379.004,1810,2379.004,1800z
		 M2262.002,1822.998c2.002-5,7.002-20,11.001-35c6.001-25,3.999-26.997-23.999-25c-28.999,2.002-43.999,27.002-16.001,27.002
		c8.999,0,12.002,7.002,8.999,20C2237.002,1828.999,2253.003,1838.999,2262.002,1822.998z M2584.003,1702.998
		c-3.999-26.997-2.002-42.998,3.999-42.998c7.002,0,6.001-8.999-1.997-27.002l-12.002-25.996l-12.998,43.999
		c-10,35-10,55-1.001,93.999c11.001,45,12.998,47.002,21.001,25C2586.005,1756.001,2588.002,1726.001,2584.003,1702.998z
		 M2249.004,1740c0-5-2.002-10-3.999-10c-3.003,0-8.003,5-11.001,10c-2.998,6.001-1.001,10,3.999,10
		C2244.004,1750,2249.004,1746.001,2249.004,1740z M2297.002,1695c-2.998-2.998-8.999,2.002-11.997,12.002
		c-6.001,13.999-5,15,5,5.996C2297.002,1706.001,2300.005,1697.998,2297.002,1695z M2251.006,1692.998
		c-6.001-2.998-9.004-10-5-15.996c3.999-7.002-1.001-5-11.001,2.998c-17.002,12.998-17.002,13.999,1.001,21.001
		c10,2.998,20,3.999,22.998,1.001C2262.002,1700,2258.003,1695,2251.006,1692.998z M2617.001,1623.999
		c-13.999-15-15.996-12.998-12.998,17.002c5,46.997,5,46.997,17.002,21.001C2630.004,1643.999,2629.003,1636.001,2617.001,1623.999z
		 M2469.003,1638.999c0-6.997,17.002-26.997,37.998-46.001c26.001-25,22.002-22.998-15,7.002c-56.997,45-60.996,50-37.998,50
		C2462.001,1650,2469.003,1645,2469.003,1638.999z M2333.003,1613.999c3.003-7.998,2.002-11.997-3.999-8.999s-10,10-10,16.001
		C2319.004,1635,2326.006,1632.002,2333.003,1613.999z M2382.002,1590c3.003-11.001,2.002-17.998-2.998-15
		c-3.999,2.998-10,13.999-12.998,25c-3.003,11.001-2.002,17.998,2.998,15C2373.003,1612.002,2379.004,1601.001,2382.002,1590z
		 M2416.006,1587.998c-3.003-7.998-6.001-5-6.001,6.001c-1.001,11.001,1.997,17.002,5,13.003
		C2418.003,1603.999,2419.004,1595,2416.006,1587.998z M2594.003,1580c-5-16.001-2.002-20,13.999-20c25,0,26.001-2.002,3.999-42.998
		L2595.004,1485l-7.002,45c-6.001,42.002-2.998,70,8.003,70C2598.002,1600,2597.001,1591.001,2594.003,1580z M2473.002,1546.001
		c3.999-18.999,18.003-50,31.001-70c13.999-20,25-46.001,25-56.001c0-22.998,10-26.001,27.998-7.998
		c7.002,6.997,12.002,7.998,12.002,2.998c0-6.001-11.001-20-23.999-32.002L2522.001,1360l-5.996,46.001
		c-2.002,26.001-10,50-16.001,52.998c-13.999,8.999-53.003,121.001-42.002,121.001C2463.002,1580,2470.004,1565,2473.002,1546.001z
		 M2569.003,1497.998c0-16.997-2.998-15.996-27.002,7.002c-23.999,21.001-25.996,27.002-12.998,35
		C2547.001,1551.001,2569.003,1527.002,2569.003,1497.998z M2399.004,1433.999c0-1.997-7.002-3.999-15-3.999s-15,6.001-15,13.999
		c0,7.002-2.998,28.999-6.001,47.002c-5,32.998-5,31.997,15-10C2390.005,1457.002,2399.004,1436.001,2399.004,1433.999z
		 M2425.005,1500c7.998,0,13.999-8.999,13.999-20s-3.999-20-10-20c-11.001,0-30,32.998-28.999,52.002c0,10,1.997,10,6.001,0.996
		C2408.003,1506.001,2417.002,1500,2425.005,1500z M945.005,1455c-3.999-13.999-15-23.999-30-27.002c-25-5-25-5-8.999,26.001
		c7.998,17.002,20.996,37.002,26.997,45c8.999,12.002,12.002,11.001,13.999-2.998C949.004,1486.001,948.003,1467.998,945.005,1455z
		 M2479.003,1402.998c-1.001-26.997-1.001-26.997-15-8.999c-13.999,18.999-12.002,36.001,6.001,36.001
		C2475.004,1430,2479.003,1417.998,2479.003,1402.998z M1424.004,1287.998c1.001-1.997-41.001-65-92.998-140.996l-96.001-139.004
		l-18.003,24.004c-48.999,60.996-71.997,122.002-68.999,180.996c3.003,73.003-6.001,117.002-25,117.002
		c-10,0-13.999,12.002-13.999,38.999v38.999l156.001-58.999C1351.006,1317.002,1422.002,1290,1424.004,1287.998z M2206.006,1342.998
		c-3.003-31.997-11.001-80-16.001-107.998c-13.003-60-72.002-184.004-100-209.004c-18.999-16.992-22.002-15-111.001,119.004
		c-50,75-88.999,138.999-86.001,142.002c6.001,6.997,297.002,111.997,310,111.997
		C2207.002,1400,2209.004,1373.999,2206.006,1342.998z M894.004,1300c32.998,0,55-26.001,55-65c0-27.002-5-35-31.001-45
		c-37.998-15.996-46.001-7.998-62.998,56.001c-8.999,36.001-10,58.999-2.002,88.999l11.001,40l2.998-37.002
		C870.005,1306.001,874.004,1300,894.004,1300z M1082.002,1165c1.001-100.996-1.997-152.998-12.998-185l-15-45l-2.998,60
		c-2.002,32.998,0,130,3.999,215C1064.004,1403.999,1080.005,1377.002,1082.002,1165z M2475.004,1258.999
		c-8.999-94.995-21.001-104.995-77.002-71.997c-25,15-28.999,23.994-28.999,58.999c0,42.998,10,53.999,51.001,53.999
		c15,0,18.999,7.002,18.999,32.998l1.001,32.002l20-25C2478.002,1318.999,2480.004,1306.001,2475.004,1258.999z M2664.003,1331.001
		c2.998-10,2.998-26.001-1.001-35c-2.998-8.999-1.001-23.003,6.001-32.002c11.001-11.997,10-19.995-7.002-43.003
		c-18.999-23.994-18.999-27.998-5-36.992c9.004-6.006,12.002-15,8.003-22.002c-11.001-17.998-23.999-14.004-30,7.998
		c-3.003,10.996-8.999,29.004-12.002,40c-3.999,14.004-1.001,20,10,20c8.999,0,16.001,5,16.001,10.996
		c0,6.006-8.999,8.003-21.001,4.004c-20-7.002-20-5.996-5,23.999c23.999,45,18.999,60-8.999,26.001c-21.001-25-27.002-27.998-35-15
		c-7.002,11.001-10,6.001-10-22.002c0-20-5-40-11.001-43.994c-7.998-5-8.999,5.996-3.999,36.997
		c11.001,71.001,28.999,90,92.002,97.998C2652.001,1348.999,2660.004,1342.002,2664.003,1331.001z M2302.002,1317.998
		c4.004-10,8.003-10,15,0c17.002,25,23.003-17.998,16.001-108.994c-6.997-90,2.002-113.008,31.001-89.004
		c16.001,14.004,17.998,10,8.999-14.004c-7.998-20-16.001-20-40,2.002c-12.998,11.006-20,32.998-21.001,67.002
		c-3.999,88.999-11.997,115-32.998,115c-22.002,0-22.998,1.001-13.999,23.999C2272.002,1332.998,2295.005,1335,2302.002,1317.998z
		 M701.006,1292.998C730.005,1260,767.002,1175,823.003,1010c61.001-175.996,87.002-227.002,123.999-235.996
		c31.001-9.004,37.002,0.996,23.003,32.998L959.004,835l21.001-27.998c11.997-15,26.001-24.004,31.997-20
		c7.002,3.994,6.001-1.006-1.997-10c-18.999-24.004-68.003-21.006-95,5.996C872.002,825.996,779.004,1010.996,704.004,1205
		c-7.002,17.002-8.999,17.002-12.002,4.004c-5-22.002,29.004-124.004,78.003-229.004c46.001-100,16.997-72.002-36.001,35
		c-42.002,84.004-65,170.996-65,242.002C669.004,1312.998,676.006,1321.001,701.006,1292.998z M2524.003,1287.998
		c-2.998-12.998-8.999-40.996-15-62.998l-10-40l5,40c2.998,22.002,5,50,5,62.998c0,12.002,5,22.002,10,22.002
		C2525.004,1310,2527.001,1300,2524.003,1287.998z M1030.005,1117.998c-3.999-92.002-10-170-13.003-172.998
		c-10-10-20.996,150-12.998,197.002c10,72.002,27.002,150,30,145.996C1035.005,1286.001,1034.004,1210,1030.005,1117.998z
		 M1126.006,1232.998c-3.003-10-5-3.994-5,12.002c0,17.002,1.997,23.999,5,17.998
		C1128.003,1256.001,1128.003,1242.002,1126.006,1232.998z M2280.005,1222.998c6.001-15.996,7.998-52.998,5-82.998
		c-3.003-30-5-62.998-6.001-74.004c0-15-2.998-15.996-15-5.996c-20,17.002-32.002,5-15-15c8.999-10.996,10-19.004,2.002-27.002
		c-7.002-7.002-14.004,1.006-22.002,32.002c-12.998,49.004-10,55.996,18.999,40c18.999-10,21.001-7.998,21.001,17.002
		c0,15.996-11.001,48.994-25,75c-27.002,50.996-30,62.002-16.001,52.998c5-2.998,12.002-0.996,16.001,5
		C2255.005,1257.998,2269.004,1251.001,2280.005,1222.998z M955.005,1114.004c-20-38.008-35-62.002-36.001-54.004
		c0,22.002,62.002,147.002,67.002,134.004C988.003,1187.998,974.004,1152.002,955.005,1114.004z M2599.003,1155
		c0-34.004,10-55,27.002-55c10,0,12.998-5.996,8.999-15.996c-3.003-9.004-6.001-21.006-6.001-28.008
		c0-6.992-13.999-30.996-31.001-51.992c-21.001-27.002-27.998-45-23.999-61.006c3.999-17.002-3.999-32.998-33.999-65.996
		c-21.001-22.998-40-50-42.002-61.006c-1.997-10-13.999-25-26.001-32.998c-18.999-12.998-16.997-5.996,14.004,46.006
		c18.999,32.998,43.999,62.998,53.999,65.996c11.001,4.004,18.999,10.996,18.999,17.002c0,5-7.002,7.002-16.001,3.994
		c-26.001-10-6.997,52.002,32.002,103.008c40,50.996,47.998,93.994,10,45.996l-25-30l8.999,40c5,22.002,8.999,50.996,8.999,65
		c0,22.002-1.001,22.998-10,7.002c-6.001-9.004-15-14.004-21.001-11.006c-6.997,5-8.999-3.994-3.999-27.998
		c3.003-18.994,3.003-45-1.997-57.998c-8.003-20.996-10-20-36.001,20c-21.001,32.002-30,39.004-37.002,29.004
		c-6.001-10-10-8.008-16.997,10.996c-13.003,32.998-10,34.004,26.997,15c37.002-19.004,51.001-12.998,51.001,20
		c0,17.002,3.999,22.998,13.999,19.004c8.003-3.008,20,0.996,27.002,8.994C2588.002,1192.002,2599.003,1185,2599.003,1155z
		 M1363.003,1067.998c-18.999-62.002-37.998-127.998-41.001-147.002l-5.996-33.994L1415.005,955
		c53.999,37.998,106.001,74.004,115,82.002c40,33.994,22.998,5-51.001-87.002c-45-55-77.998-105-75-110s37.998-20,77.998-32.002
		c100-30.996,244.004-30.996,344.004,0c40,12.002,73.999,26.006,76.997,30c3.003,4.004-28.999,51.006-70,104.004
		s-73.999,98.994-73.999,102.998c0,2.998,52.998-30,117.002-74.004c63.999-43.994,117.998-78.994,120-76.992
		c1.997,0.996-15,62.998-37.002,135.996s-37.998,135-36.001,137.002c2.002,2.002,33.999-44.004,71.001-102.002
		c36.001-57.998,70-105,75-105c16.001,0,70,74.004,102.998,140c17.002,35.996,33.003,67.002,35,70
		c4.004,5.996,32.002-30.996,32.002-42.002c0-3.994-8.999-7.998-20-7.998s-22.998-5.996-26.001-14.004
		c-8.999-25,27.002-115,57.002-140c32.998-27.998,33.999-32.998,13.999-58.994c-12.002-16.006-17.998-17.002-47.002-7.002
		c-31.997,10.996-35,10-73.999-27.002c-41.001-38.994-41.001-40-27.998-72.998c7.998-17.998,12.998-34.004,11.997-34.004
		c-1.997-0.996-12.998-10-25-20c-20.996-17.998-22.998-17.998-52.998,4.004l-32.002,22.002l-45.996-25
		c-42.002-22.998-47.002-30-47.002-61.006c0-30-3.999-36.992-28.999-45.996c-41.001-14.004-42.002-14.004-56.001,20
		c-12.002,27.998-15,29.004-53.999,22.998c-68.003-10-83.999-18.994-88.003-50c-2.998-23.994-7.998-27.998-40-30.996
		c-35-2.998-36.997-1.006-42.998,32.002c-7.002,32.998-8.999,35-62.998,43.994c-59.004,11.006-65,9.004-91.001-37.002
		c-6.001-10-15-10.996-37.002-3.994c-25,7.998-28.999,15-31.997,50c-3.003,37.002-6.001,42.002-53.003,62.998l-48.999,22.998
		l-23.999-22.002c-25-22.998-33.999-21.992-68.003,7.002c-15.996,12.998-15.996,17.002-1.997,45c16.001,29.004,16.001,30-25,71.006
		c-38.999,37.998-42.002,40-72.002,28.994c-26.997-10.996-30-10-23.999,5c12.998,32.998,35,127.002,35,147.002
		c0,12.002,6.001,29.004,12.998,39.004c12.002,15.996,14.004,15.996,26.001-10c21.001-46.006,82.002-125,92.002-118.008
		c5,3.008,41.001,52.002,80,110c37.998,57.002,71.001,104.004,72.998,104.004C1395.005,1180,1382.002,1129.004,1363.003,1067.998z
		 M2389.004,1155c0-2.998-8.999-5-20-5s-20,7.002-20,15c0,12.998,3.999,14.004,20,5
		C2380.005,1164.004,2389.004,1157.002,2389.004,1155z M2496.005,1157.998c-3.003-7.998-6.001-5-6.001,6.006
		c-1.001,10.996,1.997,16.992,5,12.998C2498.002,1174.004,2499.003,1165,2496.005,1157.998z M903.003,1100.996
		c-5-11.992-8.999-8.994-15,13.008c-3.999,15.996-5,33.994-1.997,38.994C895.005,1167.998,911.006,1119.004,903.003,1100.996z
		 M1769.004,975l92.002-120l-32.002-12.998c-91.001-37.002-227.998-39.004-333.999-6.006l-53.999,17.002l106.997,132.998
		c81.001,102.002,108.999,130,117.002,121.006C1672.002,1100,1718.003,1040.996,1769.004,975z M954.004,1030.996
		c-16.001-38.994-30-68.994-32.998-66.992c-2.002,2.998,7.998,36.992,23.999,75.996c15,37.998,28.999,67.998,31.997,65.996
		C979.004,1102.998,969.004,1069.004,954.004,1030.996z M2419.004,1085c0-20.996-57.002-100.996-66.001-92.002
		c-7.998,7.998,20,77.002,32.002,77.002c6.001,0,13.999,9.004,16.997,20C2409.004,1117.998,2419.004,1115,2419.004,1085z
		 M2499.003,1034.004c20-45,18.999-76.006-2.002-117.002c-6.997-14.004-11.997-16.006-22.998-7.002c-7.998,7.002-18.999,9.004-25,5
		c-5-2.998-10,0.996-10,9.004c0,10,6.001,12.998,15,10c18.999-8.008,18.999,21.992,0,55.996c-20,35-17.998,50,6.001,50
		c16.001,0,20,5,16.001,20C2467.001,1095,2479.003,1082.002,2499.003,1034.004z M2319.004,1037.998
		c0-22.998-2.998-28.994-11.001-20.996c-6.001,5.996-7.998,20-3.999,32.002C2313.003,1079.004,2319.004,1075,2319.004,1037.998z
		 M2324.004,962.002c-7.002-7.002-45,28.994-45,40.996c0,6.006,11.001,0,25-12.998S2327.002,964.004,2324.004,962.002z
		 M2356.006,930c-29.004-37.998-72.002-105.996-96.001-150c-41.001-77.002-73.999-120-93.003-120c-5,0,2.002,15,16.001,32.998
		c15,20,26.001,47.002,26.001,65c0,24.004,5,32.002,17.998,32.002c10,0,30,22.998,49.004,54.004
		C2304.004,890.996,2394.004,1000,2404.004,1000C2406.006,1000,2384.004,969.004,2356.006,930z M906.006,877.998
		c-3.003-7.002-5-2.002-5,12.002s1.997,19.004,5,12.998C908.003,895.996,908.003,884.004,906.006,877.998z M1038.003,840.996
		c22.002-32.998,46.001-60.996,52.002-62.998s8.999-13.994,6.997-25.996c-1.997-19.004-12.998-6.006-55,62.002
		C1013.003,860.996,991.006,900,994.004,900C996.006,900,1016.006,872.998,1038.003,840.996z M2464.003,850.996
		c-7.002-15-20-32.998-27.002-38.994c-10.996-9.004-12.998-4.004-10,25c5,43.994,22.002,65,39.004,50.996
		C2476.005,880,2475.004,872.002,2464.003,850.996z M946.006,872.998c-4.004-2.998-1.001-12.998,5.996-20.996
		c11.001-12.998,9.004-14.004-10-2.002c-21.997,14.004-21.997,30-0.996,30C947.002,880,949.004,877.002,946.006,872.998z
		 M1151.006,852.998c23.999-25.996,25-30,12.998-52.998c-21.001-35.996-18.999-42.002,23.999-72.002
		c47.002-32.998,58.003-33.994,86.001-7.998c20,19.004,22.002,19.004,57.002,2.002c35-16.006,36.997-19.004,30.996-52.998
		c-5-37.002-5-37.002,48.003-54.004c51.997-17.998,52.998-17.998,70,4.004c10,11.992,18.999,25,21.001,30.996
		c1.997,5,21.997,5.996,45.996,2.998c31.001-3.994,42.002-10,42.002-22.998c0-42.998,10-50,71.001-50
		c53.999,0,58.999,2.002,58.999,22.998c0,32.998,11.001,42.998,52.002,51.006c33.999,5.996,37.998,3.994,52.998-24.004
		c17.998-35,17.002-35,77.998-14.004c45,15,47.002,18.008,47.002,53.008c0,32.998,3.999,38.994,33.999,53.994
		c33.003,15,36.001,15,60-3.994c28.999-23.008,47.002-20,90,15c28.003,22.998,28.003,25.996,16.001,55.996
		s-11.001,32.998,17.002,60.996c20,20,35,28.008,46.997,23.008c15-6.006,15-8.008-6.001-18.008
		c-18.999-8.994-23.999-20.996-25.996-60.996c-2.002-37.002-10-57.002-32.002-82.002c-16.001-17.998-37.002-47.002-45-63.994
		c-13.999-26.006-18.999-29.004-48.999-24.004c-27.002,5-50-2.002-123.999-39.004c-56.001-27.998-98.003-56.992-112.002-75.996
		c-25-35-42.002-37.002-77.998-10c-28.003,22.998-80,25-145,7.002c-36.001-10-40-9.004-75,25
		c-23.003,22.002-68.003,47.002-119.004,67.002c-88.999,32.998-121.997,37.998-140.996,18.994
		c-9.004-8.994-22.002-2.002-57.002,32.002c-55,54.004-73.999,94.004-67.998,142.002c3.999,28.994,0.996,37.998-16.001,47.998
		c-12.002,5.996-26.001,7.998-31.001,5s-11.001-0.996-15,4.004c-6.001,10,21.001,30,41.001,30.996
		C1120.005,880,1137.002,867.998,1151.006,852.998z M2368.003,812.998c-16.001-18.994-28.999-38.994-28.999-45.996
		s-32.998-47.002-73.999-90C2202.002,610,2188.003,600,2167.002,605c-18.999,5-25.996,2.002-30-12.002
		c-5.996-23.994-107.998-80-107.998-60c0,7.998,20,27.002,45,42.002c25,14.004,52.998,37.002,62.002,50.996
		c10.996,18.008,17.998,22.002,23.999,13.008c20-33.008,157.998,110.996,160,165.996c0,15.996,2.998,24.004,6.001,17.998
		c8.999-22.998,30-13.994,42.998,17.998c8.999,21.006,15,26.006,21.001,18.008C2395.005,850.996,2386.006,832.998,2368.003,812.998z
		 M1060.005,732.998c12.998-15.996,11.997-17.002-3.003-3.994c-10,6.992-17.998,15-17.998,16.992
		C1039.004,754.004,1047.002,749.004,1060.005,732.998z M1124.004,694.004c8.999-15,12.002-23.008,6.001-20
		c-11.001,6.992-35,45.996-28.003,45.996C1105.005,720,1114.004,707.998,1124.004,694.004z M2387.002,709.004
		c-32.998-13.008-41.997-35-23.999-61.006c13.003-18.994,13.003-48.994,1.001-113.994C2357.002,502.002,2248.003,430,2206.006,430
		c-82.002,0-118.003,39.004-70,77.002c15,12.002,40,25,55.996,28.994c16.001,3.008,32.002,15,37.002,27.002
		c23.999,62.002,130,157.998,170,156.006C2407.002,719.004,2402.002,714.004,2387.002,709.004z M933.003,622.998
		c-3.999-32.002-7.998-60-10-60.996C922.002,560,900.005,570,875.005,585c-52.002,30.996-53.003,55,0,55
		c22.998,0,36.997,5.996,43.999,20C936.006,692.002,940.005,684.004,933.003,622.998z M1137.002,632.998
		c5-17.998-30-15.996-53.999,2.002c-17.998,14.004-16.997,15,15,12.998C1117.002,645.996,1134.004,639.004,1137.002,632.998z
		 M2493.002,620c7.002-7.002-15-24.004-81.997-64.004c-10-5.996-12.002,3.008-10,41.006l2.998,50l40-9.004
		C2466.005,632.998,2488.002,625,2493.002,620z M1313.003,520.996c6.001-13.994,3.999-11.992-86.001,47.002
		c-20.996,14.004-37.998,29.004-37.998,32.998c0,5-7.002,9.004-15,9.004s-15,7.002-15,15
		C1159.004,640.996,1304.004,544.004,1313.003,520.996z M1000.005,465l96.001-64.004l78.999,9.004
		c43.999,5,131.997,17.998,197.998,29.004c65,11.992,137.002,20.996,158.999,20.996h40l-6.997-37.002
		c-3.003-20.996-6.001-45.996-6.001-55c0-10-3.999-17.998-10-17.998c-5,0-10,7.998-11.001,17.998c0,12.998-1.997,12.998-8.999-3.994
		c-20-50-60-31.006-60,27.998c0,35.996,27.002,48.994,46.001,22.998c12.998-17.998,13.999-17.002,13.999,7.998
		c0,21.006-5,27.002-22.998,27.002c-33.003,0-65-25.996-70-57.998c-3.003-21.006-4.004-20-3.003,5.996
		c2.002,29.004-1.001,32.002-25,32.002c-26.997,0-26.997-0.996-12.998-27.002c6.997-15.996,13.999-40.996,12.998-57.998
		c0-15.996-2.998-24.004-6.001-17.002c-6.997,17.002-22.998,15-22.998-2.998c0-15.996-25-20.996-35-5.996
		c-2.998,5-6.001,30-7.002,55c-1.997,46.992-5,50-31.997,40c-11.001-4.004-13.003-10-7.002-18.008
		c5-5.996,12.002-30.996,16.001-55.996c6.001-44.004,6.001-44.004-8.999-17.998c-8.003,15-16.001,37.998-18.003,50
		c-1.997,17.998-10,23.994-35.996,25.996c-18.003,2.002-39.004-0.996-45-5.996c-7.002-5-38.003-7.998-69.004-7.998
		c-35,0.996-57.998-3.008-57.998-10c0-6.006-11.001-21.006-25-34.004l-23.999-22.998l8.999,32.998c5,19.004,15,37.002,22.002,40.996
		c7.998,5,1.997,12.002-18.003,21.006c-16.001,7.002-56.997,32.002-91.001,55c-58.999,40.996-90.996,55-77.998,32.998
		c7.998-12.998-42.998-92.002-55-85c-6.001,2.998-10,20-10,37.002s2.998,27.998,6.001,25C827.002,465.996,859.004,490,859.004,510
		c0,10-12.998,27.998-28.999,39.004c-35,25-41.001,25.996-41.001,5c0-25-57.002-101.006-67.002-90
		c-1.997,1.992,8.003,28.994,23.003,60c13.999,30.996,23.999,62.998,21.001,70C759.004,612.002,878.003,545.996,1000.005,465z
		 M2599.003,504.004c17.002-37.002,17.002-42.002,1.001-62.002C2591.005,430,2521.005,377.998,2444.004,325l-138.999-95h-76.001
		c-92.002,0-186.001,12.998-307.002,40.996l-91.997,22.002l6.001,47.998c3.999,38.008,0.996,55-15,83.008L1800.005,460h23.999
		c12.998,0,81.001-12.002,152.002-25.996c70-14.004,162.998-28.008,205.996-31.006l77.002-5.996l97.998,75
		c53.003,40.996,122.002,88.994,152.002,105.996l55,32.002l7.998-32.998C2577.001,560,2589.003,527.002,2599.003,504.004z
		 M2029.004,590c0-5-10-10-22.002-10c-18.999,0-20,2.002-7.998,10C2018.003,602.998,2029.004,602.998,2029.004,590z
		 M1431.006,550.996c23.999-10,51.997-27.998,61.997-40c18.999-20.996,18.999-20.996-10-20.996s-103.999,50.996-103.999,70.996
		C1379.004,572.998,1381.006,572.998,1431.006,550.996z M1933.003,544.004c-16.997-25-61.997-54.004-85-54.004
		c-25,0,67.002,74.004,98.999,80C1948.003,570,1942.002,559.004,1933.003,544.004z M1983.003,502.998
		c-12.998-8.994-21.001-10-27.998-2.002c-8.003,7.002-3.999,16.006,13.999,31.006c22.998,18.994,25,18.994,28.999,2.002
		C2000.005,524.004,1993.003,510,1983.003,502.998z M824.004,510.996C821.006,505,813.003,500,807.002,500
		c-5.996,0-5.996,5.996,2.002,15C823.003,532.002,835.005,527.998,824.004,510.996z M1388.003,482.002
		c-10-2.002-26.997,2.002-38.999,7.998c-16.001,9.004-17.998,12.998-7.998,24.004c10.996,10.996,16.997,10,38.999-8.008
		C1402.002,487.998,1403.003,485,1388.003,482.002z M1722.002,475.996c11.001,11.006,77.002-90,77.002-116.992
		c0-29.004-15-48.008-22.998-27.002c-2.002,7.998-19.004,0-45-24.004c-51.001-45.996-91.001-53.994-49.004-10
		c33.003,34.004,35,72.002,7.002,141.006l-18.999,50l22.998-9.004C1706.006,475,1719.004,474.004,1722.002,475.996z M842.002,380
		c82.002-55,98.003-64.004,96.001-47.998c-3.999,30.996,2.002,37.998,35,37.998c18.999,0,37.002,5.996,40,12.998
		c6.001,12.002,3.003-12.998-8.999-70c-8.999-43.994,5-42.002,58.999,7.002c23.999,22.002,48.003,40,53.003,40
		c12.998,0,25-72.002,16.997-94.004c-5-12.998,0-15,27.002-10c18.999,4.004,40,11.006,46.997,17.002
		c14.004,11.006,16.001,42.998,2.002,52.002c-12.002,7.998-12.998,55-1.001,55c11.001,0,23.999-85.996,15-100.996
		c-5-8.008,2.002-10,22.002-6.006c16.001,2.998,57.998,10,93.999,16.006c117.002,20,122.998,21.992,111.001,33.994
		c-6.001,6.006-11.001,15-11.001,21.006c0,5,6.001,1.992,12.998-8.008c12.002-15.996,22.002-16.992,75-10.996
		c34.004,4.004,62.002,10.996,62.002,15.996s-3.999,9.004-10,9.004c-5,0-7.002,7.002-3.999,15c8.999,22.002,33.999,17.998,33.999-5
		c0-10.996,6.001-20,12.998-20.996c6.001,0-18.999-11.006-57.998-25c-78.999-27.002-257.002-66.006-387.998-84.004l-88.003-12.002
		L1006.006,260c-172.002,90-326.001,204.004-247.002,182.998c12.002-2.998,20-2.002,18.999,2.998s0,16.006,1.001,24.004
		c2.002,7.998,5-0.996,7.002-20C789.004,420.996,799.004,409.004,842.002,380z M909.004,450
		c-17.998-10.996-22.002-7.002-13.999,14.004c5,12.998,10,13.994,17.998,5.996C921.006,462.002,920.005,457.002,909.004,450z
		 M1283.003,459.004c-6.997-11.006-33.999-12.002-33.999-1.006c0,14.004,11.001,21.006,26.001,15
		C1283.003,470,1286.006,464.004,1283.003,459.004z M1652.002,422.998c9.004-27.002,17.002-52.998,17.002-60
		c0-27.002-27.998,1.006-52.998,52.002l-27.002,55h22.998C1630.005,470,1638.003,460,1652.002,422.998z M2089.004,452.002
		c0-5-12.998-7.002-30-4.004c-16.001,2.002-30,6.006-30,7.998c0,2.002,13.999,4.004,30,4.004
		C2076.006,460,2089.004,455.996,2089.004,452.002z M928.003,395.996c-21.001-36.992-36.001-47.998-25-20
		c3.999,12.002,1.001,14.004-12.998,9.004c-23.999-7.002-35,9.004-22.002,32.002c10,17.002,10,15.996,11.001-2.002
		c1.001-20,1.001-20,17.998,0.996c19.004,23.008,45,35,50,24.004C949.004,435.996,940.005,415.996,928.003,395.996z
		 M984.004,400.996C981.006,395,973.003,390,967.002,390c-5.996,0-5.996,5.996,2.002,15
		C983.003,422.002,995.005,417.998,984.004,400.996z M1256.006,357.998c-3.003-7.998-6.001-5-6.001,6.006
		c-1.001,10.996,1.997,16.992,5,12.998C1258.003,374.004,1259.004,365,1256.006,357.998z M1169.004,355c0-7.998-2.002-15-3.999-15
		c-2.002,0-6.001,7.002-10,15c-3.003,7.998-1.001,15,3.999,15C1165.005,370,1169.004,362.998,1169.004,355z M1275.005,319.004
		c2.998-6.006,1.997-15-3.999-21.006c-6.001-5.996-11.001-2.002-15,11.006C1251.006,330.996,1263.003,337.998,1275.005,319.004z
		 M1189.004,294.004c0-8.008-3.999-14.004-8.999-14.004c-11.001,0-22.002,25.996-13.999,34.004
		C1175.005,322.998,1189.004,310.996,1189.004,294.004z M1442.002,215.996c-26.997-17.998-68.999-42.998-92.998-55l-45-21.992
		l32.998,27.998c18.003,15,32.002,33.994,32.002,40.996c0,6.006,7.998,12.002,18.999,12.002c10,0,33.999,7.002,52.002,15
		C1494.004,257.998,1495.005,252.002,1442.002,215.996z M1946.006,194.004c47.998-33.008,60-55,30-54.004
		c-18.003,0.996-114.004,90-97.002,90C1887.002,230,1917.002,214.004,1946.006,194.004z M1333.003,120
		c27.002-10,36.001-30,13.999-30c-16.997,0.996-66.997,39.004-50.996,40C1302.002,130,1319.004,125.996,1333.003,120z
		 M2034.004,120.996c-15-13.994-55-22.998-55-12.998c0,15,12.002,22.002,38.999,22.002
		C2033.003,130,2039.004,125.996,2034.004,120.996z"/>
	<path fill="#FFFFFF" d="M2483.002,517.998c3.999-12.998,12.002-43.994,18.003-70c5.996-27.002,15-47.998,18.999-47.998
		c16.001,0,20,20.996,7.998,35.996c-10,13.008-10,17.002,2.002,25c8.999,6.006,17.998,4.004,25-5.996
		c12.998-17.998,43.999-10,43.999,10.996c0,8.008-2.998,13.008-7.002,12.002c-5-2.002-28.999,12.002-55,30
		C2482.001,545.996,2475.004,547.002,2483.002,517.998z"/>
	<path fill="#FFFFFF" d="M2422.002,492.998c-16.997-5.996-16.997-22.998,0-22.998c7.002,0,18.003-9.004,25-20.996
		c12.002-19.004,12.002-20-10-13.008c-36.997,13.008-80.996,10-85.996-5c-2.002-7.998,0-10.996,5.996-6.992
		c12.002,6.992,62.002-56.006,62.002-78.008c0-22.998-6.001-20-61.001,26.006c-26.997,22.002-51.997,38.994-55,35.996
		c-2.998-3.994-1.001-32.002,5-62.998c6.001-32.002,8.003-60.996,5-65.996c-2.998-5,2.002-9.004,10-9.004c20,0,31.001,20,16.001,30
		c-7.002,4.004-8.999,12.998-6.001,19.004c10,15.996,36.001,12.998,36.001-4.004c0-20.996,7.998-19.004,52.002,10.996
		c38.999,28.008,47.998,44.004,23.999,44.004c-7.002,0-21.001,10.996-30,25l-17.002,25l53.003-20
		c27.998-10.996,53.999-17.002,56.997-15c2.002,2.998-10,25-26.997,49.004c-18.003,23.994-32.002,48.994-32.002,55
		C2449.004,500.996,2442.002,502.002,2422.002,492.998z"/>
	<path fill="#FFFFFF" d="M1849.004,430.996c0-5.996,3.999-10.996,8.999-10.996c11.001,0,3.003-65.996-11.001-92.002
		c-5-10.996-5-17.998,1.001-17.998c5,0,15-2.002,23.003-5c10-4.004,13.999,7.998,15,47.002c0.996,27.998,6.997,55.996,12.998,62.002
		c7.002,6.992,10,5,10-7.002c0-9.004,5-17.002,10-17.002c6.001,0,10,5,10,10c0,5.996,5,10,11.001,10
		c15,0,3.999-90.996-12.002-100.996c-15-9.004-1.997-15,53.003-23.008c42.998-6.992,45.996-5.996,40.996,14.004
		c-3.999,15.996-0.996,20,17.002,20s21.001-4.004,16.001-24.004c-5-21.992-2.002-23.994,46.997-30c28.003-3.994,62.002-10,75-12.998
		c18.003-3.994,22.002-0.996,22.002,17.998c0,18.008-2.998,20-12.002,11.006c-26.997-27.002-40.996-14.004-35,35
		c3.003,25.996,10,48.994,16.001,50.996c23.003,7.998,10,22.002-20,22.002c-18.999,0-27.998-4.004-23.999-10.996
		c12.002-18.008-5-99.004-20-99.004c-12.002,0-35,75-35,115c0,30.996-21.001,12.998-47.002-40c-33.999-70-57.998-74.004-50-10
		c5,52.002,14.004,65.996,27.002,45c11.001-17.998,25-5.996,17.002,15c-4.004,7.998-19.004,15.996-34.004,17.002
		c-53.999,2.998-77.998,5.996-105,12.998C1859.004,440,1849.004,437.998,1849.004,430.996z"/>
	<path fill="#FFFFFF" d="M2219.004,370c0-5,5-10,11.001-10c6.997,0,10-20,6.997-55c-2.998-54.004-2.998-55,25-55
		c15,0,27.002,5,27.002,10c0,5.996-3.999,10-8.999,10c-13.003,0-21.001,82.998-8.999,97.002c7.998,10,2.998,12.998-21.001,12.998
		C2233.003,380,2219.004,375.996,2219.004,370z"/>
	<path fill="#FFFFFF" d="M3774.003,2117.998c-10-25.996-365-1472.002-365-1485c0-10,27.998-12.998,124.004-12.998h123.994
		l39.004,157.998L3735,935l285,2.998L4305,940l39.004-160l39.004-160h128.994c99.004,0,127.998,2.998,125,12.002
		c-2.998,7.002-87.002,347.002-187.998,755.996L4265,2130h-242.998C3836.005,2130,3777.001,2127.002,3774.003,2117.998z
		 M4161.005,1545c47.998-197.998,87.002-362.998,87.998-367.002c0-5-104.004-7.998-230.996-7.998
		c-181.006,0-230,2.998-226.006,12.998c2.002,6.006,44.004,173.003,92.002,370l87.002,358.003l50.996-3.003l51.006-2.998
		L4161.005,1545z"/>
	<path fill="#FFFFFF" d="M5969.003,1375V620h125h125v755v755h-125h-125V1375z"/>
	<path fill="#FFFFFF" d="M6549.003,1375V617.998l327.998,5c357.998,6.006,415,12.998,517.998,65
		c113.008,57.998,182.002,146.006,228.008,292.002c38.994,122.002,48.994,235,42.998,466.001
		c-4.004,171.001-9.004,223.999-26.006,288.999c-58.994,218.999-146.992,315-337.998,367.002c-70,17.998-112.998,20.996-415,25
		l-337.998,5V1375z M7127.001,1900c147.998-17.002,214.004-71.001,255-207.998c27.998-96.001,36.006-420,12.998-542.002
		c-20.996-112.002-65.996-202.002-118.994-240.996C7209.003,860,7154.999,850,6967.001,850h-167.998v530v530h122.998
		C6989.003,1910,7081.005,1906.001,7127.001,1900z"/>
	<path fill="#FFFFFF" d="M10349.003,2090c0-38.999,0.996-40,35-40s35,1.001,35,40s-0.996,40-35,40
		S10349.003,2128.999,10349.003,2090z"/>
	<path fill="#FFFFFF" d="M8244.003,2107.998c-9.004-25-155-561.997-155-570.996c0-4.004,17.002-7.002,37.002-5
		c37.002,2.998,37.002,2.998,55.996,75.996l20,73.003l121.006-3.003l120.996-2.998l19.004-72.002l18.994-72.998h39.004
		c32.998,0,37.998,2.998,33.994,17.998c-2.998,9.004-36.992,134.004-75.996,277.002s-72.998,267.998-75.996,277.998
		c-4.004,14.004-18.008,17.002-80,17.002C8272.001,2120,8247.001,2116.001,8244.003,2107.998z M8352.001,2007.998
		c57.002-200.996,69.004-248.999,65-253.999c-2.998-1.997-47.998-2.998-100-1.997l-95,2.998l39.004,140
		c47.998,173.999,45,165,62.002,165C8332.001,2060,8343.007,2040,8352.001,2007.998z"/>
	<path fill="#FFFFFF" d="M8703.007,1960c-57.002-17.998-78.008-52.998-82.002-133.999c-4.004-68.999-2.002-75,25.996-107.002
		c27.998-32.998,29.004-36.001,15-61.997c-10.996-22.002-12.002-35-3.994-59.004c8.994-25.996,7.998-32.998-8.008-43.999
		c-27.998-20-43.994-68.999-37.998-116.997c7.998-61.001,47.002-93.003,126.006-102.002c155-17.998,250,33.999,250.996,137.002
		c0,91.997-35.996,120.996-164.004,127.998c-90,5-90.996,5-93.994,32.998c-4.004,31.001,0,33.003,82.002,42.002
		c50,6.001,65.996,12.998,93.994,41.001c34.004,33.999,34.004,35,30,108.999l-2.998,75h27.002c23.994,0,27.998,3.999,27.998,30
		c0,30-0.996,30-52.998,30c-30,0-87.002,2.002-127.998,5C8767.001,1967.002,8719.999,1965,8703.007,1960z M8851.005,1880
		c20-23.999,23.994-81.001,7.998-110c-22.998-42.998-125.996-47.998-155-7.002c-30,43.003-14.004,119.004,27.998,137.002
		C8767.001,1915,8832.001,1903.999,8851.005,1880z M8897.001,1517.002c7.998-6.001,12.002-26.001,10-51.001
		c-3.994-52.002-28.994-66.001-120-66.001c-60.996,0-67.998,2.002-87.998,27.002c-25,31.997-20,68.999,12.002,95.996
		c18.994,16.001,32.998,17.002,97.002,11.001C8849.999,1531.001,8889.999,1522.998,8897.001,1517.002z"/>
	<path fill="#FFFFFF" d="M9164.999,1960c-95-30-143.994-185-101.992-325c28.994-96.001,82.998-121.001,232.998-110l92.998,7.002
		v28.999V1590h-100.996c-98.008,0-101.006,1.001-130,28.999c-19.004,20-29.004,40-29.004,60V1710h134.004h133.994l6.006,32.998
		c6.992,36.001-7.002,125-24.004,157.002C9351.005,1952.998,9239.999,1983.999,9164.999,1960z M9277.001,1895
		c27.002-7.998,52.002-52.998,52.002-95v-30h-104.004h-102.998l7.002,41.001c12.002,61.997,59.004,102.998,110,92.998
		C9247.001,1902.998,9264.003,1898.999,9277.001,1895z"/>
	<path fill="#FFFFFF" d="M9619.003,1955c-27.002-8.999-45.996-11.001-47.998-5s-19.004,10-37.998,10h-34.004v-215v-215h40h40
		v172.998v174.004l39.004,10.996c65,20,106.992,15,130-13.999c18.994-23.999,20.996-40,20.996-185V1530h40.996h42.002l-5,167.998
		c-5.996,195-15.996,234.004-72.002,257.002C9732.001,1972.998,9678.007,1972.998,9619.003,1955z"/>
	<path fill="#FFFFFF" d="M10629.003,1965c-7.998-2.002-32.002-6.001-52.002-10c-32.998-5-37.998-8.999-37.998-33.999v-28.003l100,5
		c70.996,3.003,104.004,1.001,115-7.998c15-12.998,32.002-77.002,22.002-87.002c-2.998-2.998-42.998-8.999-87.998-13.999
		c-139.004-16.001-169.004-41.997-169.004-143.999c0-106.001,74.004-146.001,207.998-111.001c54.004,13.999,65,13.999,96.006,1.001
		c55.996-23.999,75.996-20,75.996,12.998c0,21.001-7.002,32.002-25,40c-25,12.002-25,12.002-25,147.002
		c0,161.001-10.996,197.998-64.004,220C10754.003,1967.998,10669.999,1972.998,10629.003,1965z M10779.003,1676.001
		c0-63.999,0-65-32.998-75c-17.998-6.001-52.002-12.002-76.006-13.003c-35-0.996-47.998,3.003-62.998,21.001
		c-22.998,28.999-22.998,63.003,0,91.001c12.998,16.001,34.004,23.999,77.002,30
		C10787.001,1742.998,10779.003,1747.998,10779.003,1676.001z"/>
	<path fill="#FFFFFF" d="M11284.003,1955c-24.004-7.998-40.996-10-42.998-5c-2.002,6.001-19.004,10-37.998,10h-34.004v-310v-310h35
		h35v92.998V1525h82.998c104.004,0,140,17.998,170,82.998c30,68.003,30,219.004-0.996,282.002
		c-12.002,25-31.006,51.001-42.998,57.998C11414.999,1968.999,11329.999,1972.002,11284.003,1955z M11391.005,1888.999
		c28.994-16.001,47.998-70,47.998-141.997c0-123.003-30.996-157.002-140-157.002h-60v140v141.001l32.998,13.999
		C11311.005,1902.002,11363.007,1903.999,11391.005,1888.999z"/>
	<path fill="#FFFFFF" d="M11689.003,1947.998c-59.004-30.996-82.002-77.998-87.998-177.998c-2.002-43.999,0.996-100,7.998-128.999
		c24.004-100,80-128.003,234.004-116.001l95.996,7.002v28.999V1590h-102.998c-117.998,0-140,10-157.002,67.998c-5,20-10,40-10,45
		c0,4.004,62.998,7.002,140,7.002h140v67.998c-0.996,94.004-25.996,146.001-82.002,172.002
		C11809.003,1976.001,11744.003,1975,11689.003,1947.998z M11846.005,1876.001c12.002-12.002,25-40,28.994-63.003l7.002-42.998
		h-107.998h-107.002l7.002,36.001c9.004,51.997,32.002,82.998,69.004,92.998C11784.003,1910,11819.003,1902.998,11846.005,1876.001z
		"/>
	<path fill="#FFFFFF" d="M12229.002,1961.001c-14.004-5-44.004-18.003-67.002-30l-42.998-21.001v25c0,22.002-4.004,25-35,25h-34.999
		v-215v-215h34.999h35v153.999v153.999l37.998,18.003c20,8.999,55,22.998,77.002,28.999c35.996,11.001,40,16.001,42.998,48.999
		C12279.998,1972.002,12276.004,1975,12229.002,1961.001z"/>
	<path fill="#FFFFFF" d="M9939.003,1925v-35h110.996h110l-110-143.999c-93.994-122.002-110.996-150-110.996-180V1530h160h160v35v35
		h-110c-60,0-110,2.002-110,5c0,2.002,49.004,68.999,110,147.002c87.002,113.999,110,150,110,175.996V1960h-160h-160V1925z"/>
	<path fill="#FFFFFF" d="M10349.003,1745v-215h35h35v215v215h-35h-35V1745z"/>
	<path fill="#FFFFFF" d="M5103.007,1738.999c-152.002-17.998-253.008-78.999-305-185c-30-61.001-34.004-78.999-37.002-170
		C4755,1239.004,4780,1160,4853.007,1084.004l52.998-55l-32.998-62.002c-27.002-50-34.004-74.004-34.004-120
		c0-59.004,15-102.002,45-127.002c14.004-12.002,10-20-42.998-74.004C4757.001,560,4745,532.998,4744.003,430
		c0-147.002,57.998-230,194.004-275c160.996-52.002,455-45,615.996,15c149.004,57.002,224.004,205.996,195.996,390
		c-30,190.996-102.998,232.998-436.992,250c-100,5-193.008,14.004-208.008,20.996C5065,850,5061.005,882.998,5090,960
		c9.004,24.004,11.006,25,100,22.002c110-4.004,234.004,18.994,303.008,55.996c95.996,52.002,135,129.004,142.998,282.002
		c5,92.002,0.996,115-32.002,193.999c-7.998,17.002-2.998,18.003,72.998,15l82.002-3.999v100v100l-157.002-3.999
		c-87.002-2.002-193.994,1.997-237.998,7.998C5233.007,1746.001,5178.007,1747.998,5103.007,1738.999z M5318.007,1523.999
		c47.998-27.998,73.994-85,73.994-166.001c0-105.996-50-167.998-148.994-182.998c-122.002-17.998-212.002,30.996-234.004,130
		c-24.004,106.001,19.004,202.002,105,233.999C5159.003,1555,5279.003,1547.002,5318.007,1523.999z M5362.001,590
		c116.006-12.002,155-47.998,142.998-135c-5.996-50-55-97.998-117.998-115.996c-55-16.006-240-16.006-297.002,0
		c-23.994,6.992-56.992,25-72.998,40.996c-52.998,52.998-33.994,160.996,39.004,215C5075,610,5190,607.998,5362.001,590z"/>
	<path fill="#FFFFFF" d="M8129.003,935V630h35h35v305v305h-35h-35V935z"/>
	<path fill="#FFFFFF" d="M9359.003,935V630h35h35v305v305h-35h-35V935z"/>
	<path fill="#FFFFFF" d="M12259.002,935V630h35h35v305v305h-35h-35V935z"/>
	<path fill="#FFFFFF" d="M8324.999,1212.998c-1.992-10-10-45-15.996-77.998c-5.996-32.998-14.004-67.998-17.002-77.998
		c-3.994-16.006,0-17.998,27.998-15c32.002,2.998,34.004,5.996,55,77.998c31.006,105,31.006,110-10,110
		C8341.005,1230,8329.003,1225,8324.999,1212.998z"/>
	<path fill="#FFFFFF" d="M9539.003,1185c0-45,0-45,35-45s35,0,35,45c0,45,0,45-35,45S9539.003,1230,9539.003,1185z"/>
	<path fill="#FFFFFF" d="M10809.003,1185c0-45,0-45,35-45s35,0,35,45c0,45,0,45-35,45S10809.003,1230,10809.003,1185z"/>
	<path fill="#FFFFFF" d="M11399.003,1185c0-45,0-45,35-45s35,0,35,45c0,45,0,45-35,45S11399.003,1230,11399.003,1185z"/>
	<path fill="#FFFFFF" d="M8489.003,925V630h35h35v295v295h-35h-35V925z"/>
	<path fill="#FFFFFF" d="M10299.003,925V630h132.998c190,0.996,234.004,25,271.006,149.004c20.996,71.992,20.996,230,0,300.996
		c-19.004,65-64.004,114.004-119.004,129.004c-22.002,5.996-95,10.996-162.002,10.996h-122.998V925z M10569.003,1137.002
		c32.998-16.006,67.002-85,75.996-154.004c8.008-68.994-10-185.996-35.996-227.998c-27.002-44.004-57.998-55-155-55h-85v225v225
		h87.998C10506.005,1150,10554.999,1144.004,10569.003,1137.002z"/>
	<path fill="#FFFFFF" d="M8689.003,1125c0-62.998-0.996-65-25-65c-22.002,0-25-4.004-25-35c0-30,2.998-35,24.004-35
		c22.998,0,23.994,0,27.998-147.002c5-157.998,13.994-193.994,55-212.002c25.996-11.992,110.996-15,137.002-5
		c10,4.004,15.996,18.008,15.996,35c0,28.008-0.996,29.004-52.998,29.004c-29.004,0-57.998,5-65,12.002
		c-7.998,7.998-12.002,55.996-12.002,150V990h65h65v35v35h-65h-65v65v65h-40h-40V1125z"/>
	<path fill="#FFFFFF" d="M11589.003,1125v-65h-30c-27.998,0-30-2.998-30-35s2.002-35,30-35h30l0.996-137.002
		c0-198.994,18.008-232.998,119.004-232.998c72.998,0,92.002,9.004,87.998,39.004c-2.998,23.994-7.002,25.996-62.998,30.996
		c-72.998,5.996-72.998,5.996-74.004,177.998L11659.003,990h65h65v35v35h-65h-65v65v65h-35h-35V1125z"/>
	<path fill="#FFFFFF" d="M9054.003,1065c-5-2.002-30.996-5.996-57.002-10c-45-5.996-47.998-7.998-47.998-35v-29.004l95,6.006
		c112.998,7.002,135-4.004,135-69.004V890h-44.004c-85,0-148.994-17.998-177.998-50c-22.998-25-27.998-39.004-27.998-85
		c0-30,5-65.996,12.002-80c23.994-52.998,105.996-70,202.998-40.996c42.002,12.998,52.002,12.998,75.996,0
		c15-7.002,39.004-14.004,54.004-14.004c20.996,0,25,5,25,30c0,17.002-4.004,30-9.004,30s-16.992,7.002-25,15.996
		c-12.998,13.008-15.996,42.002-15.996,158.008c0,128.994-2.002,145.996-20,168.994
		C9201.005,1059.004,9104.003,1082.002,9054.003,1065z M9179.003,775c0-62.002-0.996-65.996-27.002-75.996
		c-15.996-6.006-50-12.002-75.996-12.002c-55-2.002-77.002,15.996-77.002,63.994c0,48.008,29.004,71.006,100.996,79.004
		c35,4.004,67.002,7.998,72.002,9.004C9176.005,839.004,9179.003,810.996,9179.003,775z"/>
	<path fill="#FFFFFF" d="M9799.003,1062.998c-92.998-13.994-90-12.002-90-42.998v-27.998l94.004,5c86.992,5,95,3.994,115-16.006
		c15.996-15.996,20.996-31.992,18.994-53.994L9934.003,895l-75-7.002c-92.998-10-135.996-23.994-155-50.996
		c-17.998-26.006-20-125-2.998-162.002c23.994-52.998,105.996-70,202.998-40.996c42.002,12.998,52.002,12.998,75.996,0
		c15-7.002,39.004-14.004,54.004-14.004c20.996,0,25,5,25,27.998c0,21.006-7.002,32.002-25,40c-25,12.002-25,12.002-25,154.004
		c0,123.994-2.998,147.002-20,175C9962.001,1062.002,9894.999,1077.998,9799.003,1062.998z M9939.003,775
		c0-74.004-2.998-77.002-92.002-90c-38.994-5.996-48.994-4.004-67.002,14.004c-26.992,26.992-27.998,81.992-0.996,105.996
		c12.002,10.996,45,20.996,82.002,25c35,4.004,65.996,7.998,70.996,9.004C9936.005,839.004,9939.003,810.996,9939.003,775z"/>
	<path fill="#FFFFFF" d="M11056.005,1055.996c-20-6.992-44.004-18.994-52.002-25.996c-44.004-37.002-45.996-172.002-2.002-217.998
		c21.006-22.002,24.004-31.006,15-46.006c-5.996-10-7.998-37.998-5-61.992c4.004-35,1.006-47.002-17.998-64.004
		c-30-27.998-39.004-77.002-22.998-125c18.994-55.996,50.996-75,138.994-82.002c91.006-7.002,152.002,9.004,191.006,47.002
		c25,25,27.998,35.996,27.998,90c0,104.004-20,120.996-155,129.004l-90,5.996v30c0,30,0.996,30,65,37.002
		c97.998,10.996,140,50.996,140,135c0,22.998-4.004,52.998-10,67.002c-9.004,25-7.998,25.996,25,25.996c32.002,0,35,2.002,35,30v30
		h-64.004c-33.994,0-90,2.002-121.992,5C11114.999,1069.004,11081.005,1065,11056.005,1055.996z M11174.999,995
		c53.008-14.004,55-125.996,4.004-152.998c-27.998-14.004-92.998-10-115,7.998c-20.996,17.998-29.004,75.996-15,110
		c7.998,20,22.998,32.998,44.004,39.004C11124.003,1007.998,11133.007,1007.002,11174.999,995z M11226.005,624.004
		c42.002-8.008,42.998-93.008,0.996-115c-35.996-19.004-143.994-16.006-167.998,5.996c-25.996,24.004-25.996,72.002,0.996,100.996
		c18.008,19.004,28.008,21.006,82.002,17.002C11176.005,630.996,11214.003,627.002,11226.005,624.004z"/>
	<path fill="#FFFFFF" d="M11939.003,1062.998c-92.998-13.994-90-12.002-90-42.998v-27.998l94.004,5
		c86.992,5,95,3.994,114.999-16.006c15.996-15.996,20.996-31.992,18.994-53.994l-2.998-32.002l-74.999-7.002
		c-130.996-13.994-160.996-32.002-175-108.994c-10-56.006,10-117.002,47.998-139.004c37.998-24.004,104.004-25.996,171.006-5.996
		c39.999,11.992,50.995,11.992,73.993,0c15-8.008,39.004-14.004,55-14.004c22.998,0,27.002,4.004,27.002,27.998
		c0,21.006-7.002,32.002-25,40c-25,12.002-25,12.002-25,149.004c0,162.002-12.002,200-70,220
		C12044.999,1069.004,11989.003,1070.996,11939.003,1062.998z M12079.002,775.996c0-35.996-4.004-66.992-9.004-70.996
		c-5.996-2.998-34.999-10-65.995-15.996c-75-14.004-105,2.998-105,60.996c0,59.004,20,72.002,130,82.998
		c19.004,2.002,37.997,5,42.997,5C12076.004,839.004,12079.002,810.996,12079.002,775.996z"/>
	<path fill="#FFFFFF" d="M12524.002,1055.996c-79.004-30-110-101.992-102.998-243.994c5-102.998,25-147.002,77.998-174.004
		c35.996-18.994,120.996-22.998,192.998-12.002c32.998,6.006,37.002,10,37.002,35V690h-85.996c-98.008,0-120,9.004-140,55
		c-27.002,65-27.002,65,105.996,65h120.996L12727,917.002l-2.998,107.002l-32.002,17.998
		C12649.002,1067.998,12573.006,1074.004,12524.002,1055.996z M12644.002,994.004c22.002-9.004,45-57.002,45-94.004v-30h-100
		c-94.004,0-100,0.996-100,20c0,32.002,25.996,87.002,47.002,99.004C12556.004,1000.996,12618.006,1002.998,12644.002,994.004z"/>
	<path fill="#FFFFFF" d="M9539.003,845V630h35h35v215v215h-35h-35V845z"/>
	<path fill="#FFFFFF" d="M10809.003,845V630h35h35v215v215h-35h-35V845z"/>
	<path fill="#FFFFFF" d="M11399.003,845V630h35h35v215v215h-35h-35V845z"/>
</g>
</svg>
