<?xml version="1.0" encoding="utf-8"?>
<!-- Generator: Adobe Illustrator 19.0.0, SVG Export Plug-In . SVG Version: 6.00 Build 0)  -->
<svg version="1.1" id="Layer_1" xmlns="http://www.w3.org/2000/svg" xmlns:xlink="http://www.w3.org/1999/xlink" x="0px" y="0px"
	 viewBox="-14 16 470 470" style="enable-background:new -14 16 470 470;" xml:space="preserve">
<style type="text/css">
	.st0{fill:#FFFFFF;}
</style>
<g>
	<path class="st0" d="M418.5,243.5h-77c-0.6-37.4-5.8-73.6-14.8-105.7h50.5c4.1,0,7.5-3.4,7.5-7.5c0-4.1-3.4-7.5-7.5-7.5h-55.1
		c-8-24.2-18.3-45.5-30.6-62.7c-2.4-3.4-7.1-4.2-10.5-1.7c-3.4,2.4-4.2,7.1-1.7,10.5c10.6,14.9,19.7,33.2,27,53.9h-77.8V53.5
		c0-4.1-3.4-7.5-7.5-7.5s-7.5,3.4-7.5,7.5v69.3h-77.8c7.3-20.7,16.3-39.1,27-53.9c2.4-3.4,1.6-8.1-1.7-10.5
		c-3.4-2.4-8.1-1.6-10.5,1.7c-12.2,17.1-22.5,38.5-30.6,62.7H64.8c-4.1,0-7.5,3.4-7.5,7.5c0,4.1,3.4,7.5,7.5,7.5h50.5
		c-9,32.1-14.2,68.3-14.8,105.7h-77c-4.1,0-7.5,3.4-7.5,7.5s3.4,7.5,7.5,7.5h77c0.6,37.4,5.8,73.6,14.8,105.7H64.8
		c-4.1,0-7.5,3.4-7.5,7.5s3.4,7.5,7.5,7.5h55.1c8,24.2,18.3,45.5,30.6,62.7c1.5,2,3.8,3.1,6.1,3.1c1.5,0,3-0.5,4.4-1.4
		c3.4-2.4,4.2-7.1,1.7-10.5c-10.6-14.9-19.7-33.2-27-53.9h77.8v69.3c0,4.1,3.4,7.5,7.5,7.5s7.5-3.4,7.5-7.5v-69.3h77.8
		c-7.3,20.7-16.4,39.1-27,53.9c-2.4,3.4-1.6,8.1,1.7,10.5c1.3,0.9,2.8,1.4,4.4,1.4c2.3,0,4.6-1.1,6.1-3.1
		c12.2-17.1,22.5-38.5,30.6-62.7h55.1c4.1,0,7.5-3.4,7.5-7.5s-3.4-7.5-7.5-7.5h-50.5c9-32.1,14.2-68.3,14.8-105.7h77
		c4.1,0,7.5-3.4,7.5-7.5S422.6,243.5,418.5,243.5L418.5,243.5z M311.1,137.8c9.3,31.7,14.7,68,15.3,105.7h-98V137.8H311.1z
		 M130.9,137.8h82.6v105.7h-98C116.2,205.8,121.5,169.5,130.9,137.8z M130.9,364.2c-9.3-31.7-14.7-68-15.3-105.7h98v105.7H130.9z
		 M311.1,364.2h-82.6V258.5h98C325.8,296.2,320.5,332.5,311.1,364.2z"/>
	<path class="st0" d="M387.2,84.8C342.8,40.4,283.8,16,221,16S99.2,40.4,54.8,84.8S-14,188.2-14,251c0,46.3,13.4,90.9,38.8,129.3
		L-4,466.5c-0.9,2.7-0.2,5.7,1.8,7.7c2,2,5,2.7,7.7,1.8l86.2-28.7c38.4,25.4,83,38.8,129.3,38.8c62.8,0,121.8-24.4,166.2-68.8
		S456,313.8,456,251C456,188.2,431.6,129.2,387.2,84.8z M221,471c-44.5,0-87.4-13.2-124-38.2c-1.3-0.9-2.7-1.3-4.2-1.3
		c-0.8,0-1.6,0.1-2.4,0.4L15,457l25.1-75.4c0.7-2.2,0.4-4.7-0.9-6.6C14.2,338.4,1,295.5,1,251C1,129.7,99.7,31,221,31
		s220,98.7,220,220C441,372.3,342.3,471,221,471z"/>
</g>
</svg>
