<?xml version="1.0" encoding="utf-8"?>
<!-- Generator: Adobe Illustrator 19.0.0, SVG Export Plug-In . SVG Version: 6.00 Build 0)  -->
<svg version="1.1" id="Capa_1" xmlns="http://www.w3.org/2000/svg" xmlns:xlink="http://www.w3.org/1999/xlink" x="0px" y="0px"
	 viewBox="-11 13.8 475.2 475.2" style="enable-background:new -11 13.8 475.2 475.2;" xml:space="preserve">
<style type="text/css">
	.st0{fill:#FFFFFF;}
</style>
<g>
	<g>
		<path class="st0" d="M394.6,83.4c-44.9-44.9-104.5-69.6-168-69.6s-123.1,24.7-168,69.6S-11,187.9-11,251.4s24.7,123.1,69.6,168
			s104.5,69.6,168,69.6s123.1-24.7,168-69.6s69.6-104.5,69.6-168S439.5,128.3,394.6,83.4z M375.5,400.3
			c-39.8,39.8-92.7,61.7-148.9,61.7s-109.1-21.9-148.9-61.7c-82.1-82.1-82.1-215.7,0-297.8c39.8-39.8,92.7-61.7,148.9-61.7
			s109.1,21.9,148.9,61.7C457.6,184.6,457.6,318.2,375.5,400.3z"/>
		<path class="st0" d="M331.3,146.7c-5.3-5.3-13.8-5.3-19.1,0l-85.6,85.6L141,146.7c-5.3-5.3-13.8-5.3-19.1,0s-5.3,13.8,0,19.1
			l85.6,85.6L121.9,337c-5.3,5.3-5.3,13.8,0,19.1c2.6,2.6,6.1,4,9.5,4s6.9-1.3,9.5-4l85.6-85.6l85.6,85.6c2.6,2.6,6.1,4,9.5,4
			c3.5,0,6.9-1.3,9.5-4c5.3-5.3,5.3-13.8,0-19.1l-85.4-85.6l85.6-85.6C336.6,160.5,336.6,152,331.3,146.7z"/>
	</g>
</g>
</svg>
