<?xml version="1.0" encoding="utf-8"?>
<!-- Generator: Adobe Illustrator 21.0.2, SVG Export Plug-In . SVG Version: 6.00 Build 0)  -->
<svg version="1.1" id="Logo AGID" xmlns="http://www.w3.org/2000/svg" xmlns:xlink="http://www.w3.org/1999/xlink" x="0px" y="0px"
	 width="933px" height="133.6px" viewBox="0 0 933 133.6" style="enable-background:new 0 0 933 133.6;" xml:space="preserve">
<style type="text/css">
	.st0{enable-background:new;}
	.st1{fill:#FFFFFF;}
	.st2{fill:none;stroke:#FFFFFF;stroke-width:8;stroke-miterlimit:10;}
</style>
<title>Logo dell&amp;Agenzia per l&amp;Italia Digitale</title>
<desc>Emblema della Repubblica Italiana con accanto l&amp;acronimo AGID e il nome dell&amp;Agenzia</desc>
<g class="st0">
	<path class="st1" d="M142.1,126.8l28-124.4H218l28,124.4h-25.3l-4.9-22.5h-43.6l-4.9,22.5H142.1L142.1,126.8z M189.7,23.2
		l-12.6,59.1h34l-12.6-59.1H189.7L189.7,23.2z"/>
	<path class="st1" d="M312.7,82.1v-22h36.2v64.6c-17.4,2.8-31.6,4.2-42.5,4.2c-19.4,0-32.7-5.2-40-15.6s-10.9-26.8-10.9-49.4
		S259.3,25,266.8,15c7.6-10,20.4-15,38.6-15c11.3,0,23.6,1.3,36.8,3.8l6.6,1.3l-0.7,19.6c-14.6-1.6-26.6-2.4-36-2.4
		c-9.3,0-15.9,1.1-19.7,3.3s-6.6,6.3-8.3,12.2c-1.8,5.9-2.7,16-2.7,30.4c0,14.3,1.8,24.4,5.3,30.1s10.9,8.6,22,8.6l15.3-0.6V82.1
		L312.7,82.1L312.7,82.1z"/>
	<path class="st1" d="M372.7,126.8V2.4H398v124.4H372.7z"/>
	<path class="st1" d="M466.9,126.8H425V2.4h41.9c10.7,0,19.6,1.1,26.5,3.4c7,2.3,12.4,6,16.2,11.2s6.5,11.3,8,18.3
		s2.2,16.1,2.2,27.4c0,11.2-0.7,20.5-2,27.9s-3.9,14-7.6,19.8s-9.1,10-16.2,12.6C486.9,125.5,477.9,126.8,466.9,126.8L466.9,126.8z
		 M493.5,77.4c0.2-3.9,0.4-9.3,0.4-16.2s-0.2-12.4-0.7-16.6c-0.5-4.1-1.6-7.9-3.5-11.3c-1.8-3.4-4.5-5.8-8.1-7
		c-3.6-1.3-8.5-1.9-14.5-1.9h-16.7v80.5h16.7c9.1,0,15.8-2.3,19.9-7C490.4,94.1,492.6,87.3,493.5,77.4L493.5,77.4z"/>
</g>
<path class="st1" d="M87.8,84.7c0.7,0,1.6,0.4,1.1,0.7c-0.4,0.3-0.4,1.1-0.8,1.6c-0.7,0-1.1-0.4-1.6-1.1c-0.1-0.5,0.3-1,0.9-1.1
	L87.8,84.7L87.8,84.7z"/>
<path class="st1" d="M37,100.6c0.6,0.4,1.3,0.4,1.9,0l-0.7-0.7L37,99.1c-0.7-0.4-1.1,0-1.6,0.7L37,100.6z"/>
<path class="st1" d="M69.9,122.6c0,0.4,0,0.7,0.4,0.7c0.3,0.3,0.7,0.4,1.1,0.4L69.9,122.6z"/>
<path class="st1" d="M113.8,60c0.4-2.3,0-3.8-0.7-4.6c-0.7-0.7-1.9-0.4-3.4,0.7c-0.7-0.4-1.9,0-3,1.1c0.4-0.4,0.4-1,0-1.6
	c1.1-0.4,1.9-0.7,2.3-1.9c0.4-1.1,0.7-1.9,0.4-3c0.4-1.6,1.6-3,2.3-4.6c1.1-2.3,0.4-3-1.9-2.3c0.9-0.7,1.7-1.9,1.9-3
	c0-1.1-0.4-2.2-1.1-3c-0.4-0.7-0.7-0.7-1.6-0.4c0.3-0.4,0.4-0.9,0.4-1.6c-0.4-1.6-0.7-2.7-1.1-4.1c0-2.7-0.7-3.7-1.9-3.4
	c0-1.6-0.7-2.7-1.6-4.1c-1.1-1.6-1.9-2.3-2.7-1.1c-1.9-2.7-3.4-3.8-5-3.4c0-1.1-0.4-2.2-1.1-3c0.3-1.5-0.1-3-1.1-4.1
	c-0.7-0.4-1.6,0-1.9,1.6c0-1-0.3-2.2-0.8-3.1c-0.2-1-1.1-1.9-2.3-1.9h-1.1c-0.5-0.5-1.2-0.7-1.9-0.7c-1.6-1.6-3-1.9-4.1-0.4V6.7
	c-0.4-1.6-1.6-1.9-2.7-1.1c-1.7-1.7-3.6-3.1-5.7-4.1C73.1,1,72,1,71.6,1.9c-0.6-0.6-1.5-1-2.3-1.1C68.4,0.6,67.7,0.4,67,0
	c-1.1,0-1.6,0.4-1.6,1.9C64.3,2,63.1,2.2,62,2.6c-0.7,0.4-0.7,1.1-0.4,1.9c0.5,0.8,1.1,1.6,1.9,2.3c-0.4,0.4-0.4,0.7-0.4,1.6
	c0,0.7,0.7,1.1,2.3,1.6c0.9,0.4,2.1,0.4,3,0c-0.3,0.7,0,1.6,0.6,1.9c0,0,0.1,0,0.1,0.1h0.4c1.1,1.5,3.2,2,5,1.1L74,14.5l2.7,1
	c0,1.2,0.7,2.3,1.9,2.7l1.6,0.4c-0.4,0-1.1,0.7-1.1,0.7c-0.4,0.4-0.4,1,0,1.6c0.2,0.2,0.5,0.3,0.7,0.4h3.4c0,0.4,0.4,0.7,0.4,1.1
	c0.4,0.7,0.9,1.3,1.6,1.9c1,0.8,2.2,1.5,3.4,1.9c-0.4,0.7-0.4,1.1-0.7,1.9c-0.4,1.1-0.4,2.3,0,3.4c-0.4,0.2-0.8,0.4-1.1,0.7
	c-0.7,1.1,0.7,3,1.1,3.8c-0.3,0-0.5,0.2-0.7,0.4c-0.7,0.4-0.4,2.7,1.6,3c1.2,0.7,2.4,1.7,3.4,2.7l1.6,2.3c0.7,1.1,0.7,1.6,1.9,1.6
	c1,3.2,2.6,6.2,4.6,9c1.1,1,1.9,2.3,2.3,3.8c0,0.7-0.4,1.6,0,2.3c-0.2,2.1-0.6,4-1.1,6c-1.9-0.7-2.3,0.4-2.7,1.6
	c-0.4-0.2-0.9,0-1.1,0.4c-0.1-0.8-0.9-1.3-1.7-1.2c-0.1,0-0.2,0-0.2,0.1c-0.4,0.4-0.7,0.4-1.1,0.7C94.1,68.4,94,68,94,67.6v-2.3
	c0.4-0.4,0.4-0.7,0.7-1.1c0.4-2.2,0.3-4.4-0.4-6.4c0-0.6-0.5-1.1-1.1-1.1c0,0-1.1,0-1.6,0.7c0-0.4-0.7-0.7-1.1-0.7
	c-1.6-0.4-3,2.3-3,5.3c-1.1-0.7-2.7-0.4-2.3,0.7c0.4,1.9,3.4,5.7,3.4,7.2c-0.7-0.7-3-0.7-3,1.1c0.1,0.8,0.3,1.6,0.7,2.3
	c-0.4,2.3,1.9,3.8,4.1,5.7c-0.1,0.5,0.1,1,0.4,1.6c-0.4,0.7-2.7,4.1-2.7,4.1s-1.9-0.7-2.3-0.4s-0.7,1.1-1.1,1.6l0.4,2.7
	c0.1,1.3-0.4,2.6-1.6,3.4c-1,1-1.9,2.2-2.7,3.4c-0.5,1.2-1.5,2.2-2.7,2.7L77,96.9c0,0-0.4-0.4-0.4,0c-3.2,1.2-6.2,2.7-9.1,4.6
	c-1.6,1-2.7,2.5-3.4,4.1h-2.6l-2.3-2.3c-1-0.4-2.2-0.3-3,0.4c-1.5-0.3-2.9-0.1-4.1,0.7c-0.6,0.3-1.2,0.4-1.9,0.4l-3.4-3.8
	c-3.6-1.9-7.5-3.1-11.4-3.8c-0.7,0.4-1.1,1.1-1.6,1.6c-1.1-0.7-2.2-1.6-3-2.7l-1.9-2.3C27.8,92.6,27,91,27,89.2l0.3-2
	c0-0.4,0-0.7-0.4-0.7c-0.5-0.5-1.2-0.7-1.9-0.7c0,0-0.4,0-0.7,1.1c0,0.4-2.3-3-2.3-3c1.1-1.5,2-3.1,2.3-4.9c0.4-2.3,0.7-4.1,1.1-6.4
	c0-0.2,0.2-0.4,0.3-0.4c1.6-3.1,2.3-6.7,1.9-10.3c-0.2-0.3-0.3-0.7-0.4-1.1h-0.4l0.4-0.7c0.4-0.7,0.4-0.7,0-1.1
	c-0.8-0.1-1.6,0.1-2.3,0.4l-1.3-3.8h-0.4c-1.9,1.9-3.1,4.3-3.4,6.8l-0.3,0.4c-2.5,3.1-4.4,6.7-5.4,10.6c-0.4-0.7-0.7-1.9-1.1-2.7
	c-0.3-0.7-0.4-1.5-0.4-2.3c0.4-0.7,0.4-1.6-0.4-1.9c-0.8-2-1.5-3.9-1.9-6c0.4-1.6,0.7-3,1.1-4.1c1.1-2.3,2.3-5,3.4-7.2
	c0,0,0.7-0.7,1.1-0.7c2.3-0.7,13-14,11.8-20.4c1.9-3,3.4-6,5-9.1h0.7l0.7-0.4c2.3-0.7,4.1-1.9,6.1-2.7l2.7-1.5c2-0.7,3.8-2,5.4-3.4
	c1.6-1.2,2.7-3,3-5c-0.4-0.7-1.1-0.7-2.7-0.7c0.7-0.8,1.1-1.9,1.1-3c-0.7-0.7-2.3-0.7-5.4-0.4c-3,0.7-5.8,2-8.3,3.7
	c-4.7,3-8.3,7.2-10.7,12.1l1.6-3c0.7-1.6,1.6-3.4,2.3-5.3c0.4-0.7,0.4-1.6,0-2.3c-0.3-0.3-0.7-0.3-1.5-0.3c-1.6,0.6-2.9,1.6-4.1,2.7
	c-2.3,2.3-4.1,5-5.3,8c-1.3,2.3-2.5,4.7-3.4,7.2c0.4-1.8,0.4-3.5,0-5.3c0-0.4-0.7-0.7-1.6-0.4c-0.8,0.6-1.5,1.5-2,2.3
	c-0.7,1.1-1.6,1.9-2.3,3c-0.8,1.2-1.7,2.5-2.3,3.7c-1.1,1.9-2,3.9-2.3,6c-0.8,3.1-1.3,6.2-1.6,9.4c-0.2,2.7-0.1,5.3,0.4,8
	c0.4,2.2,1.1,4.4,1.9,6.4c0.5,0.9,1.3,1.8,2.3,2.3c0.4,1.1,0.7,2.7,1.6,5c0.3,0.8,0.5,1.8,0.4,2.7c-0.1,0.4,0.1,0.8,0.4,1.1
	c0.5,0.3,0.8,0.9,0.8,1.6c0.4,2.3,1.6,4.1,2.3,6c0,1.1-0.4,1.9-0.4,3C10,73.4,8.6,68.5,7,65.1c-2.7-5.7-4.6-8.3-6.1-8
	C0.7,57,0,57.8,0,58.9v3c0,1.9,0.4,3.4,0.4,5.3c1,5.6,3.4,10.8,6.8,15.2l5,5.7c1,0.6,2.1,1.5,3,2.3c0.8,0.5,1.8,0.6,2.7,0.4
	c1.2,2,2.6,3.8,4.1,5.7c1.1,1.6,2.3,2.7,3.4,2.3c0.3,1,1.2,1.7,2.3,1.6H29c1.1,1.2,2.5,2.4,3.8,3.4l-1.1,3.8c-2,0.3-4,0.4-6.1,0.4
	c-1.9-1.1-4.1-3-7.7-5.3v-4.1c-0.1-1.1,0.1-2.4,0.7-3.4c-0.1-0.8-0.5-1.7-1.1-2.3c-0.7-0.7-2.3-1.1-2.7-0.7s0,0.4,0,0.7v0.7
	c0-0.4,0-0.4,0.4-0.4c1.9,0.4,2.7,1.1,2.7,1.9c-0.6,1-0.8,2.2-0.7,3.4v3.4c-2.4-1.6-5-3-7.7-4.1h1.1c0.4,0,0.7,0,0.7-0.4
	s0-0.4-0.7-0.4c-0.9-0.1-1.9,0.1-2.7,0.4c-0.3,0.2-0.4,0.6-0.2,0.9c0,0.1,0.1,0.1,0.2,0.2c3,1.6,5.7,3,8.8,5c3.1,1.9,6.2,3.8,9.1,6
	c2.3,0,5-0.4,8.8-0.7l5.7-1.1c2.3-0.4,5-0.7,7.7-1.1c1.1-0.3,2.3-0.4,3.4-0.4c1.3,0.1,2.8-0.1,4.1-0.4c1,1.8,1.9,3.6,2.3,5.7
	c0,0.7,0,1.6-0.4,1.6c-3.8,1.6-7.7,2.7-11.4,3.8l-6.4,1.6c-4.6,0.7-9.5,1.6-14.1,1.9c-3.4-1.6-6.8-3.4-10.3-5.3
	c-3-1.6-5.7-3.8-8.4-5.7s-3-3-3-3.4c1.1-1.6,2-3.4,2.3-5.3v-1.6c-0.4-1.6,0-2.3,1.1-2.3h6.1c0.4,0,0.7,0,0.7-0.4l1.1-1.9L14.6,94
	l-0.7,1.6V96H7.3c-0.6,0-1.1,0.3-1.6,0.7c-0.4,0.8-0.4,1.8,0,2.7v1.1c-0.6,1.9-1.6,3.6-2.7,5.3c0,0.5,0.1,1,0.4,1.6
	c0.7,1.1,1.6,2.2,2.7,3c0.7,0.7,1.9,1.6,2.7,2.3c2.1,1.3,4.3,2.7,6.5,3.8c3.4,1.9,6.8,3.8,10.3,5.3c0.7,0,5.3-0.7,13.7-1.9v0.7
	c-2.3,1.9-3.8,2.7-4.6,2.3c-0.7-0.4-1.1,0.7-0.7,2.3c0.4,0.7,0.7,1.1,1.6,1.1l0.7,0.7l2.3,1.6c0.8,0.4,1.9,0.4,2.7,0
	c0.8-0.3,1.3-1,1.6-1.9l0.4-0.4l2.7-2.7l1.9-1.5c1.1-0.1,2.3-0.6,3.1-1.6c0-0.6,0.3-1.1,0.7-1.6l2.3-1.6c0-0.4,1.1,0,3,1.1
	c0.7,0.4,1.6,0.4,2.3,0l1.9-1.1c3.2,1.5,6,3.5,8.4,6c0,0.4,0,0.7,0.7,1.6C71,125.6,72,126,73,126l0.7,1.9l0.7,0.4
	c1.5,0.1,2.8-0.5,3.8-1.6l1.6-0.4c0.7-0.3,1.1-1.1,1.1-1.9l-0.7-0.4l-1.1-0.4c-1.8-0.8-3.4-1.8-5-3l-1.1-0.7
	c6,0.9,12.1,1.6,18.3,1.9c1.5,0.1,2.8-0.5,3.8-1.6c1.6-1.1,6.1-4.6,13.7-9.9c1.1-1.2,2-2.6,2.7-4.1c-0.8-0.7-1.5-1.7-1.9-2.7
	c-0.4-0.9-0.7-2-0.7-3v-1.9c0-0.7,0-1.1-0.7-1.6c-0.4-0.4-0.9-0.6-1.6-0.7h-5c-0.7,0-1.6-0.4-1.6-0.7v-2.3c0-0.7,0-1.1-0.7-0.7
	c-1.3,0.3-2.6,0.8-3.8,1.6c-0.5,0.4-0.6,1.2-0.1,1.8l0.1,0.1c0.5,0.3,0.7,0.9,0.7,1.6c-0.1,2.1-0.3,4-0.7,6c-2.1,2-4.4,3.6-6.8,5
	c-2.2,0.2-4.4,0.1-6.5-0.4c-0.9-0.9-1.5-2.1-1.6-3.4c1.2-0.8,2.5-1.6,3.8-2.3l2.3-0.4c0.7,0,0.7-0.7,0.7-1.6
	c0.7-0.4,1.1-0.7,1.1-1.6l3.8-4.6c1.1-1,2.6-1.7,4.1-1.9c2.6-0.4,5.1-1.5,7.3-3c0.4-0.6,0.4-1.3,0-1.9c1.6-1.1,3-2.6,4.1-4.1
	c0.8-1,1-2.6,0.4-3.8c1.6-1.5,2.6-3.2,3.1-5.3c0.4-1.2,0.4-2.6,0-3.8c0.7-0.4,1.3-0.9,1.9-1.6c0.8-1,0.7-2.6-0.3-3.4
	C114.4,64.2,114.6,61.9,113.8,60L113.8,60z M50.4,5.9c-0.1,1.1-0.6,2.3-1.6,3c-1.9,1.6-3.9,3-6.1,4.1c-3,1.1-6,2.5-8.8,4.1v-0.4
	c3.9-3.2,8.1-6,12.5-8.3C47.5,7.7,47.1,7.7,46,8c-1.7,0.7-3.2,1.6-4.6,2.7l-8.3,5V15c3.8-3.5,8.2-6.4,13-8.7
	C47.5,5.6,48.9,5.5,50.4,5.9z M35.2,7.5c2.5-2.2,5.5-3.7,8.8-4.6c1.3-0.4,2.7-0.7,4.1-0.7c0.7,0,0.7,0.4,0.4,1.1L47,5.2
	c-2,0.3-3.7,1.1-5.4,2.3c-2.6,1.7-5.2,3.4-7.7,5.3l-0.4,0.4c-0.9,0-1.9,0.3-2.7,0.7c3.3-3,6.8-5.6,10.7-8C42.8,5.4,44,4.8,45,4
	c-1.5,0.4-2.9,1-4.1,1.9c-3,1.9-6.1,3.7-9.1,6l-4.1,3.7c2.2-2.9,4.7-5.7,7.3-8.3C34.8,7.4,35.2,7.5,35.2,7.5z M31,15
	c0.4-0.4,0.7-0.4,1.6-0.4v1.9c-0.4,1.8-1,3.4-1.9,5l-2.3,5c-1.9,0.3-3.5,1-5,2.3c0.7-1.6,1.9-3,3-5c1.1-1.9,3-4.6,5.3-8
	c0.4-0.7,0.4-0.7,0-0.4c-1.1,1.1-2.2,2.4-3,3.8c-1.6,2.3-3.8,5.7-6.8,10.6c-0.7,1.1-2.7,3.8-5.7,8.3l0.4-1.1l4.1-7.2l3.8-7.2
	C26,19.7,28.3,17.1,31,15z M14.5,31.6c2.4-4,4.6-8.2,6.5-12.4c0.8-2,2.1-3.7,3.4-5.3c0.4-1.1,0-1.1-0.7,0c-3,3.9-5.6,8.3-7.7,12.9
	l1.1-3.4c0.7-1.6,1.1-3.4,2.3-5c0.9-2,2.1-3.9,3.4-5.7c0.8-0.9,1.6-2,2.3-3c0.7-0.8,1.7-1.5,2.7-1.9C28,8,28.1,8.2,28.2,8.5
	l-3.4,8.7c-2.4,4.8-5.4,9.1-8.8,13.3c-1.6,1.6-2.3,2.7-2.7,3s-0.7,0.7-0.7,1.1l0.4-1.1C13.1,33.5,14.5,31.6,14.5,31.6z M16.1,39.2
	l-2.3,4.6h-0.4l1.1-4.6H16.1z M11.1,50.6l0.3-1.9l0.4-1.9l1.1-0.4l-1.6,3.7l-0.7,3C10.7,53.2,11.1,50.6,11.1,50.6z M10.3,43.5
	l1.1-5.7l0.4,0.7L10.3,43.5z M7.7,56.6v-0.4c0-2.7,0.5-5.4,1.6-8C8.4,52.2,8,54.8,7.7,56.6z M6.8,52.9c-0.3-4-0.1-7.9,0.8-11.7
	c0.5-4.3,1.5-8.4,3-12.4c0.7-1.1,0.7-1.6,0-0.7c-3.1,6.4-4.9,13.6-5,20.7C5.5,51,5.7,53.3,6,55.6c0.4,1.6,0.7,2.3,1.6,2.7
	c0.2,0.3,0.7,0.4,1,0.1c0.1,0,0.1-0.1,0.1-0.1c0.1,0.5-0.1,1-0.4,1.6c-1-0.6-1.9-1.6-2.3-2.7c-0.7-1.6-1.1-3.2-1.6-5
	c-0.6-2.6-0.9-5.3-0.7-8c0.3-3.3,0.8-6.6,1.6-9.9c1.1-5,3.8-9.1,6.8-12.9c0.7-0.7,1.1-1.1,1.6-0.7V26c-0.3,2-0.8,3.8-1.6,5.7
	c-1.1,3.8-2.3,8-3,11.7C8.4,46,7.7,49.5,6.8,52.9z M8.8,59.7v-1.1c1.1-1.6,2-3.4,2.3-5.3l2.3-6l2.7-6.4c1.8-3.5,3.9-6.8,6.5-9.9
	c0.8-1.6,2.4-2.7,4.1-3c0.4,0.4,0.4,1.1,0,2.7s-1.1,3-1.6,4.6c-2.2,4.3-5.1,8.3-8.4,11.7l4.7-7.6l2.3-4.1c0.7-1.6,0.7-2.3,0-1.9
	c-4.6,7.2-7.3,11.4-8,13.3s-1.9,3.4-2.7,5c-0.8,1-1.5,2.2-1.9,3.4C10.7,56.5,10,58.3,8.8,59.7z M27.1,62.3c-0.3,2.6-0.8,5.1-1.6,7.6
	c0.1-1.7-0.1-3.3-0.4-5l0.7-2c0-0.7,0-0.7-0.4,0l-0.2,0.8v-1.5l1.1-1.1C27.1,60.5,27.1,60.9,27.1,62.3z M25.9,58.6
	c0.7,0,0.7,0,0.4,0.7l-1.1,1.9c0-0.7-0.4-1.1-0.4-1.9C25.2,58.9,25.6,58.9,25.9,58.6z M20.6,61.6c0.7-3.8,1.9-5.7,2.7-6
	c0.7,2.3,1.1,4.8,1.1,7.2c0.4,3.1,0.4,6.3,0,9.4c0,2.5-0.7,5-1.9,7.2l-0.8,2v-14c0-3,0.4-6,0.7-9.9V57c-0.7,4.8-1.1,9.5-1.1,14.4
	v9.1l-0.7-1.2c-0.6-3.2-0.9-6.5-0.7-9.9C20,66.9,20.2,64.2,20.6,61.6z M14.8,73c1-3.7,2.8-7.3,5.3-10.3c-0.5,1.3-0.9,2.7-1.1,4.1
	c-1.9,3.3-3.4,6.8-4.6,10.6c-0.4,1.1-0.4,2.7-0.7,3.8C13.8,78.5,14.2,75.7,14.8,73z M19,78.7l-1.6-1.9l1.1-2.7
	C18.6,75.6,18.8,77.2,19,78.7z M32.8,106.7l0.7-2.7l3,1.9C36.5,105.9,32.8,106.7,32.8,106.7z M40.3,105.6l-5.3-3.1l-4.6-3l-0.7-1.1
	C29.4,98.1,29,98,28.6,98c-0.4,0.4-0.7,0-1.1-0.7c-1.2,0.7-2.9,0.4-3.8-0.7l-2.3-2.7l-1.9-3.4l-1.1-0.7C17.9,90,17.6,90,16.8,90
	c-1.2-0.2-2.3-0.9-3-1.9c-1.5-2.2-2.7-4.5-3.8-6.8c-2-3.8-3.8-8-5.8-11.7c-0.7-2.3-1.1-3.8-1.6-4.1s-0.4-0.7-0.4,0
	c0.4,1.1,0.4,2.7,1.1,3.8c1.1,3,2.3,5.7,3.4,8.3c1.6,3,3,5.7,4.6,8.3C8.4,83,6,79.6,4,76c-1.5-2.8-2.4-5.7-3-8.7
	c-0.3-1.3-0.4-2.8-0.4-4.1v-3.3C1,59,1,59,1.5,59s0.7,0.7,1.9,1.9c1.7,2.7,2.9,5.7,3.8,8.7c1.6,4.6,2.7,7.6,3,8.7s0.7,2.7,1.1,3.8
	c0.3,1,0.8,2.1,1.6,3c0.6,1.2,1.3,2.4,2.3,3.4c1.1,0.7,1.9,0.7,2.3,0.4l-2.3-4.6h-0.6v-1.6c0.2-1.3,0.4-2.8,0.7-4.1
	c1.1-3.4,2.5-6.6,4.1-9.9c-0.3,1.2-0.4,2.5-0.4,3.8c-1.6,3.8-3,6.8-3.8,9.1c-0.4,1.6-0.4,2.3,0,2.3l0.4-0.4l-0.3-1.2l0.4-0.7
	l0.7,1.6l0.4-0.4l0.4,0.7l-0.4,0.7l2.7,3.8l0.7-0.7l0.4,0.7c-0.6,0.5-1,1.2-1.1,2c0.7,1.1,1.6,2.7,2.3,3.8c1.6,1.9,2.7,2.7,3.4,1.6
	c0.4-0.4,0.7,0,1.1,0.4c0.6,0.5,1.1,1.1,1.6,1.9v-1.6l-2.3-2.7l-1.6-3c-0.7-1.1-1.9-2.7-2.7-3.8l-1.9-3.4c-0.7-1.1-1.6-2.7-2.7-4.1
	v-0.8l2.3,3c1.6,1.8,2.9,3.7,4.1,5.7c0.7,1.1,1.1,1.6,1.6,0.7l0.4-1.1l0.8,0.3l-0.7,2.7v0.7c0,0.7,0,1.1,0.4,1.1s0.4,0.4,0.7,1.1
	c0.7,1.1,1.6,1.9,2.3,3c1.2,1.5,2.6,2.7,4.1,3.8c1.6,0.7,2.7,1.9,3.4,2.3s1.6,1.1,1.1,1.9l1.1,0.4l-0.3-1.5h1
	c0.5,0.4,0.8,0.9,1.1,1.6c1.1,0.7,1.9,1.6,3,2.3L40.3,105.6L40.3,105.6z M17.9,83.6l0.4-0.4l1.9,3v0.4L17.9,83.6z M21.4,90l0.7-0.7
	L24,92l1.1,1.9l0.4,1.1c-0.7-0.4-1.1-1.1-1.6-1.6l-1.1-1.6L21.4,90z M45,104.7l-3-2.3c-0.8-1-1.7-2.1-2.7-3
	c-0.4-0.4-0.7-1.1-1.6-1.6c-0.6-0.3-1.2-0.5-1.9-0.4c-0.4,0-0.7,0.4-1.1,1.6l-0.4-0.4c0-0.6,0.3-1.1,0.7-1.6c0.4-0.4,1-0.4,1.6,0
	l3.4,1.6l5.7,1.9c1,0.8,2,1.9,2.7,3C47.4,104.1,46.3,104.5,45,104.7z M46.6,118.7c-2,2-4.1,3.7-6.5,5.3l-0.4-0.4
	c2.1-1.2,4.1-2.6,6.1-4.1l1.1-1.1h-0.7c-0.9,0.8-2,1.6-3,2.3c-1.2,0.8-2.5,1.6-3.8,2.3l-1.9,0.7l0.4,0.4h1.6c0.6,0.3,1,0.8,1.1,1.6
	c0,0.4-1.1,0.7-2.3,0.4l-1.6-0.7c-0.5-0.6-1.1-1-1.9-1.1l-0.7-0.4l0.4-0.7l1.9,0.7h0.7l-0.4-1.1L39,121c0.7-0.4,0.7-0.7,0.7-1.1
	v-1.1c1.1,0.2,2.4,0.1,3.4-0.4c1.1-0.4,2.3-0.7,3.4-0.7S47.7,118,46.6,118.7L46.6,118.7z M75.2,13.5v-1.6L74,12.3
	c-1.3,0.4-2.9,0-3.8-1.1c-0.7,0-1.1-0.4-1.1-0.7c0-0.4,0.4-1.1-0.4-1.1l-1.9,0.4c-0.9,0-1.8-0.4-2.3-1.1c-0.4-0.4,0-1.1,0.4-1.9
	c-0.8-0.4-1.7-0.8-2.3-1.6c-0.4-0.4,0-1.1,0.4-1.6c1.2-0.4,2.6-0.4,3.8,0c-0.3-0.4-0.4-0.9-0.4-1.5c0-0.4,1.1-0.4,3.4,0.7l1.6,0.7
	c0.4-0.7,0.8-0.7,2-0.7c1.1,0.5,2.1,1.1,3,1.9c1.2,0.8,2.3,1.9,3,3c0.4-0.5,1-0.5,1.6-0.2c0.2,0.1,0.3,0.3,0.3,0.5v1.6
	c-0.9-1-2.6-1.1-3.6-0.2l-0.2,0.2l-0.7-0.3c-1-0.9-1.8-2.1-2.3-3.4C74,4.8,74,4.8,74,5.5c0.3,1.2,0.8,2.4,1.6,3.4
	c-1.7-0.6-3.2-1.5-4.6-2.7c-0.8-0.8-1.7-1.7-2.3-2.7c-0.4-0.7-0.7-0.7-0.7,0c0.4,1.1,1.2,2.1,2.3,2.7l-1.6-0.4
	c-1.1-0.4-2.7-0.7-3.8-1.1c-0.4,0-0.4,0,0,0.4c1.1,0.4,2.7,0.7,3.8,1.1c0.7,0,1.1,0.4,1.9,1.1C69.4,7.7,68.1,8,66.8,8h-1.1
	c0.4,0,0.4,0.4,0.7,0.4c1.7,0.1,3.3-0.1,5-0.4c1.6,0.7,2.7,1.1,4.1,1.9c-1-0.3-2.3-0.1-3,0.7c-0.4,0.4,0,0.4,0.4,0l3.4-1.1l1.1,0.4
	c0.1,1.2,0.3,2.6,0.7,3.7L77.4,14C77.4,14,75.2,13.5,75.2,13.5z M82.9,20.7c-2.3,0-3,0-3-0.4s0-0.7,0.7-1.1l0.3-0.7
	c-1.6-0.7-2.7-1.6-3-3.4l1.1-0.4c0.4-0.7,0.4-1.1,0-1.6c-0.6-0.7-0.8-1.7-0.7-2.7c0.4-1.1,1.9-1.1,3.8,0c0.7-1.6,1.9-2.3,3-1.6
	c-1.1,0-2.3,0.7-2.3,1.6v2.7c-0.4-0.7-1.1-1.1-1.6-1.6c-1.1-0.4-1.6-0.4-0.7,0c0.7,0.6,1.3,1.5,1.9,2.3c-0.9,0.8-2.2,1.2-3.4,1.1
	c-0.4,0-0.4,0.4,0,0.4c0.6,0,1.3-0.1,1.9-0.4c-0.4,1.7,0.3,3.4,1.9,4.1C83.6,19.9,83.2,20.3,82.9,20.7z M84.3,21.9
	c0-0.4,0.4-0.7,1.6-0.7s1.1-0.4,0.4-0.7c-1.1-0.6-2.2-1.6-3-2.7c-0.7-0.7-0.7-1.1,0-1.6l0.7-0.4l0.4-0.7L84,12.8
	c-0.4-1.1,0-1.9,1.1-2.7c1.3,0,2.7,0.4,3.8,1.1c0-0.7,0.4-0.7,1.1-0.7s1.6,1.9,2.3,5l1.1,0.4c0.2-0.4,0.4-0.8,0.7-1.1
	c0.5,0.6,0.9,1.5,1.1,2.3c1.1,1,1.6,2.7,1.1,4.1c-0.8,0.7-1.1,2-0.7,3L95.4,23c-0.3-1.3-0.4-2.8-0.4-4.1v3.4c-1-1.6-2.4-2.9-3.8-4.1
	c-0.3-1.1-0.4-2.3-0.4-3.4s-0.4-1.6-0.4-0.7c-0.4,1.2-0.4,2.6,0,3.7c-1.3-1.5-2.7-2.9-3.8-4.6c-0.4-0.7-0.4-0.7-0.4-0.4
	c0.6,1.3,1.3,2.6,2.3,3.7c0.7,1.1,1.9,1.9,2.3,2.7c-1.1-0.4-1.9-0.4-3-0.7c-0.8-0.1-1.6-0.3-2.3-0.7c-0.7,0-0.7,0,0,0.4
	c0.8,0.5,1.8,0.7,2.7,0.7l3.4,1.1c1,0.6,1.9,1.6,2.3,2.6l0.7,1.9c-1.2-0.7-2.7-1.2-4.1-1.6c-0.9,0-1.9-0.3-2.7-0.7
	c-1.1-0.4-1.1-0.4-0.4,0.4c0.9,0.5,2,0.7,3,0.7c1.7,0.4,3.3,1,4.9,1.9v0.4c-0.4,0.4-0.4,0.7-0.4,1.6l0.4,1.5
	c-0.4-0.4-0.7-0.4-1.9,0.7c0.4-0.4,0.4-1,0-1.6c-0.9-1.3-2.5-2.4-4.4-2.9l-0.4,0.4C86.7,25.2,85.1,23.7,84.3,21.9L84.3,21.9z
	 M100.8,55.5c-0.4-0.7-1.1-1.9-1.9-3.4c-0.7-1.6-1.6-2.7-1.9-3.4c-0.4-0.8-0.4-1.8,0-2.7c0.4-0.7,0.4-1.6,0.7-2.3v-0.4
	C97.3,44,97,45.2,96.6,46L95,42.3c0.3-2.2,1.1-4.3,2.3-6c0.4-0.7,0.4-0.7,0-0.4c-1.2,1.6-2.2,3.3-2.7,5.3l-2.3-4.6
	c0.3-1.7,0.8-3.3,1.6-5c0.7-1.1,0.4-1.1-0.4,0c-0.6,1.1-1.1,2.5-1.6,3.8c-0.7-2.7-1.1-5-1.9-6.4l-0.4-0.4l0.4,0.7
	c0.3,2.1,0.8,4,1.6,6c-0.8-0.8-1.9-1.5-3-1.9c1,0.6,2.1,1.5,3,2.3c0.4,1.1,1.1,2.3,1.6,3.4c-1.3-0.8-2.7-1.6-4.1-2.3
	c-0.7,0-0.7,0,0,0.4c1.9,0.4,3.5,1.5,4.6,3l1.6,3.8c-0.4,0-1.1-0.7-1.9-2.3c-1.2-1.8-3-3.1-5.1-3.8c-0.5-0.3-0.7-0.9-0.7-1.6
	c0-0.4,0.4-0.7,1.6-0.7c-0.4-0.7-0.4-1.1-0.7-1.9L88.1,33c-0.7-1.6-0.3-2.3,1.1-2.3c-1.1,0.4-1.1-0.4-1.1-0.7
	c-0.1-0.9,0.2-1.9,0.7-2.7c0.4-0.4,0.4-1.1,0.7-1.6l2.3,1.1c0.7,0.3,1.1,1.1,1.1,1.9l-0.4,1.9c0,0.4,0.4,0.4,1.1-0.4
	c0.3-0.7,0.8-1.2,1.6-1.6c0.4,0.4,1.1,0.7,1.6,1.1c0.4,1.6,0.3,3.1-0.4,4.6l-0.8,2.2c1.6-1.9,2.7-3,3.8-3v4.1c0,0.7-0.2,1.3-0.7,1.9
	c-0.7,0.6-1.2,1.7-1.1,2.7c1.6-1.1,1.9-0.7,1.9,0.4l-0.7,3c-0.4,1.6,0,2.3,0.7,1.9s1.1,0,1.1,0.4v1.6c-0.3,0.5-0.5,1.2-0.4,1.9
	c0,0.4,0.4,0.4,0.4,0.7h1.1c0.4,0,1.1,0,1.1,0.7v1.9c0,0.7,0.3,1.3,0.7,1.9c0.4,0.4,0.7,0.7,1.1,0.7l0.7-0.7c-0.7,0-1.1-0.4-1.1-1.9
	v-3c-0.4-0.7-0.7-1.6-1.1-1.6c-1-2.2-2-4.5-2.7-6.8h1.6c1.1,3.8,1.9,5.7,2.3,6s0.7,0.7,0.7,1.1c0,0.9,0.1,1.8,0.4,2.7
	c1.5-0.8,2-2.7,1.1-4.1c0-0.4-0.4-0.4-0.7-0.7c-0.7-0.3-1.2-0.8-1.6-1.6c-0.4-0.7,0-1.1,0.7-1.6c0.7-0.4-0.7-1.6-3.8-3.4
	c-1.6-1.1-1.9-1.9-1.6-2.7s0.7-0.4,1.1,0c0.3,0.2,0.7,0.4,1.1,0.4c0,0,0-1.1-0.7-1.1s-1.1-0.4-1.1-0.7v-5c-0.4-0.7-1.6-0.7-2.7,0
	c0.3-0.7,0.4-1.5,0.4-2.3s-0.4-1.6-1.1-1.9l-0.8-1.9c0-0.7,0.4-1.1,1.1-1.6c-0.4-0.9-0.4-2.1,0-3c0.4-0.4,0.4-1.1,0.7-1.6
	c0-0.4,0.4-0.4,1.1,0c1.3,1,2.5,2.4,3.4,3.8c0.7-0.7,1.6-0.4,1.9,0.7c0.8,1.3,1,3,0.7,4.6c1.9-0.4,2.3,0.4,1.9,2.3
	c0.7,1,1.1,2.2,1.1,3.4c0.1,0.7-0.1,1.6-0.4,2.3c-0.4,0.4-0.4,1.1-0.7,1.6c0,0.4,0,0.4,0.4,0c0.4-0.7,1.1-1.1,1.9-1.1
	c0.5,0.8,0.7,1.8,0.7,2.7c0,0.6-0.3,1.1-0.7,1.6c-0.4,0.6-0.8,1.2-1.1,1.9c0,0.4,0,0.7,0.7,0.7l1.1-0.4c0.7,0,0.7,0.4,0,1.6
	c-0.4,1.1-1.1,1.9-1.6,3c-0.3,0.6-0.4,1.2-0.4,1.9c0,0.6-0.2,1.2-0.4,1.9v-4.1c-0.4-1.6-0.4-3.4-0.7-5c0.6-0.9,1.1-2,1.6-3
	c0.4-0.7,0.4-1.1,0-0.4c-0.3,1-0.8,1.9-1.6,2.7c-0.4-1.6-1.1-3.8-1.6-6c0.7-1.2,1.1-2.7,1.1-4.1c0-1.6,0-1.6-0.4-0.4
	c0,1.6-0.7,2.7-1.6,4.1c-0.4-1.9-1-3.6-1.9-5.4c0.3-1.1,0.4-2.3,0.4-3.4s0-1.1-0.4-0.4c0.1,0.7-0.1,1.6-0.4,2.3L100,26l-0.7-2.3
	c-0.4-0.7-0.4-0.7-0.4,0l0.7,2.7c-0.4-0.7-1.1-1.2-1.9-1.6c-0.7-0.4-0.7-0.4-0.4,0c0.9,0.8,1.9,1.7,2.7,2.7l1.9,4.6
	c-1-1.1-2.4-1.9-3.8-2.3c-0.7-0.4-0.7,0,0,0.4c1.6,1.1,3,2.6,4.1,4.1l1.6,4.6c-1.2-0.8-2.3-1.9-3-3c-0.4-0.4-0.7-0.4,0,0.4
	c1,1.3,2.2,2.6,3.4,3.8l1.1,4.1c-1.2-1.2-2.6-2.3-4.1-3c-0.7-0.4-0.7-0.4,0,0.4c1.8,1.3,3.2,2.8,4.6,4.6c0.4,2.3,0.7,4.6,0.7,6.8
	c0,0.7-0.7,1.6-1.9,1.9l-0.4,3.4h-1.9C102.5,57.1,101.6,56.3,100.8,55.5L100.8,55.5z M103.1,58.9h1.6c-0.7,3.4-1.6,7.2-1.9,9.4
	l-0.7-0.4C102.7,65,103.1,62,103.1,58.9z M91.3,78.3c-0.4,0-1.1-0.7-2.3-1.9c-1.1-1.1-1.6-1.9-1.1-3c-0.5-0.3-0.7-0.9-0.7-1.6
	c-0.4-0.4-0.4-1,0-1.6c0.4-0.4,1.1-0.4,2.7,0.7c0.4-0.7,0.4-1.6,0-2.3l-1.2-1.9c-0.4-1-1-2-1.9-2.7c-0.4-1.1-0.7-1.6-0.4-1.9
	s0.7,0,1.1,0.4c1.1-1.1,1.9-1.6,2.3-1.1c0.5,0.8,0.7,1.8,0.7,2.7c0.4,1.2,0.4,2.6,0,3.7L90,68.4l0.4,0.4c0.1,1,0,2.1-0.4,3
	c-0.1,0.4,0.1,0.8,0.4,1.1v-1.1c0-0.5,0.1-1,0.4-1.5c0-0.4,0.4-1.1,0.4-1.6l-0.4-0.4c0.4,0,0.4-0.4,0.7-0.4v-3
	c0.1-0.9,0-1.8-0.3-2.7c0-0.4-0.4-1.1-0.4-1.6c0-0.4-0.3-0.7-0.7-0.7s-1.1,0.4-1.9,1.6c0.4-1.1,0.7-2.7,1.1-3.8
	C89.7,57,90,57,90.4,57s0.7,0.3,0.7,0.7s0.4,0.4,0.7-0.4s0.4-0.7,0.7-0.4l0.7,0.7c0,0.4,0.4,0.7,0.4,1.1c0,0.7,0.4,1.6,0.4,2.7
	c0.1,0.7-0.1,1.6-0.4,2.3c-0.4,0.4-0.4,0.7-0.4,1.6c0,1.1,0.1,2.3,0.4,3.4c0.3,0,0.5-0.2,0.7-0.4c0.3-0.3,0.7-0.4,1.1-0.4
	s0.4,0.7,0.4,1.9c0,1.1,0,1.6,0.4,0.4c0.4-1.1,0.4-1.6,1.1-1.6s0.7,1.1,0.4,3.8c-1.5,1-2.7,2.4-3.8,3.8c-0.4-0.7-0.4-1.6,0-2.3
	c0.4-0.4,0.4-1.1,0.7-1.6c0-0.4,0.4-1.1,0.4-1.6c0.4-1.1,0.4-1.1,0-0.4c-0.4,0.4-0.4,0.7-0.7,1.6c-0.4,0.4-0.4,0.7-0.7,1.1
	c-0.4-1.1-0.4-2.7-0.7-3.8s-0.4-1.1-0.4,0c0.4,2,0.7,4,0.7,6c-0.6-0.7-1.5-1.3-2.3-1.9c-0.7-0.7-1.6-1.1-1.9-1.9
	c-0.4-0.4-0.7-0.4-0.4,0.4s1.6,1.6,2.3,2.7s1.9,1.6,1.9,1.9c0.4,0.4,0.4,0.4,0.4,0.7c-0.4,0.4-0.7,1.1-1.6,1.6
	c-0.4-0.4-0.4-0.4-0.4-0.7C91.6,78.6,91.6,78.3,91.3,78.3L91.3,78.3z M66.8,102.9c0.5-0.6,1.1-1.1,1.9-1.6c2.3-1.1,5-2.3,7.7-3.4H77
	l0.4,0.7L76.7,99c-0.6,0.3-1.2,0.5-1.9,0.4c-0.8,0.1-1.6,0.3-2.3,0.7c-0.9,0.2-1.6,1-1.6,1.9c0,0.4-0.4,0.7-0.7,1.1l-2.7,1.6h-1.9
	C65.6,104.7,66.8,102.9,66.8,102.9z M72.5,105.2h-1.1l-2.3-0.4l2.3-1.1L72.5,105.2v-0.4l-0.4-1.1c-0.3-0.7,0-1.6,0.6-1.9
	c0,0,0.1,0,0.1-0.1c0.7-0.4,1.5-0.7,2.3-0.7c0.4,0,0.4,0.7,0,1.9C74.5,103.8,73.5,104.5,72.5,105.2z M62.6,113.9l-0.4-1.1l-1.9,2.3
	l-1.6,1.1c-0.5,0.5-1.2,0.7-1.9,0.7l-2.3-1.1l1.1-0.7l0.4,0.4c-0.4,0.7,0,0.7,0.7-0.4l1.9-1.9c0-1.6-0.3-3.1-0.7-4.6
	c-0.3-1.3-0.8-2.6-1.6-3.8c0-0.4-1.1-0.4-3-0.4c1.3-0.4,2.8-0.4,4.1,0l1.6,0.7l0.7-0.4l-1.6-0.7h0.7l0.7,0.7l0.4,0.4
	c1.5,1.5,2.8,3.1,3.8,5c0.4,0.8,0.4,1.8,0,2.7C63.8,113.9,62.9,114.2,62.6,113.9z M78.6,123.3l0.7,0.4l-0.4,0.4l-1.9,0.4
	c-0.8,0.6-1.7,1.1-2.7,1.6l-1.1-0.4l-0.4-0.7c0.4-0.4,0.7-0.7,1.1-0.7c0.4-0.3,1-0.4,1.6-0.4l1.6,0.4
	C77,124.2,78.6,123.3,78.6,123.3z M76.3,123.3c-1.1,0-1.9,0.7-2.3,0.7h-0.7c-0.9-1.1-2-2.1-3-3l-3-2.7c0.7-0.4,1.9,0,3.8,0.4
	L76.3,123.3z M85.9,109h3c2.8-1.6,5.4-3.4,7.7-5.7c2.9-2.3,6.1-4.1,9.5-5.7c0.7-0.4,0.7-0.7,0-0.7c-1-0.3-2-0.4-3-0.4
	c-0.4,0.4-0.4,0.7,0,0.7h1.6c-2.7,1.6-5.4,3-7.7,4.6c0-1.1,0.4-3,0.4-5.3c-0.1-0.8-0.3-1.6-0.7-2.3c-0.4-0.4,0-0.7,1.1-1.1l0.7-0.4
	v1.6l-1.1-0.4v0.7c0.4,0.5,0.9,0.8,1.6,1.1h5.4c1.9,0,3,0.4,2.7,1.6v2.7c0.4,2,1.2,3.9,2.3,5.7c-0.5,1.1-1.1,2.1-1.9,3l-3.4,2.2
	c-3,2.3-7.3,5-12.7,8.3c-8.8,0.1-17.5-1.2-25.9-3.8l-1.1-0.4l0.4-0.4c0.4-0.7,1.1-1.1,1.1-1.9c0-2.5-1-4.9-3-6.4v-0.4l1.1-0.4
	c2.6,0,5.2,0.4,7.7,1.1c2.3,0.4,5,1.1,8,1.6C81.5,108.5,83.7,108.8,85.9,109L85.9,109z M80.9,107.4c-1.1-0.4-3-0.4-5.7-1.1l2.3-0.7
	c0.8,0.4,1.9,0.1,2.3-0.7C80.2,105.5,80.6,106.6,80.9,107.4z M95.4,87.3c-0.8,0.7-1.1,2-0.7,3c-1.5,0.8-2.7,1.9-3.8,3
	c-1,1-1.9,2.2-2.7,3.4c-0.3,0.8-1,1.3-1.9,1.6c-0.9,0.2-1.9,0.1-2.7-0.4l-0.4,1.6l-4.6,2.7l-2.3,1.1c0.3-0.7,0.4-1.5,0.4-2.3
	l0.7-0.7c3-1.6,5-3,5.4-4.6c0.4-1,1-2,1.9-2.7c0.6-0.8,1.1-1.7,1.6-2.7v-3c0.7,0.7,1.6,1.1,1.9,0.4c0.8-1.8,1.9-3.4,3.1-5
	c1-1.5,2.2-2.8,3.4-4.1l3-3.4v1.6c-1.8,2.2-3.4,4.5-5,6.8c-1.9,2.6-3.4,5.3-4.6,8.3c-0.4,1.1-1.2,2.1-2.3,2.7
	c-0.6,0.3-1.1,0.6-1.6,1.1c-0.4,0.7,0,0.7,0.4,0.4c0.4-0.4,0.9-0.8,1.6-1.1c2.5-2.1,4.7-4.6,6.5-7.2v-2.2l0.7-1.1
	c0,1.1,0,2.3,0.4,2.3s0.7-0.4,1.1-1.1s1.6-3.4,3.4-7.2c-0.4,0.9-0.4,2.1,0,3c-1.1,0.7-1.6,1.9-0.7,3.8L95.4,87.3L95.4,87.3z
	 M110.6,72.2c0,1.1-0.4,2.2-1.1,3c-1.9,2.3-2.7,3.4-2.3,3.8c0.4,1,0.3,2.2-0.4,3c-1.1,1.5-2.5,2.9-3.8,4.1c0.4,0.7,0,1.6-1.1,2.3
	c-1.5,0.8-3,1.5-4.6,1.9c2.7-1.6,4.7-4.1,5.4-7.2c0.6-0.6,1.5-1.1,2.3-1.6c0.7-0.4,0.7-0.7,0.4-0.4c-0.9,0.3-1.9,0.8-2.7,1.5
	c0.8-1.9,1.5-3.7,1.9-5.7c1.2-1.3,2.4-2.7,3.4-4.1c0.7-0.7,0.7-1.1,0-0.4c-0.8,1.5-1.9,2.7-3,3.8c0.7-1.9,1.1-4.1,1.9-6.4
	c0.4-1.6,0-1.6,0-0.7l-0.4,1.6l-1.1-2.3l0.7,3c-0.4,1.6-0.7,3.4-1.1,5c-0.6-1.8-1.6-3.4-2.7-5c-0.7-1.1-1.1-1.1-0.4,0
	c1.1,1.9,2,3.9,2.7,6c-0.4,1.9-1,3.6-1.9,5.3c-0.4-0.7-1.1-1.2-1.9-1.6c-0.4-0.4-0.4,0,0,0.4c0.6,0.5,1.1,1.2,1.6,1.9
	c-0.5,1.2-1.2,2.5-2.3,3.4c-0.8,0.9-1.7,1.9-2.7,2.7c1.1-1.7,1.6-3.6,1.1-5.6c0-0.4,0.3-0.7,0.7-0.7s0.7-0.3,0.7-0.7
	c-0.4-0.7-0.7-1.5-0.7-2.3h1.6c0.7-0.4,0.4-0.7,0-1.6c-0.8-0.9-1.2-2.2-1.1-3.4c0-0.7,0.4-1.1,1.6-0.7c0.4,0,0.4-0.4,0-1.9l-1-1.6
	c-0.7-1.9-0.4-2.3,1.1-1.9l1.9,1.1c1.1,0.4,1.9-0.4,1.9-2.3c0-0.4,0.4-0.4,1.1-0.4c0.9,0,1.7-0.6,2-1.5c0.7-0.7,1.1,0,1.6,1.9
	c0.4,1.9,0.4,3.4,1.9,3.4C110.6,71,110.6,71.4,110.6,72.2L110.6,72.2z M112.6,66.2c0,0.4-0.1,0.8-0.4,1.1c-0.4,0.4-0.9,0.6-1.6,0.7
	l-0.7-1.1c0-1.1-0.4-2.2-1.1-3c0.4-0.5,0.9-0.7,1.6-0.7c0.4-0.4,0.4,0-0.4,0s-1.1,0.7-1.9,0.7c0.4-1.5,1-2.9,1.9-4.1
	c0.4-0.7,0-0.7-0.4,0c-0.7,1-1.5,2.2-1.9,3.3c-0.4-0.4-0.4-1.1-0.7-1.6c0-0.7-0.4-0.7-0.4,0c0.1,0.8,0.3,1.6,0.7,2.3
	c-1.1,1.6-1.9,2.3-2.3,1.9c0.3-2.3,0.8-4.6,1.6-6.8c1.1-1.1,1.9-1.6,2.7-1.1c1.1-0.7,1.9-1.1,2.7-0.4c0.4,0.7,0.7,1.1,0.4,1.9
	c-0.1,0.8-0.3,1.6-0.7,2.3c0.7,0,1.1,0.4,1.6,1.1c-0.3,1.5-1.1,2.7-2.3,3.4C112.2,65.7,112.6,66.2,112.6,66.2L112.6,66.2z"/>
<path class="st1" d="M16.8,109.7c0.7,0.4,1.6,0.4,1.9-0.4c0.4-0.4,0.4-1,0-1.6l-0.4-0.4c-0.4-0.4-0.4-0.4-0.7,0.4
	C17.5,107.7,16.8,109.7,16.8,109.7z M8,103.7c0.7,0.7,1.1,1.1,2.3,0c0.4-0.4,0.4-1,0-1.6l-0.4-0.4H9.5C9.5,101.7,8,103.7,8,103.7z
	 M20.9,110.1c0-0.7,0.4-1.1-0.4-1.6c0.4,0,0.7,0.3,0.7,0.7c0.3,0.3,0.7,0.4,1.1,0.4c0,0-0.7-0.4-0.7,0c-0.1,0.8-0.3,1.6-0.7,2.3
	l-0.4,2.7l2.3-1.6c0.4-0.4,1.6-1.6,1.6-1.9s0-0.7-0.4-0.7V110l0.7,0.4c0.4,0,0.4,0.4,0.7,0.4c-0.7-0.4-1.1,0.4-1.9,0.7l-3.8,3.8
	l-0.4-0.4C19.3,114.9,20.9,110.1,20.9,110.1z M15.7,110.9c0,0.4-0.4,1.1-0.4,1.6c0,0.4,0,0.4,0.4,0.7v0.4l-1.1-1.1
	c-0.3,0-0.5-0.2-0.7-0.4v-0.4c0.4,0,0.7,0.4,0.7,0c0.4-0.4,0.7-0.7,0.7-1.1l1.6-2.3c0-0.4,0.7-0.7,0.7-1.1s0-0.7-0.4-0.7
	c0.4,0.4,0.7,0.4,1.1,0.7s0.7,0.4,1.1,0.7c0.8,0.4,1.1,1.5,0.8,2.3v0.4c-0.5,0.8-1.5,1.1-2.3,0.7c-0.2,0-0.4-0.2-0.4-0.3
	c-0.4,0-0.4,0-0.4-0.4C17.1,110.4,15.7,110.9,15.7,110.9z M12.2,105.6c0-0.4,0.7-0.7,0.7-1.1s0-0.7-0.4-0.7H13l3.4,2.3l-1.1,1.1
	c0.7-0.7,0.4-1.1-0.4-1.9l-0.4-0.4c0-0.4,0-0.4-0.4,0l-1.1,1.9c0.4,0.5,1,0.5,1.6,0.2c0.2-0.1,0.3-0.3,0.3-0.5
	c-0.4,0.4-0.7,0.7-0.7,1.1s-0.4,0.7-0.7,1.1v-0.4c0.7-0.7,0.4-1.1-0.4-1.6l-1.6,2c0,0.4-0.4,0.4-0.4,0.7c0,0.4,0.3,0.7,0.7,0.7
	c0.6,0.4,1.3,0.4,1.9,0l-0.7,1.6L8.9,109v-0.4h0.7c0.4-0.4,0.7-0.7,0.7-1.1C10.3,107.5,12.2,105.6,12.2,105.6z M8.4,107.7
	c-0.1,0.4,0.1,0.8,0.4,1.1l-0.4-0.4c-0.3,0-0.5-0.2-0.7-0.4v-3.4c0-0.4,0-0.4-0.4-0.7l-0.4,0.7c-0.4,0.4-0.4,0.7-0.7,1.1
	c0,0.4,0,0.4,0.4,0.7c-0.3,0-0.5-0.2-0.7-0.4c-0.4-0.4-0.7-0.4-1.1-0.7c0.4,0,0.4,0.4,0.7,0s0.7-0.7,0.7-1.1l1.6-2.3
	c0.4-0.4,0.4-0.7,0.7-1.1c0-0.4,0-0.4-0.4-0.7c0.4,0.4,0.7,0.7,1.1,0.7s0.7,0.3,0.7,0.7c0.7,0.7,1.6,1.1,0.7,2.3
	c0,0.7-1.1,1.1-1.9,0.7H8.4L8.4,107.7L8.4,107.7z M53.1,109.7l-1.1-2.3l-0.4,2.7C51.6,110.1,53.1,109.7,53.1,109.7z M33.2,114.2
	c-0.1,0.4,0.1,0.8,0.4,1.1c0.4,0.4,0.4,0.4,0.7,0.4c0.7-0.4,0.7-0.7,0.7-1.6c0-0.4-0.4-0.7-0.7-1.1s-0.7,0-1.1,0
	C33.2,113,33.2,114.2,33.2,114.2z M33.2,112.7c0.2-0.2,0.5-0.3,0.7-0.4c0.4-0.4,0.4-0.7,0.4-1.6c0-0.6-0.4-1-0.9-1.1h-0.6v0.4
	C32.8,110,33.2,112.7,33.2,112.7z M28.2,115c-0.1,0.4,0.1,0.8,0.4,1.1c0,0.4,0.4,0.4,0.7,0s1.1-0.4,1.1-1.6c0-0.7-0.4-0.7-0.7-1.1
	h-1.1v1.6H28.2z M27.8,113.4c0.7,0,0.7-0.4,1.1-0.4c0-0.4,0.4-0.7,0.4-1.1c0.1-0.5-0.3-1-0.9-1.1h-0.2c-0.2,0-0.4,0.2-0.4,0.3
	C27.8,111.1,27.8,113.4,27.8,113.4z M51.5,110.9c0,0.4-0.4,1.1,0,1.6c0.4,0.4,0.4,0.4,0.7,0.4v0.4h-1.5c0.4,0,0.7-0.3,0.7-0.7
	c-0.1-0.6,0.1-1.3,0.4-1.9l0.7-4.1h0.4l2.3,4.6c0,0.4,0.4,0.7,0.7,1.1s0.4,0.4,0.7,0.4v0.4h-1.1c-0.4,0-0.7,0.4-1.1,0.4V113
	c0,0,0.7,0,0.4-0.7s0-0.4,0-0.7l-0.7-1.1l-1.9,0.4L51.5,110.9L51.5,110.9z M48.4,107l0.4,1.9c-0.4-1.1-1.1-1.9-1.9-1.6
	c-1.6,0-1.6,1.9-1.6,3.4c0,1.6,0.7,3,2.7,2.7s1.1-1.1,1.1-2.3l0.4,2.3l-0.4-0.4c-0.4,0.4-0.9,0.7-1.6,0.8c-1.6,0.4-3-0.7-3.4-2.7
	s0.7-3.8,2.3-3.8c0.6-0.1,1.3,0.1,1.9,0.4L48.4,107C48.3,107,48.4,107,48.4,107z M42.4,109.7c0-0.4-0.4-0.7-0.4-1.1
	c-0.4,0-0.4-0.4-0.7-0.4h-0.4c0.4,0,0.7-0.4,1.1-0.4s0.7-0.4,1.1-0.4V107c-0.4,0-0.4,0.4-0.7,0.4c-0.1,0.4,0.1,0.8,0.4,1.1l0.4,3
	c-0.1,0.4,0.1,0.8,0.4,1.1c0,0.4,0.4,0.4,0.7,0.4v0.4h-1.1c-0.4,0-0.7,0.4-1.1,0.4v-0.3c0.4,0,0.7,0,0.7-0.4V112
	C42.8,112,42.4,109.7,42.4,109.7z M37,110.9v-1.6c-0.4-0.4-0.4-0.4-0.7,0v-0.4c0.4,0,0.8-0.1,1.1-0.4h1.1v0.4c-0.4,0-0.7,0-0.7,0.4
	s0.4,1.1,0.4,1.6l0.4,3c0,1.1,0.4,1.6,1.6,1.1c0.4,0,0.8-0.1,1.1-0.4s0.4-0.7,0.4-1.1l0.4-0.4l0.4,1.9h-0.4c-1.5,0-2.8,0.3-4.1,0.7
	c0.2-0.2,0.5-0.3,0.7-0.4v-1.6L38,111L37,110.9z M32,111.6c0.1-0.4-0.1-0.8-0.4-1.1c-0.4-0.4-0.4-0.4-0.7-0.4c0.4,0,0.7-0.4,1.1-0.4
	h0.7c0.8-0.3,1.9,0.1,2.2,0.9c0,0.1,0.1,0.1,0.1,0.2c0,0.8-0.4,1.6-1.1,1.9c0.4,0,0.8,0.1,1.1,0.4c0.4,0.4,0.7,0.7,0.7,1.1
	c0,0.6-0.3,1.1-0.7,1.6c0.4,0.4-0.4,0.7-0.7,0.7c0,0.4-0.7,0.4-0.7,0.4c-0.5,0-1,0.1-1.6,0.4v-0.4c0,0,0.7,0,0.7-0.4v-1.1
	C32.8,115.3,32,111.6,32,111.6z M27.1,112.7c0-0.4-0.4-1.1-0.4-1.6c0-0.4-0.4-0.4-0.7,0v-0.4h2.3c0.7,0,1.9,0,2.3,1.1
	c0.4,0.7,0,1.6-0.7,1.6c0.4,0,0.8,0.1,1.1,0.4c0.4,0.4,0.7,0.7,0.7,1.1c0,0.7,0,1.1-0.7,1.6c-0.4,0.3-1,0.4-1.6,0.4h-1.1
	c-0.7,0-0.7,0.4-1.6,0.4V117c0.4,0,0.7,0,0.7-0.4S27,115.5,27,115C27,115,27.1,112.7,27.1,112.7z M78.6,113.6l-0.4-2.7l-1.1,2.7
	H78.6z M89,112.7v-1.1c-0.2-0.2-0.5-0.3-0.7-0.4v-0.4h2.3v0.4c-0.4,0-0.4,0-0.7,0.4v1.6l0.4,2.7v1.6c0,0.4,0.4,0.4,0.7,0.4h-2.3
	c0,0,0.7,0,0.7-0.4v-1.1L89,112.7z M82.9,112.4v-1.6c0-0.4-0.4-0.4-0.7-0.4V110c0.4,0,0.7,0.4,1.1,0.4h1.6v0.4c0,0-0.7,0-0.7,0.4
	c0.1,0.5-0.1,1-0.4,1.6l-0.4,3c0,1.1,0,1.6,0.7,1.6s0.7,0.4,1.1,0s0.7-0.7,0.7-1.1h0.4l-0.3,1.9h-0.4c-1.6-0.4-3-0.4-4.6-0.7
	c0.4,0,0.7,0,0.7-0.4c-0.1-0.4,0.1-0.8,0.4-1.1C82.1,116,82.9,112.4,82.9,112.4z M76.3,113.9c-0.1,0.6-0.4,1.1-0.7,1.6
	c-0.4,0.4,0.4,0.4,0.7,0.7h-0.7c-0.3-0.2-0.7-0.3-1.1-0.4c0.4,0,0.7-0.3,0.7-0.7s0.7-1.1,0.7-1.9l1.9-3.8h0.4l0.7,5.3
	c0,0.4,0,1.1,0.4,1.1s0.4,0.4,0.7,0.4h-1.1c-0.4,0-0.7-0.4-1.1-0.4v-0.4h0.7V113h-2.3C76.2,113,76.3,113.9,76.3,113.9z M75.9,110.4
	c0-0.7,0-1.1-1.1-1.6c-1.1-0.4-0.7,0-0.7,0l-0.7,4.6c0,0.7,0,0.7,0.7,1.1v0.4c-0.5,0.1-1-0.1-1.6-0.4h-1.6v-0.4c0.7,0,1.1,0,1.1-0.7
	l0.7-4.6c-0.2-0.2-0.5-0.3-0.7-0.4c-0.7,0-1.1,0-1.6,1.1H70l0.4-1.6l5.4,0.7C75.9,108.8,75.9,110.4,75.9,110.4z M67.9,109.7v-1.1
	c0-0.4-0.4-0.4-0.7-0.4v-0.4c0.4,0,0.7,0.4,1.1,0.4h1.6c0,0-0.7,0-0.7,0.4c0.1,0.4-0.1,0.8-0.4,1.1l-0.4,2.7c0,0.4-0.4,0.7,0,1.1
	c0,0.4,0.4,0.4,0.7,0.4v0.4c-0.4,0-0.7-0.4-1.1-0.4s-0.8-0.1-1.1-0.4v-0.4c0.4,0,0.7,0,0.7-0.4c0.3-0.3,0.4-0.7,0.4-1.1
	C67.9,111.6,67.9,109.7,67.9,109.7z M105.4,104.8l-2.3-1.6l0.7,2.7C103.8,105.9,105.4,104.8,105.4,104.8z M94.7,112.4l-1.9-1.9
	l0.4,2.7C93.2,113.2,94.7,112.4,94.7,112.4z M104.2,106.7c0,0.4,0.4,1.1,0.4,1.6c0.4,0.4,0.7,0,0.7-0.4v0.7
	c-0.4,0.4-0.4,0.4-0.7,0.4s-0.4,0.4-0.7,0.4V109c0.4-0.4,0.4-0.4,0.4-0.7c-0.4-0.7-0.4-1.1-0.7-1.9l-1.1-4.1l4.6,3
	c0.2,0.2,0.5,0.3,0.7,0.4c0.2,0.2,0.5,0.2,0.7,0v0.4c-0.4,0-0.7,0.3-0.7,0.7c-0.4,0.4-0.7,0.4-0.7,0.7l-0.4-0.4
	c0-0.4,0.4-0.4,0.4-0.7s-0.4-0.4-0.7-0.4l-0.7-0.7l-1.9,1.1L104.2,106.7L104.2,106.7z M96.5,107.8c-0.2-0.3-0.7-0.4-1-0.1
	c-0.1,0-0.1,0.1-0.1,0.1v-0.4c0.4,0,0.4,0,0.7-0.4c0.4,0,0.4,0,0.7-0.4l6.1,1.9l-1.9-2.3c-0.4-0.4-0.7-0.7-0.7-1.1s-0.7,0-1.1,0
	c0.2-0.2,0.5-0.3,0.7-0.4c0-0.4,0-0.7,0.4-0.7v0.4c0,0.4-0.4,0.4-0.4,0.7s0.7,1.1,1.1,1.6l2.3,3.4v0.4c-0.4,0-0.7,0-0.7-0.4
	L96.5,107.8l2,2.6c0.4,0.4,0.7,0.7,0.7,1.1c0.4,0.4,0.7,0,1.1,0c0,0.4-0.4,0.4-0.7,0.7c-0.4,0-0.4,0.4-0.7,0.7v-0.4
	c0.3-0.3,0.4-0.7,0.4-1.1s-0.4-0.7-0.7-1.1L96.5,107.8L96.5,107.8z M93.5,113.9c-0.1,0.5,0.1,1,0.4,1.6c0,0.4,0.7,0,0.7,0
	c-0.4,0-0.4,0.4-0.7,0.4s-0.4,0.4-0.7,0.4c0.4-0.4,0.4-0.4,0.4-1.1c0.1-0.6,0-1.3-0.4-1.9l-0.7-4.1l3.8,3.4l0.7,0.7h0.7
	c-0.4,0-0.7,0.4-1.1,0.7c-0.4,0-0.7,0.4-1.1,0.7v-0.4c0.4,0,0.7-0.4,0.4-0.7c0-0.4-0.4-0.4-0.7-0.7l-0.7-0.7l-1.9,0.7v0.4
	C92.6,113.2,93.5,113.9,93.5,113.9L93.5,113.9z"/>
<path class="st1" d="M14.9,69.9c-0.2-1-0.6-2.1-1.1-3v-0.4l3.4-1.9c-0.4-1.7-0.6-3.2-0.7-5l-3.8-0.8v-6l3.8-0.7
	c0.1-1.7,0.3-3.3,0.7-5L15.3,46h1.1l1.6,0.7v0.5c-0.4,1.8-0.7,3.5-0.7,5.3v0.4l-3.8,0.7v4.6l3.8,0.7v0.4c0,1.8,0.3,3.5,0.7,5.3V65
	l-3.5,1.9l0.7,2.3C15.2,69.2,14.9,69.9,14.9,69.9z M21.8,81.3l1.1,1.1l3.4-1.6h0.4c1.1,1.3,2.5,2.6,3.8,3.8L29,88.5
	c1,1,2.2,1.9,3.4,2.7l3-2.7h0.4c1.6,1.1,3.2,2,5,2.7h0.4l-0.4,4.1c1.1,0.4,3.4,1.1,4.1,1.6l1.9-3.4h0.4c1.8,0.4,3.5,0.7,5.4,0.8H53
	l0.7,3.8h4.6l0.7-3.8h0.4c1.8-0.1,3.6-0.3,5.4-0.7l1.9,3.4l4.1-1.6l-0.4-3.8h0.4c1.8-0.7,3.4-1.7,5-2.7l0.4-0.4l3,2.7l3.8-2.7
	l-1.6-3.8H82c1.5-1,2.7-2.4,3.8-3.8v-0.4l3.8,1.9c1-1.2,1.9-2.5,2.7-3.8l-2.7-3v-0.2c0.7-1.6,1.9-3,2.7-5V70l3.8,0.4
	c0.4-1.1,1.1-3.4,1.6-4.1l-3.4-1.9V64c0.4-1.8,0.7-3.5,0.7-5.3v-0.4l3.8-0.7V53L95,52.3v-0.4c-0.1-1.8-0.3-3.5-0.7-5.3v-0.4l3.4-1.9
	c-0.4-1.1-1.1-3.4-1.6-4.1l-3.8,0.4v-0.4c-0.6-1.8-1.6-3.4-2.7-5v0.4l2.7-3c-0.7-0.7-1.9-3-2.7-3.7l-3.8,1.6c-1-1.5-2.4-2.7-3.8-3.7
	L81.6,26l1.6-3.7l-3.8-2.7l-3,2.7H76c-1.6-0.7-3.4-1.6-5-2.3h-0.4l0.4-3.7c-0.7-0.4-3.4-1.1-4.1-1.6L65,18.1h-0.4
	c-1.8-0.4-3.5-0.7-5.4-0.7h-0.4l-0.6-3.9h-4.1l-0.7,3.7h-0.5c-1.8,0.1-3.6,0.3-5.4,0.7h-0.4L45,14.5c-0.7,0.4-3.4,1.1-4.1,1.6
	l0.4,3.7h-0.4l-4.6,2.4h-0.4l-3-2.7c-0.7,0.4-1.1,1.1-1.6,1.6V20l1.6-1.1h0.3l2.7,2.7l4.6-2.3L39.7,15h0.4c1.6-0.7,3.2-1.1,5-1.6
	h0.4l1.9,3.4c1.7-0.4,3.3-0.7,5-0.7l0.7-3.7h5.7l0.7,3.7c1.7,0.1,3.3,0.3,5,0.7l1.9-3.4h0.4c0.7,0.4,4.1,1.1,5,1.6h0.4v3.8l4.7,2.3
	l3-2.6h0.4c1.2,1.1,2.5,2.1,3.8,3l-1.6,3.7l3.4,3.4l3.8-1.6v0.4c0.4,0.7,2.7,3.4,3,4.1v0.4l-2.7,3l2.3,4.6l3.8-0.4v0.4
	c0.7,1.6,1.1,3.2,1.6,5v-0.3l-3.4,1.9c0.4,1.7,0.7,3.2,0.7,5l3.8,0.7v6.6l-3.5,0.7c-0.1,1.7-0.3,3.3-0.7,5L98,66v0.4
	c-0.3,1.7-0.8,3.3-1.6,5V72l-4.1-0.4L90,76.2l2.7,3v0.7c-0.4,0.7-2.7,3.4-3,4.1v0.4L86,82.9l-3.4,3.4l1.9,3.8H84
	c-0.7,0.4-3.4,2.7-4.1,3l-0.4,0.4l-3.1-3.4l-4.6,2.3l0.4,4.1h-0.4l-5,1.6h-0.4l-1.9-3.4c-1.7,0.4-3.3,0.7-5,0.7l-0.7,3.8h-6
	l-0.7-3.8c-1.6-0.4-3.4-0.4-5-0.7l-1.9,3.4h-0.4c-1.6-0.7-3.2-1.1-5-1.6h-0.4l0.4-4.1l-4.6-2.3l-3,2.7H33c-0.7-0.4-3.4-2.7-4.1-3
	h-0.4l1.5-3.7l-3.5-3.6l-4,1.5v-0.4L21.8,82L21.8,81.3L21.8,81.3z"/>
<path class="st1" d="M56.1,87.7c-4.7-0.1-9.1-1.1-13.4-3H42l14.1-17.4l13.7,17.4l-0.7,0.4C65,86.9,60.6,87.7,56.1,87.7z M43.6,84.3
	c7.9,3.4,16.9,3.4,24.8,0L56.1,68.8C56.1,68.8,43.6,84.3,43.6,84.3z M79.4,77.9L66.8,59.3l20.9-7.6v0.7c1.1,9.1-2,18.4-8.4,25
	C79.3,77.5,79.4,77.9,79.4,77.9z M68.3,59.7l11.1,16.7C85,70,87.8,61.7,87,53.3C87,53.3,68.3,59.7,68.3,59.7z M32.8,77.9l-0.4-0.4
	c-6.1-6.7-9.1-15.9-8-25v-0.7l20.9,8C45.3,59.7,32.8,77.9,32.8,77.9z M25.2,52.9c-0.8,8.4,2,16.8,7.7,23.1l11.4-16.3L25.2,52.9z
	 M62.6,46.9l-0.7-22.3h0.7c9,1.9,16.8,7.5,21.4,15.6l0.4,0.4C84.4,40.6,62.6,46.9,62.6,46.9z M62.9,26l0.7,19.7l19.5-5.3
	C78.6,33.1,71.3,28,62.9,26z M49.3,46.9l-21.4-6.4l0.4-0.4c4.6-8,12.3-13.5,21.4-15.1h0.7C50.4,24.9,49.3,46.9,49.3,46.9z M29.3,40
	l19.1,5.7L49.2,26C40.9,27.5,34,32.8,29.3,40z"/>
<path class="st1" d="M56.1,27.2l-6.8,19.3v0.4h-0.4l-20.6,0.3l16.4,12.4L45,60v0.4l-5.7,19.3l16.8-11.4l0.4-0.4l0.4,0.4l16.8,11.4
	L68,60.5v-1.1l0.4-0.4l16.4-12.4L64.2,46h-0.4v-0.4C63.8,45.6,56.1,27.2,56.1,27.2z M48.5,45.7l7.3-20.4l0.4-1.1l0.4,1.1l7.3,20.1
	l21.4,0.4h1.6l-1.1,0.7L68.3,59.3l6.1,20.4l0.4,1.1l-1.2-0.7L56.1,68L38.6,80.2l-1.1,0.7l0.4-1.6L44,58.8L26.8,46.9l-1.1-0.7h1.1
	C26.8,46.2,48.5,45.7,48.5,45.7z"/>
<path class="st1" d="M18.4,88.1"/>
<path class="st1" d="M16.4,84.7l1.9,3.4L16.4,84.7z"/>
<line class="st2" x1="543.8" y1="0" x2="543.8" y2="128.9"/>
<path class="st1" d="M566.1,45.5l12.2-44.3H589l12.2,44.3h-4.9l-3.2-11.4h-18.9L571,45.5H566.1z M582,5.5l-6.7,24.3H592l-6.7-24.3
	H582z"/>
<path class="st1" d="M619.1,60.6c-5.1,0-8.7-0.7-10.7-2.1c-2-1.4-3-3.9-3-7.6c0-1.8,0.4-3.2,1.2-4.3c0.8-1.1,2.1-2.3,3.9-3.7
	c-1.2-0.8-1.8-2.3-1.8-4.4c0-0.7,0.5-2.1,1.6-4l0.6-1c-3.4-1.5-5.1-4.8-5.1-9.7c0-7.3,4-10.9,12-10.9c2,0,3.9,0.2,5.7,0.6l1,0.2
	l9.5-0.3v4.1l-6.1-0.1c1.4,1.4,2.1,3.5,2.1,6.4c0,4-1,6.8-3,8.4c-2,1.6-5.1,2.4-9.4,2.4c-1.2,0-2.2-0.1-3.1-0.3
	c-0.8,1.9-1.2,3.1-1.2,3.6c0,1.3,0.4,2.1,1.2,2.5c0.8,0.3,3.3,0.5,7.4,0.5c4.1,0,7,0.6,8.8,1.9s2.7,3.8,2.7,7.5
	C633.3,57.2,628.6,60.6,619.1,60.6z M610.1,50.5c0,2.3,0.6,3.8,1.9,4.7c1.3,0.9,3.6,1.3,7,1.3c3.4,0,5.8-0.5,7.3-1.4
	c1.5-0.9,2.2-2.5,2.2-4.7c0-2.2-0.5-3.6-1.6-4.3c-1.1-0.6-3.2-1-6.3-1l-6.9-0.3c-1.4,1-2.4,1.9-2.8,2.7
	C610.3,48.4,610.1,49.3,610.1,50.5z M610.5,23.8c0,2.5,0.6,4.3,1.7,5.4c1.1,1.1,3,1.6,5.6,1.6s4.5-0.5,5.6-1.6
	c1.1-1.1,1.7-2.9,1.7-5.4c0-2.5-0.6-4.3-1.7-5.4c-1.1-1.1-3-1.6-5.6-1.6s-4.5,0.5-5.6,1.6C611.1,19.5,610.5,21.3,610.5,23.8z"/>
<path class="st1" d="M661.4,41.6l1.9-0.2l0.1,3.8c-4.9,0.7-9,1-12.5,1c-4.6,0-7.9-1.3-9.8-4c-1.9-2.7-2.9-6.8-2.9-12.4
	c0-11.2,4.5-16.8,13.4-16.8c4.3,0,7.5,1.2,9.7,3.6c2.1,2.4,3.2,6.2,3.2,11.4l-0.3,3.6h-21.1c0,3.5,0.6,6.2,1.9,7.9
	c1.3,1.7,3.5,2.6,6.7,2.6C654.9,42,658.1,41.8,661.4,41.6z M659.7,27.7c0-3.9-0.6-6.7-1.9-8.3c-1.3-1.6-3.3-2.4-6.1-2.4
	c-2.8,0-5,0.9-6.4,2.6c-1.4,1.7-2.2,4.4-2.2,8.2H659.7z"/>
<path class="st1" d="M676.8,45.5H672v-32h4.7v2.2c3.5-1.9,6.8-2.9,9.9-2.9c4.3,0,7.1,1.2,8.6,3.5c1.5,2.3,2.2,6.4,2.2,12.3v16.9
	h-4.7V28.8c0-4.4-0.4-7.5-1.3-9.1c-0.9-1.6-2.7-2.5-5.6-2.5c-1.4,0-2.8,0.2-4.3,0.6c-1.5,0.4-2.7,0.8-3.5,1.2l-1.2,0.6V45.5z"/>
<path class="st1" d="M704.4,17.8v-4.3h23.7v4.3l-17.9,23.4h17.9v4.3h-23.7v-4.3l17.9-23.4H704.4z"/>
<path class="st1" d="M735.5,6.3V0.7h4.8v5.6H735.5z M735.5,45.5v-32h4.8v32H735.5z"/>
<path class="st1" d="M772.1,23.2v16.4c0.1,1.6,1.4,2.5,3.7,2.8l-0.2,3.8c-3.4,0-5.9-0.9-7.6-2.6c-3.8,1.7-7.7,2.6-11.5,2.6
	c-2.9,0-5.2-0.8-6.7-2.5s-2.3-4.1-2.3-7.2c0-3.1,0.8-5.4,2.4-6.9c1.6-1.5,4.1-2.4,7.4-2.7l10-1v-2.8c0-2.2-0.5-3.7-1.4-4.7
	c-0.9-0.9-2.2-1.4-3.8-1.4c-3.4,0-7,0.2-10.6,0.6l-2,0.2l-0.2-3.6c4.7-0.9,8.9-1.4,12.5-1.4c3.6,0,6.3,0.8,7.9,2.5
	C771.2,17.1,772.1,19.7,772.1,23.2z M752.3,36.3c0,3.9,1.6,5.9,4.9,5.9c2.9,0,5.8-0.5,8.6-1.5l1.5-0.5V29.6l-9.5,0.9
	c-1.9,0.2-3.3,0.7-4.2,1.7C752.8,33.1,752.3,34.5,752.3,36.3z"/>
<path class="st1" d="M795.6,59.8V13.5h4.7v2.3c3.2-2,6.4-2.9,9.6-2.9c4.1,0,7,1.3,8.8,3.9c1.8,2.6,2.8,6.8,2.8,12.8
	c0,5.9-1.1,10.2-3.2,12.8c-2.2,2.6-5.7,3.9-10.7,3.9c-2.6,0-5-0.2-7.2-0.7v14.3H795.6z M809.2,17.2c-1.3,0-2.7,0.2-4.1,0.6
	c-1.5,0.4-2.6,0.9-3.5,1.3l-1.2,0.6v21.6c3,0.5,5.3,0.7,6.9,0.7c3.5,0,5.9-1,7.3-2.9c1.4-2,2.1-5.2,2.1-9.6c0-4.4-0.6-7.6-1.9-9.5
	C813.5,18.1,811.7,17.2,809.2,17.2z"/>
<path class="st1" d="M851.1,41.6l1.9-0.2l0.1,3.8c-4.9,0.7-9,1-12.5,1c-4.6,0-7.9-1.3-9.8-4c-1.9-2.7-2.9-6.8-2.9-12.4
	c0-11.2,4.5-16.8,13.4-16.8c4.3,0,7.5,1.2,9.7,3.6c2.1,2.4,3.2,6.2,3.2,11.4l-0.3,3.6h-21.1c0,3.5,0.6,6.2,1.9,7.9
	c1.3,1.7,3.5,2.6,6.7,2.6C844.6,42,847.8,41.8,851.1,41.6z M849.4,27.7c0-3.9-0.6-6.7-1.9-8.3c-1.3-1.6-3.3-2.4-6.1-2.4
	c-2.8,0-5,0.9-6.4,2.6c-1.4,1.7-2.2,4.4-2.2,8.2H849.4z"/>
<path class="st1" d="M861.7,45.5v-32h4.7v4.4c3.7-2.6,7.6-4.2,11.7-5.1v4.9c-1.8,0.3-3.7,0.9-5.6,1.6c-1.9,0.7-3.4,1.4-4.4,1.9
	l-1.6,0.8v23.5H861.7z"/>
<path class="st1" d="M569.6,118.5v-46h4.8v46H569.6z"/>
<path class="st1" d="M582.8,86.2l2.8-14h5.1l-4.1,14H582.8z"/>
<path class="st1" d="M598.6,118.5V74.3h4.9v44.3H598.6z"/>
<path class="st1" d="M630.1,90.7h-10.2V106c0,3.7,0.3,6.1,0.8,7.2c0.5,1.2,1.8,1.7,3.8,1.7l5.7-0.4l0.3,4c-2.9,0.5-5,0.7-6.5,0.7
	c-3.3,0-5.6-0.8-6.9-2.4c-1.3-1.6-1.9-4.7-1.9-9.3V90.7h-4.5v-4.2h4.5v-9.8h4.7v9.8h10.2V90.7z"/>
<path class="st1" d="M658.6,96.2v16.4c0.1,1.6,1.4,2.5,3.7,2.8l-0.2,3.8c-3.4,0-5.9-0.9-7.6-2.6c-3.8,1.7-7.7,2.6-11.5,2.6
	c-2.9,0-5.2-0.8-6.7-2.5c-1.5-1.7-2.3-4.1-2.3-7.2c0-3.1,0.8-5.4,2.4-6.9c1.6-1.5,4.1-2.4,7.4-2.7l10-1v-2.8c0-2.2-0.5-3.7-1.4-4.7
	c-0.9-0.9-2.2-1.4-3.8-1.4c-3.4,0-7,0.2-10.6,0.6l-2,0.2l-0.2-3.6c4.7-0.9,8.9-1.4,12.5-1.4c3.6,0,6.3,0.8,7.9,2.5
	C657.8,90.1,658.6,92.7,658.6,96.2z M638.9,109.3c0,3.9,1.6,5.9,4.9,5.9c2.9,0,5.8-0.5,8.6-1.5l1.5-0.5v-10.6l-9.5,0.9
	c-1.9,0.2-3.3,0.7-4.2,1.7C639.3,106.1,638.9,107.5,638.9,109.3z"/>
<path class="st1" d="M668.4,118.5v-46h4.8v46H668.4z"/>
<path class="st1" d="M682.8,79.3v-5.6h4.8v5.6H682.8z M682.8,118.5v-32h4.8v32H682.8z"/>
<path class="st1" d="M719.5,96.2v16.4c0.1,1.6,1.4,2.5,3.7,2.8l-0.2,3.8c-3.4,0-5.9-0.9-7.6-2.6c-3.8,1.7-7.7,2.6-11.5,2.6
	c-2.9,0-5.2-0.8-6.7-2.5c-1.5-1.7-2.3-4.1-2.3-7.2c0-3.1,0.8-5.4,2.4-6.9c1.6-1.5,4.1-2.4,7.4-2.7l10-1v-2.8c0-2.2-0.5-3.7-1.4-4.7
	c-0.9-0.9-2.2-1.4-3.8-1.4c-3.4,0-7,0.2-10.6,0.6l-2,0.2l-0.2-3.6c4.7-0.9,8.9-1.4,12.5-1.4c3.6,0,6.3,0.8,7.9,2.5
	C718.6,90.1,719.5,92.7,719.5,96.2z M699.7,109.3c0,3.9,1.6,5.9,4.9,5.9c2.9,0,5.8-0.5,8.6-1.5l1.5-0.5v-10.6l-9.5,0.9
	c-1.9,0.2-3.3,0.7-4.2,1.7C700.2,106.1,699.7,107.5,699.7,109.3z"/>
<path class="st1" d="M767.6,72.6v46h-4.7v-2.2c-3.3,1.9-6.5,2.8-9.7,2.8c-1.7,0-3.2-0.2-4.5-0.6c-1.3-0.4-2.5-1.2-3.6-2.3
	c-2.3-2.3-3.5-6.6-3.5-12.8s1-10.7,3.1-13.4s5.5-4.1,10.3-4.1c2.5,0,5.1,0.3,7.9,0.8V72.6H767.6z M750.9,114.4
	c0.8,0.3,1.8,0.4,3,0.4c1.2,0,2.6-0.2,4.1-0.6c1.5-0.4,2.7-0.8,3.6-1.2l1.3-0.6V90.8c-2.7-0.5-5.3-0.8-7.6-0.8c-3.2,0-5.5,1-6.8,3.1
	c-1.3,2.1-1.9,5.3-1.9,9.6c0,5,0.7,8.3,2.2,10C749.4,113.6,750.2,114.2,750.9,114.4z"/>
<path class="st1" d="M776.9,79.3v-5.6h4.8v5.6H776.9z M776.9,118.5v-32h4.8v32H776.9z"/>
<path class="st1" d="M803.2,133.6c-5.1,0-8.7-0.7-10.7-2.1c-2-1.4-3-3.9-3-7.6c0-1.8,0.4-3.2,1.2-4.3c0.8-1.1,2.1-2.3,3.9-3.7
	c-1.2-0.8-1.8-2.3-1.8-4.4c0-0.7,0.5-2.1,1.6-4l0.6-1c-3.4-1.5-5.1-4.8-5.1-9.7c0-7.3,4-10.9,12-10.9c2,0,3.9,0.2,5.7,0.6l1,0.2
	l9.5-0.3v4.1l-6.1-0.1c1.4,1.4,2.1,3.5,2.1,6.4c0,4-1,6.8-3,8.4c-2,1.6-5.1,2.4-9.4,2.4c-1.2,0-2.2-0.1-3.1-0.3
	c-0.8,1.9-1.2,3.1-1.2,3.6c0,1.3,0.4,2.1,1.2,2.5c0.8,0.3,3.3,0.5,7.4,0.5c4.1,0,7,0.6,8.8,1.9s2.7,3.8,2.7,7.5
	C817.4,130.2,812.7,133.6,803.2,133.6z M794.2,123.5c0,2.3,0.6,3.8,1.9,4.7c1.3,0.9,3.6,1.3,7,1.3c3.4,0,5.8-0.5,7.3-1.4
	c1.5-0.9,2.2-2.5,2.2-4.7c0-2.2-0.5-3.6-1.6-4.3c-1.1-0.6-3.2-1-6.3-1l-6.9-0.3c-1.4,1-2.4,1.9-2.8,2.7
	C794.4,121.4,794.2,122.3,794.2,123.5z M794.6,96.8c0,2.5,0.6,4.3,1.7,5.4c1.1,1.1,3,1.6,5.6,1.6s4.5-0.5,5.6-1.6
	c1.1-1.1,1.7-2.9,1.7-5.4s-0.6-4.3-1.7-5.4c-1.1-1.1-3-1.6-5.6-1.6s-4.5,0.5-5.6,1.6C795.2,92.5,794.6,94.3,794.6,96.8z"/>
<path class="st1" d="M823.8,79.3v-5.6h4.8v5.6H823.8z M823.8,118.5v-32h4.8v32H823.8z"/>
<path class="st1" d="M854.4,90.7h-10.2V106c0,3.7,0.3,6.1,0.8,7.2c0.5,1.2,1.8,1.7,3.8,1.7l5.7-0.4l0.3,4c-2.9,0.5-5,0.7-6.5,0.7
	c-3.3,0-5.6-0.8-6.9-2.4c-1.3-1.6-1.9-4.7-1.9-9.3V90.7h-4.5v-4.2h4.5v-9.8h4.7v9.8h10.2V90.7z"/>
<path class="st1" d="M882.8,96.2v16.4c0.1,1.6,1.4,2.5,3.7,2.8l-0.2,3.8c-3.4,0-5.9-0.9-7.6-2.6c-3.8,1.7-7.7,2.6-11.5,2.6
	c-2.9,0-5.2-0.8-6.7-2.5c-1.5-1.7-2.3-4.1-2.3-7.2c0-3.1,0.8-5.4,2.4-6.9c1.6-1.5,4.1-2.4,7.4-2.7l10-1v-2.8c0-2.2-0.5-3.7-1.4-4.7
	c-0.9-0.9-2.2-1.4-3.8-1.4c-3.4,0-7,0.2-10.6,0.6l-2,0.2l-0.2-3.6c4.7-0.9,8.9-1.4,12.5-1.4c3.6,0,6.3,0.8,7.9,2.5
	C882,90.1,882.8,92.7,882.8,96.2z M863.1,109.3c0,3.9,1.6,5.9,4.9,5.9c2.9,0,5.8-0.5,8.6-1.5l1.5-0.5v-10.6l-9.5,0.9
	c-1.9,0.2-3.3,0.7-4.2,1.7C863.6,106.1,863.1,107.5,863.1,109.3z"/>
<path class="st1" d="M892.7,118.5v-46h4.8v46H892.7z"/>
<path class="st1" d="M928.9,114.6l1.9-0.2l0.1,3.8c-4.9,0.7-9,1-12.5,1c-4.6,0-7.9-1.3-9.8-4c-1.9-2.7-2.9-6.8-2.9-12.4
	c0-11.2,4.5-16.8,13.4-16.8c4.3,0,7.5,1.2,9.7,3.6c2.1,2.4,3.2,6.2,3.2,11.4l-0.3,3.6h-21.1c0,3.5,0.6,6.2,1.9,7.9
	c1.3,1.7,3.5,2.6,6.7,2.6C922.3,115,925.6,114.8,928.9,114.6z M927.1,100.7c0-3.9-0.6-6.7-1.9-8.3c-1.3-1.6-3.3-2.4-6.1-2.4
	c-2.8,0-5,0.9-6.4,2.6c-1.4,1.7-2.2,4.4-2.2,8.2H927.1z"/>
</svg>
