<?xml version="1.0" encoding="utf-8"?>
<!-- Generator: Adobe Illustrator 19.0.0, SVG Export Plug-In . SVG Version: 6.00 Build 0)  -->
<svg version="1.1" id="Capa_1" xmlns="http://www.w3.org/2000/svg" xmlns:xlink="http://www.w3.org/1999/xlink" x="0px" y="0px"
	 viewBox="-164 42.3 512 512" style="enable-background:new -164 42.3 512 512;" xml:space="preserve">
<style type="text/css">
	.st0{fill:#0066CC;}
</style>
<g>
	<g>
		<path class="st0" d="M229.1,334.8h-18.3c-2.7,0-4.9,0.9-6.6,2.6c-1.7,1.7-2.6,3.9-2.6,6.6v91.4c0,12.6-4.5,23.3-13.4,32.3
			c-9,9-19.7,13.4-32.3,13.4H-81.7c-12.6,0-23.3-4.5-32.3-13.4c-9-9-13.4-19.7-13.4-32.3V197.7c0-12.6,4.5-23.3,13.4-32.3
			c9-9,19.7-13.4,32.3-13.4h201.1c2.7,0,4.9-0.9,6.6-2.6c1.7-1.7,2.6-3.9,2.6-6.6v-18.3c0-2.7-0.9-4.9-2.6-6.6
			c-1.7-1.7-3.9-2.6-6.6-2.6H-81.7c-22.7,0-42,8-58.1,24.1C-156,155.7-164,175-164,197.7v237.7c0,22.7,8,42,24.1,58.1
			c16.1,16.1,35.5,24.1,58.1,24.1H156c22.7,0,42-8.1,58.1-24.1c16.1-16.1,24.1-35.5,24.1-58.1V344c0-2.7-0.9-4.9-2.6-6.6
			C234,335.7,231.8,334.8,229.1,334.8z"/>
		<path class="st0" d="M342.6,84.3c-3.6-3.6-7.9-5.4-12.9-5.4H183.4c-5,0-9.2,1.8-12.9,5.4c-3.6,3.6-5.4,7.9-5.4,12.9
			c0,5,1.8,9.2,5.4,12.9l50.3,50.3L34.6,346.6c-1.9,1.9-2.9,4.1-2.9,6.6c0,2.5,1,4.7,2.9,6.6l32.6,32.6c1.9,1.9,4.1,2.9,6.6,2.9
			s4.7-0.9,6.6-2.9L266.6,206l50.3,50.3c3.6,3.6,7.9,5.4,12.9,5.4c5,0,9.2-1.8,12.9-5.4c3.6-3.6,5.4-7.9,5.4-12.9V97.1
			C348,92.2,346.2,87.9,342.6,84.3z"/>
	</g>
</g>
</svg>
