<?xml version="1.0" encoding="utf-8"?>
<!-- Generator: Adobe Illustrator 26.2.1, SVG Export Plug-In . SVG Version: 6.00 Build 0)  -->
<svg version="1.1" id="Livello_1" xmlns="http://www.w3.org/2000/svg" xmlns:xlink="http://www.w3.org/1999/xlink" x="0px" y="0px"
	 viewBox="0 0 608 181.8" style="enable-background:new 0 0 608 181.8;" xml:space="preserve">
<style type="text/css">
	.st0{fill:#6DC499;}
	.st1{fill:#FFFFFF;}
	.st2{fill:#143257;}
	.st3{fill:#71C597;}
	.st4{fill:#117BB9;}
</style>
<g>
	<circle class="st0" cx="508.7" cy="90.9" r="76.8"/>
</g>
<g>
	<path class="st1" d="M462.8,50.2H477v78.2h-14.2V50.2z"/>
	<path class="st1" d="M562,89.2c0,6.8-1.1,12.7-3.2,17.7c-2.1,5-5.1,9.2-9,12.5s-8.5,5.8-14,7.4s-11.5,2.4-18.1,2.4
		c-3.2,0-6.7-0.1-10.7-0.4c-4-0.3-7.8-0.8-11.4-1.6V51.3c3.6-0.8,7.4-1.4,11.5-1.6c4.1-0.2,7.7-0.3,10.8-0.3
		c6.5,0,12.5,0.8,17.9,2.3s10.1,3.9,13.9,7.2c3.9,3.3,6.9,7.4,9,12.4C561,76.3,562,82.3,562,89.2z"/>
</g>
<path class="st2" d="M79.5,93.2L79.5,93.2c1.8-5.4-0.2-11.5-4.9-14.9c-4.7-3.4-11-3.4-15.7,0s-6.6,9.4-4.9,14.9
	c1.8,5.5,6.9,9.2,12.7,9.2C72.5,102.4,77.7,98.7,79.5,93.2"/>
<polygon class="st3" points="88.8,50.9 71.7,50.9 63.1,65.7 80.3,65.7 88.9,80.5 97.5,65.6 "/>
<polygon class="st4" points="89.1,97.7 80.4,112.6 63.3,112.6 71.9,127.3 89.1,127.3 97.7,112.5 "/>
<polygon class="st4" points="30.9,74.3 22.4,89.2 31,104 48.2,104 39.6,89.2 48.1,74.3 "/>
<rect x="119.3" y="50.9" class="st2" width="14" height="76.6"/>
<path class="st2" d="M190,74.6c-4-3.2-9.9-4.7-17.9-4.7c-8.7,0-18.7,1.8-26.8,4.9h-0.1v52.7h13.3V83.1c3.6-1,8.1-1.6,12.6-1.6
	c8.2,0,12.4,3.6,12.4,10.9v35.1h13.1V91.3C196.6,83.6,194.5,78.2,190,74.6"/>
<path class="st2" d="M238.2,116.6c-1.9,0.6-4.1,0.7-6.5,0.7c-3.6,0-6.1-1-7.6-3c-1.5-2.1-2.2-5.4-2.2-10.1V80.3h20.8V69h-20.8V51.3
	l-13.5,2.2v50.8c0,3.9,0.4,7.3,1,10.4c0.7,3,1.8,5.6,3.5,7.8c1.7,2.2,3.8,3.7,6.6,4.9c2.8,1.1,6.3,1.7,10.5,1.7c3.5,0,6.4-0.4,8.9-1
	c2.5-0.7,4.6-1.4,6.2-2.1l-2.2-10.8C241.6,115.6,240.1,116,238.2,116.6"/>
<path class="st2" d="M265.5,92.9c0.2-1.7,0.7-3.4,1.2-5c0.6-1.6,1.4-3.1,2.5-4.3c1.1-1.2,2.4-2.2,3.9-3.1c1.6-0.7,3.4-1.1,5.4-1.1
	c2.1,0,3.7,0.4,5.1,1c1.4,0.7,2.7,1.7,3.6,2.9c1,1.2,1.8,2.6,2.2,4.3c0.6,1.7,0.7,3.5,0.7,5.2L265.5,92.9L265.5,92.9z M278.5,68.3
	c-3.5,0-6.7,0.7-10,2s-6.2,3.2-8.7,5.8c-2.5,2.5-4.6,5.7-6.1,9.6s-2.3,8.3-2.3,13.4c0,4.4,0.6,8.3,1.8,12.1c1.2,3.7,3,6.8,5.4,9.5
	s5.6,4.8,9.4,6.4c3.8,1.5,8.2,2.2,13.4,2.2c2,0,4-0.1,5.9-0.4c2-0.2,3.7-0.5,5.4-0.8c1.7-0.4,3.2-0.7,4.5-1.1s2.3-0.7,3.1-1.1
	l-1.8-10.9c-1.6,0.7-3.7,1.3-6.5,1.9c-2.7,0.6-5.7,0.8-9,0.8c-5.6,0-9.8-1.3-12.7-3.8c-2.9-2.5-4.6-6.2-5-10.8h38.4
	c0.1-0.7,0.1-1.6,0.2-2.5c0-0.9,0.1-1.8,0.1-2.5c0-9.8-2.2-17.2-6.7-22.2C292.8,70.8,286.6,68.3,278.5,68.3"/>
<path class="st2" d="M352.5,100.7c-1.5-1.4-3.3-2.7-5.5-3.9c-2.2-1.1-5-2.3-8.1-3.5c-2-0.7-3.6-1.3-5-2c-1.3-0.7-2.4-1.2-3.3-1.9
	s-1.4-1.3-1.7-2.1c-0.4-0.7-0.5-1.6-0.5-2.5c0-1.9,0.8-3.4,2.5-4.3s3.9-1.4,6.7-1.4c3.1,0,5.7,0.3,8,0.8c2.3,0.6,4.2,1.1,5.7,1.9
	l2.4-10.8c-1.6-0.6-3.9-1.2-7-1.9c-3.1-0.7-6.4-0.9-9.8-0.9c-6.7,0-12.2,1.5-16.1,4.6s-5.9,7.3-5.9,12.6c0,2.7,0.5,5,1.3,6.9
	s2.1,3.5,3.6,4.9s3.3,2.5,5.3,3.5c2.1,1,4.3,2,6.7,2.8c4,1.5,6.9,2.8,8.6,4.1c1.8,1.2,2.6,2.8,2.6,4.8c0,2.1-0.8,3.6-2.4,4.4
	c-1.7,0.8-4.2,1.3-7.9,1.3c-3.6,0-6.7-0.4-9.5-1.1s-5.1-1.5-7.2-2.3l-2.3,11.2c1.3,0.6,3.5,1.2,6.5,2.1c3.1,0.8,7.3,1.3,12.3,1.3
	c7.7,0,13.6-1.4,17.7-4.3s6.2-7,6.2-12.5c0-2.6-0.4-4.8-1-6.6C355,103.8,354,102.1,352.5,100.7"/>
<path class="st2" d="M399.4,117.5c-2.2,0.5-5.3,0.7-9.4,0.7c-3.5,0-6.2-0.7-8.1-1.8c-2.1-1.2-3-3.5-3-6.6c0-1.6,0.4-3,1.1-4
	s1.8-1.9,3-2.5s2.6-1,4.1-1.2s3-0.3,4.5-0.3c1.7,0,3.3,0.1,4.7,0.3s2.5,0.5,3.3,0.7L399.4,117.5L399.4,117.5z M411.2,81.8
	c-0.7-2.8-2.1-5.2-3.9-7.3c-1.8-2-4.2-3.6-7.3-4.7c-3.1-1.1-6.8-1.7-11.2-1.7c-3.7,0-7.2,0.3-10.5,0.9s-5.8,1.2-7.5,1.8l1.7,10.8
	c1.7-0.6,3.7-1.1,6.4-1.6c2.6-0.5,5.4-0.7,8.6-0.7c2.3,0,4.2,0.3,5.7,0.9c1.5,0.7,2.7,1.4,3.6,2.5s1.6,2.3,2,3.7
	c0.4,1.4,0.6,2.9,0.6,4.4V93c-1.9-0.5-3.6-0.7-5.2-0.9c-1.7-0.2-3.2-0.3-4.7-0.3c-3.2,0-6.3,0.3-9.2,0.9c-2.9,0.7-5.5,1.7-7.8,3.1
	c-2.2,1.4-4,3.3-5.3,5.6c-1.3,2.2-2,5-2,8.4c0,3.5,0.6,6.4,1.8,8.8c1.1,2.3,2.7,4.3,4.8,5.8c2.1,1.5,4.5,2.5,7.4,3.2
	c2.9,0.7,6.1,1,9.6,1c5.2,0,10-0.3,14.2-0.9c4.2-0.7,7.3-1.1,9.4-1.6V91.3C412.3,87.8,412,84.7,411.2,81.8"/>
<g>
	<path class="st0" d="M526.3,93.4c4.2,0,7.3-1.4,10-4c2.6-2.7,3.9-6.1,3.9-10.2s-1.3-7.5-3.9-10.3c-2.5-2.7-5.8-4.2-10-4.2
		s-7.5,1.3-10.1,4c-2.7,2.7-4,6.1-4,10.2s1.4,7.6,4,10.3C518.7,92,522.1,93.4,526.3,93.4z"/>
	<path class="st0" d="M526.3,99.3c-4.2,0-7.5,1.3-10.1,4c-2.7,2.7-4,6-4,10.2l27.9,0.3c0-4.1-1.3-7.5-3.9-10.3
		C533.8,100.7,530.4,99.3,526.3,99.3z"/>
</g>
</svg>
