<?xml version="1.0" encoding="utf-8"?>
<!-- Generator: Adobe Illustrator 19.0.0, SVG Export Plug-In . SVG Version: 6.00 Build 0)  -->
<svg version="1.1" id="Layer_1" xmlns="http://www.w3.org/2000/svg" xmlns:xlink="http://www.w3.org/1999/xlink" x="0px" y="0px"
	 viewBox="44 -43.6 587.6 587.6" style="enable-background:new 44 -43.6 587.6 587.6;" xml:space="preserve">
<style type="text/css">
	.st0{opacity:0.5;fill:#CCCCCC;enable-background:new    ;}
	.st1{opacity:0.7;fill:#FFFFFF;enable-background:new    ;}
</style>
<path id="XMLID_3_" class="st0" d="M631.6,250.2c0,162.3-131.5,293.8-293.8,293.8C175.6,544,44,412.5,44,250.2
	S175.6-43.6,337.8-43.6C500.1-43.6,631.6,87.9,631.6,250.2"/>
<g>
	<path id="XMLID_2_" class="st1" d="M338.6,275.4c-24.4,0-44.5-8.2-60.3-24.8c-15.8-16.5-23.7-37-23.7-61.4c0-24.5,7.9-44.8,23.6-61
		s35.7-24.3,60.2-24.3c24.4,0,44.3,8.2,59.6,24.9c15.3,16.6,23,37,23,61.5c0,24.3-7.7,44.6-23,60.8
		C382.7,267.2,363,275.4,338.6,275.4"/>
	<path id="XMLID_1_" class="st1" d="M254.6,395.5c0-24.5,7.9-44.8,23.5-61c15.7-16.2,35.7-24.3,60.4-24.3c24.4,0,44.3,8.2,59.5,24.9
		c15.3,16.7,23,37.1,23,61.5"/>
</g>
</svg>
