<?xml version="1.0" encoding="UTF-8"?><svg id="Livello_1" xmlns="http://www.w3.org/2000/svg" viewBox="0 0 396.54 88.58"><defs><style>.cls-1{fill:#0033a1;}.cls-2{fill:#fff;}.cls-3{fill:#80bc00;}</style></defs><path class="cls-2" d="m352.28,84.53l-4,.05H62.55c15.32-6.96,25.99-22.39,25.99-40.31S77.92,10.98,62.65,4h289.63c22.2,0,40.27,18.06,40.27,40.27s-18.06,40.27-40.27,40.27Z"/><g><path class="cls-3" d="m352.28,0H44.27C19.82,0,0,19.82,0,44.27s19.82,44.27,44.27,44.27v.05h308.01v-.05c24.45,0,44.27-19.82,44.27-44.27S376.73,0,352.28,0Zm0,84.53l-4,.05H62.55c15.32-6.96,25.99-22.39,25.99-40.31S77.92,10.98,62.65,4h289.63c22.2,0,40.27,18.06,40.27,40.27s-18.06,40.27-40.27,40.27Z"/><g><path class="cls-2" d="m26.32,25.39h7.47v35.81h-7.47V25.39Z"/><path class="cls-2" d="m41.11,25.39h13.39c5.48,0,9.75,1.49,12.81,4.46,3.06,2.98,4.59,7.39,4.59,13.24,0,2.98-.43,5.58-1.28,7.82-.85,2.24-2.08,4.13-3.69,5.67-1.61,1.54-3.56,2.69-5.87,3.46-2.31.77-4.92,1.15-7.82,1.15h-12.14V25.39Zm12.29,29.44c1.94,0,3.59-.28,4.96-.83,1.37-.55,2.48-1.35,3.33-2.38.85-1.04,1.48-2.26,1.88-3.69s.6-3.02.6-4.79-.18-3.32-.53-4.74c-.35-1.42-.91-2.62-1.68-3.59-.77-.97-1.76-1.72-2.98-2.26-1.22-.53-2.72-.8-4.49-.8h-5.92v23.07h4.81Z"/></g></g><g><path class="cls-1" d="m103.35,26.12s.83-.35,2.44-.35c1.72,0,2.55.35,2.55.35v34.61s-.88.33-2.5.33c-1.75,0-2.49-.33-2.49-.33V26.12Z"/><path class="cls-1" d="m136.98,60.73s-.83.33-2.46.33-2.43-.33-2.43-.33v-17.65c0-2.75-1.42-4.32-4.56-4.32-2.15,0-4.26,1.19-5.54,3.14v18.83s-.88.33-2.45.33c-1.71,0-2.44-.33-2.44-.33v-25.11s.74-.33,2.44-.33c1.57,0,2.45.33,2.45.33v2.25c1.76-2,4.32-3.07,7.41-3.07,4.89,0,7.59,2.98,7.59,7.39v18.54Z"/><path class="cls-1" d="m154.41,24.3c3.27,0,5.38,1.03,5.38,1.03-.05,1.37-.45,2.45-1.29,3.44,0,0-1.51-.54-3.77-.54-2.8,0-3.63,1.27-3.63,3.87v3.19h6.12c.15.53.24,1.17.24,1.89,0,.65-.1,1.24-.24,1.78h-6.12v21.77s-.84.33-2.45.33c-1.72,0-2.44-.33-2.44-.33v-21.77h-3.25c-.1-.53-.25-1.18-.25-1.86,0-.74.1-1.31.25-1.8h3.25v-2.94c0-4.76,1.97-8.05,8.19-8.05"/><path class="cls-1" d="m172.57,34.8c6.78,0,10.89,3.66,10.89,13.38s-4.17,13.38-10.89,13.38-10.86-3.67-10.86-13.38,4.16-13.38,10.86-13.38m0,3.77c-3.56,0-5.87,2.07-5.87,9.61s2.3,9.6,5.87,9.6,5.85-2.06,5.85-9.6-2.27-9.61-5.85-9.61"/><path class="cls-1" d="m203.82,25.28c5.43,0,8.37,1.67,8.37,1.67.1,1.62-.59,2.74-1.47,3.72,0,0-2.84-1.12-6.32-1.12-5.68,0-9.66,2.99-9.66,13.92s3.97,13.73,9.66,13.73c3.88,0,6.82-1.13,6.82-1.13.97.94,1.47,2.35,1.51,3.83,0,0-3.19,1.66-8.91,1.66-9.38,0-14.27-6.16-14.27-18.13s4.85-18.15,14.27-18.15"/><path class="cls-1" d="m227.55,34.8c7.11,0,9.37,3.18,9.37,9.51v16.42s-.53.33-1.92.33c-1.23,0-1.96-.33-1.96-.33l-.74-3.14c-1.26,2.6-3.96,3.97-7.69,3.97-4.61,0-7.6-2.69-7.6-8.18s3.3-7.7,9.43-7.7c2.2,0,4.3.14,5.58.3v-1.82c0-3.33-1.28-5.25-5.05-5.25-3.43,0-6.57,1.24-6.57,1.24-.05-.05-.65-.45-1.13-1.47-.44-1.05-.29-2.01-.29-2.07,0,0,3.67-1.8,8.57-1.8m-.48,14.2c-3.29,0-5,1.28-5,4.38s1.61,4.4,4.26,4.4c3.86,0,5.68-3.28,5.68-6.77v-1.72c-1.13-.09-3.08-.3-4.95-.3"/><path class="cls-1" d="m271,34.8c4.66,0,7.31,2.98,7.31,7.39v18.54s-.84.33-2.46.33c-1.72,0-2.43-.33-2.43-.33v-17.65c0-2.75-1.29-4.32-4.28-4.32-2.01,0-3.97,1.08-5.24,3.14v18.83s-.83.33-2.42.33c-1.71,0-2.44-.33-2.44-.33v-17.65c0-2.75-1.26-4.32-4.26-4.32-2.01,0-3.96,1.19-5.23,3.09v18.88s-.84.33-2.42.33c-1.72,0-2.46-.33-2.46-.33v-25.11s.74-.33,2.46-.33c1.58,0,2.42.33,2.42.33v2.21c1.71-1.96,4.2-3.03,7.05-3.03s5.05,1.02,6.38,3.57c2.01-2.4,4.65-3.57,8.04-3.57"/><path class="cls-1" d="m290.02,49.7c.4,5.83,2.76,7.69,6.83,7.69,3.48,0,5.79-1.42,5.79-1.42.87.79,1.51,2.11,1.57,3.52,0,0-2.79,2.07-8.14,2.07-7.55,0-11.08-4.66-11.08-13.53s4.36-13.22,10.89-13.22c6.03,0,9.69,3.32,9.69,9.84,0,3.1-.53,5.06-.53,5.06h-15Zm5.85-11.03c-3.19,0-5.44,2.1-5.85,7.55h10.5c.05-.4.15-1.17.15-2.2,0-2.9-1.16-5.35-4.8-5.35"/><path class="cls-1" d="m322.98,34.85c1.81,0,3.18.53,4.25,1.22-.14,1.77-.83,3.05-2.14,4.12-.94-.69-1.93-1.02-3.05-1.02-1.91,0-3.78,1.47-5.03,3.71v17.86s-.85.33-2.46.33c-1.72,0-2.46-.33-2.46-.33v-25.11s.74-.33,2.46-.33c1.61,0,2.46.33,2.46.33v3.38c1.85-3.08,4-4.16,5.97-4.16"/><path class="cls-1" d="m336.12,49.7c.39,5.83,2.74,7.69,6.82,7.69,3.48,0,5.77-1.42,5.77-1.42.89.79,1.52,2.11,1.58,3.52,0,0-2.78,2.07-8.13,2.07-7.55,0-11.09-4.66-11.09-13.53s4.38-13.22,10.88-13.22c6.05,0,9.72,3.32,9.72,9.84,0,3.1-.53,5.06-.53,5.06h-15.01Zm5.82-11.03c-3.18,0-5.43,2.1-5.82,7.55h10.49c.05-.4.15-1.17.15-2.2,0-2.9-1.16-5.35-4.82-5.35"/></g></svg>