<?xml version="1.0" encoding="utf-8"?>
<!-- Generator: Adobe Illustrator 23.0.1, SVG Export Plug-In . SVG Version: 6.00 Build 0)  -->
<svg version="1.1" id="Livello_1" xmlns="http://www.w3.org/2000/svg" xmlns:xlink="http://www.w3.org/1999/xlink" x="0px" y="0px"
	 viewBox="0 0 366.19 133.57" style="enable-background:new 0 0 366.19 133.57;" xml:space="preserve">
<style type="text/css">
	.st0{fill:#ED6C25;}
	.st1{fill-rule:evenodd;clip-rule:evenodd;fill:#26201F;}
	.st2{fill-rule:evenodd;clip-rule:evenodd;fill:#ED6C25;stroke:#ED6C27;stroke-width:2;stroke-miterlimit:10;}
	.st3{fill-rule:evenodd;clip-rule:evenodd;fill:#ED6C25;}
</style>
<path class="st0" d="M51.57,19.69c4.64-7.57,12.81-12.8,22.34-13.3c15.03-0.79,27.9,10.46,29.25,25.32h-0.86
	c-3.21,0-5.8,2.6-5.8,5.81v14.98c-4.8,5.55-11.76,9.22-19.67,9.64c-6.03,0.32-11.72-1.31-16.44-4.33c-4.17-3.83-5.82,0-6.83,1.54
	c-4.41,6.72-11.86,11.33-20.51,11.78C18.62,71.88,6.31,60.8,5.55,46.37C4.8,31.94,15.88,19.63,30.31,18.87
	c4.47-0.23,8.73,0.66,12.51,2.45C45.04,22.37,50.49,21.45,51.57,19.69"/>
<path class="st1" d="M129.53,109.93l-2.01-5.04c-0.23-0.62-0.79-0.92-1.57-0.62c-2.13,0.72-4.36,1.13-6.94,1.13
	c-3.13,0-5.71-1.03-7.83-2.98c-2.13-1.96-3.25-4.32-3.25-7.19V38c0-0.82-0.34-1.13-1.23-1.13H101c-0.78,0-1.23,0.31-1.23,1.13v57.24
	c0,4.93,1.9,9.14,5.59,12.54c3.81,3.39,8.28,5.14,13.65,5.14c3.02,0,6.38-0.51,9.74-1.55C129.53,111.06,129.75,110.55,129.53,109.93
	"/>
<path class="st1" d="M171.18,87.53V76.57c0-5.1-1.91-9.5-5.93-13.18c-4.03-3.7-8.84-5.55-14.54-5.55c-5.6,0-10.41,1.85-14.43,5.45
	c-4.03,3.69-6.04,8.08-6.04,13.29v16.41c0,5.55,2.13,10.17,6.37,14.08c4.25,3.9,9.29,5.86,15.22,5.86c6.49,0,12.31-1.65,17.34-5.04
	c0.67-0.41,0.78-1.03,0.33-1.54l-3.36-4.42c-0.45-0.51-1.01-0.61-1.57-0.21c-3.81,2.47-8.05,3.7-12.75,3.7
	c-3.69,0-6.82-1.23-9.51-3.7c-2.57-2.36-3.91-5.24-3.91-8.73v-3.19c0-0.72,0.45-1.13,1.23-1.13h30.43
	C170.84,88.66,171.18,88.25,171.18,87.53 M163.01,80.04c0,0.71-0.34,1.12-1.12,1.12h-22.26c-0.78,0-1.23-0.41-1.23-1.12v-3.47
	c0-3.07,1.23-5.72,3.69-7.97c2.35-2.24,5.26-3.27,8.61-3.27c3.36,0,6.26,1.02,8.73,3.27c2.46,2.25,3.58,4.9,3.58,7.97V80.04z"/>
<path class="st1" d="M220.33,90.44V77.53c0-5.43-2.13-10.04-6.38-13.94c-4.14-3.9-9.29-5.75-15.22-5.75c-4.92,0-9.4,1.44-13.54,4.42
	c-0.11,0.11-0.34,0.21-0.67,0.21c-0.78,0-1.23-0.41-1.23-1.13v-1.23c0-0.82-0.34-1.13-1.23-1.13h-3.69c-0.78,0-1.23,0.31-1.23,1.13
	v65.88c0,0.72,0.45,1.13,1.23,1.13h5.82c0.78,0,1.12-0.41,1.12-1.13v-17.99c0-0.72,0.45-1.03,1.23-1.03c0.45,0,0.67,0.1,0.89,0.21
	c3.36,2.06,7.16,3.08,11.3,3.08c5.93,0,11.08-1.96,15.22-5.86C218.21,100.49,220.33,95.87,220.33,90.44 M212.17,90.44
	c0,3.38-1.34,6.25-3.92,8.71c-2.57,2.36-5.82,3.58-9.51,3.58c-3.69,0-6.82-1.23-9.4-3.58c-2.69-2.46-4.03-5.33-4.03-8.71V77.53
	c0-3.38,1.34-6.15,4.03-8.61c2.69-2.46,5.7-3.59,9.4-3.59c3.69,0,6.71,1.13,9.4,3.59c2.69,2.46,4.03,5.23,4.03,8.61V90.44z"/>
<path class="st2" d="M311.74,110.34V38.01c0-0.83-0.34-1.14-1.12-1.14h-5.82c-0.79,0-1.23,0.31-1.23,1.14v22.09
	c0,0.62-0.34,0.93-1.12,0.93c-0.45,0-0.67-0.11-0.9-0.21c-3.35-2.05-7.16-2.98-11.3-2.98c-5.93,0-11.08,1.85-15.22,5.76
	c-4.25,3.9-6.38,8.51-6.38,13.94v15.58c0,5.43,2.13,10.04,6.38,13.94c4.25,3.9,9.29,5.86,15.22,5.86c4.93,0,9.4-1.44,13.54-4.42
	c0.11-0.2,0.33-0.2,0.67-0.2c0.78,0,1.23,0.31,1.23,1.13v0.92c0,0.72,0.34,1.13,1.23,1.13h3.69
	C311.4,111.47,311.74,111.06,311.74,110.34 M303.57,93.11c0,3.38-1.23,6.25-3.92,8.71c-2.57,2.36-5.71,3.59-9.4,3.59
	c-3.69,0-6.94-1.23-9.51-3.59c-2.57-2.46-3.91-5.33-3.91-8.71V77.53c0-3.38,1.34-6.25,3.91-8.61c2.57-2.46,5.82-3.59,9.51-3.59
	c3.58,0,6.71,1.13,9.4,3.59c2.68,2.36,3.92,5.23,3.92,8.61V93.11z"/>
<path class="st1" d="M359.77,110.34v-33.7c0-5.2-2.01-9.57-6.04-13.26c-4.03-3.7-8.84-5.55-14.54-5.55
	c-6.38,0-12.08,1.65-17.12,4.93c-0.78,0.41-0.78,0.92-0.33,1.54l3.36,4.28c0.33,0.61,0.9,0.71,1.57,0.31
	c3.8-2.44,8.05-3.56,12.53-3.56c3.47,0,6.37,1.02,8.73,3.26c2.46,2.24,3.69,4.88,3.69,8.05v1.34c0,0.82-0.33,0.92-1.12,0.51
	c-3.35-2.16-7.16-3.19-11.3-3.19c-5.71,0-10.52,1.85-14.55,5.55c-3.91,3.7-5.93,8.12-5.93,13.26c0,5.24,2.01,9.66,5.93,13.36
	c4.03,3.7,8.84,5.55,14.55,5.55c4.02,0,7.6-1.03,10.74-2.88c1.57-0.93,2.46-1.44,2.46-1.44c0.79,0,1.23,0.41,1.23,1.13v0.51
	c0,0.72,0.45,1.13,1.23,1.13h3.69C359.33,111.47,359.77,111.06,359.77,110.34 M351.6,94.11c0,3.19-1.23,5.75-3.69,8.01
	c-2.46,2.26-5.26,3.39-8.73,3.39c-3.47,0-6.27-1.13-8.73-3.39c-2.46-2.26-3.58-4.83-3.58-8.01c0-3.09,1.12-5.75,3.58-8.01
	c2.46-2.26,5.37-3.29,8.73-3.29c3.47,0,6.37,1.13,8.73,3.29C350.37,88.35,351.6,91.02,351.6,94.11"/>
<path class="st3" d="M258.93,72.56c0-4.31-1.66-8-4.99-10.76c-2.99-3.08-6.97-4.31-11.61-4.31c-4.32,0-8.31,1.23-11.3,4.31
	c-3.32,2.76-4.96,6.45-4.96,10.76c0,3.99,1.64,7.69,4.96,10.46c2.99,3.07,6.97,4.61,11.3,4.61c4.64,0,8.62-1.55,11.61-4.61
	C257.28,80.24,258.93,76.55,258.93,72.56"/>
<g>
	<path class="st0" d="M242.5,93.67c-11.3,0-20.45,8.41-20.45,18.79h40.91C262.96,102.08,253.8,93.67,242.5,93.67z"/>
</g>
</svg>
